SplineFontDB: 3.0
FontName: Sansita-BlackItalic
FullName: Sansita-BlackItalic
FamilyName: Sansita
Weight: Black
Copyright: Copyright (c) 2011-2013, Omnibus-Type (www.omnibus-type.com omnibus.type@gmail.com) with Reserved Font Name 'Sansita'
Version: 001.004
ItalicAngle: -11
UnderlinePosition: -102.4
UnderlineWidth: 102.4
Ascent: 1638
Descent: 410
sfntRevision: 0x00010106
LayerCount: 2
Layer: 0 1 "Back"  1
Layer: 1 1 "Fore"  0
XUID: [1021 809 -2065993493 15564552]
FSType: 8
OS2Version: 3
OS2_WeightWidthSlopeOnly: 0
OS2_UseTypoMetrics: 1
CreationTime: 1387883437
ModificationTime: 1388162419
PfmFamily: 81
TTFWeight: 900
TTFWidth: 5
LineGap: 0
VLineGap: 0
Panose: 0 0 10 0 0 0 0 0 0 0
OS2TypoAscent: 1434
OS2TypoAOffset: 0
OS2TypoDescent: -369
OS2TypoDOffset: 0
OS2TypoLinegap: 655
OS2WinAscent: 2089
OS2WinAOffset: 0
OS2WinDescent: 369
OS2WinDOffset: 0
HheadAscent: 2089
HheadAOffset: 0
HheadDescent: -369
HheadDOffset: 0
OS2SubXSize: 1331
OS2SubYSize: 1229
OS2SubXOff: -31
OS2SubYOff: 154
OS2SupXSize: 1331
OS2SupYSize: 1229
OS2SupXOff: 139
OS2SupYOff: 717
OS2StrikeYSize: 102
OS2StrikeYPos: 627
OS2Vendor: 'UKWN'
OS2CodePages: 20000093.00000000
OS2UnicodeRanges: 00000007.00000000.00000000.00000000
Lookup: 1 0 0 "'aalt' Access All Alternates lookup 0"  {"'aalt' Access All Alternates lookup 0 subtable"  } ['aalt' ('DFLT' <'dflt' > 'grek' <'dflt' > 'latn' <'AZE ' 'CAT ' 'CRT ' 'ESP ' 'KAZ ' 'MOL ' 'NLD ' 'PLK ' 'ROM ' 'TAT ' 'TRK ' 'dflt' > ) ]
Lookup: 3 0 0 "'aalt' Access All Alternates lookup 1"  {"'aalt' Access All Alternates lookup 1 subtable"  } ['aalt' ('DFLT' <'dflt' > 'grek' <'dflt' > 'latn' <'AZE ' 'CAT ' 'CRT ' 'ESP ' 'KAZ ' 'MOL ' 'NLD ' 'PLK ' 'ROM ' 'TAT ' 'TRK ' 'dflt' > ) ]

StartChar: .notdef
Encoding: 65536 -1 0
Width: 1052
Flags: MW
HStem: 0 102<100 797 100 940> 1331 102<336 1032 336 336>
VStem: -84 1303
LayerCount: 2
UndoRedoHistory
Layer: 1
Undoes
EndUndoes
Redoes
EndRedoes
EndUndoRedoHistory
Fore
SplineSet
797 102 m 1,0,-1
 547 625 l 1,1,-1
 100 102 l 1,2,-1
 797 102 l 1,0,-1
872 195 m 1,3,-1
 1077 1239 l 1,4,-1
 629 717 l 1,5,-1
 872 195 l 1,3,-1
53 195 m 1,6,-1
 506 717 l 1,7,-1
 258 1239 l 1,8,-1
 53 195 l 1,6,-1
1032 1331 m 1,9,-1
 336 1331 l 1,10,-1
 586 809 l 1,11,-1
 1032 1331 l 1,9,-1
195 1434 m 1,12,-1
 1219 1434 l 1,13,-1
 940 0 l 1,14,-1
 -84 0 l 1,15,-1
 195 1434 l 1,12,-1
EndSplineSet
Validated: 1
EndChar

StartChar: A
Encoding: 65 65 1
Width: 1259
Flags: MW
HStem: 319 170<377 645 377 651 311 645> 1004 348<618 618> 1311 41G<547 1087 1087 1087>
VStem: 632 481
LayerCount: 2
UndoRedoHistory
Layer: 1
Undoes
EndUndoes
Redoes
EndRedoes
EndUndoRedoHistory
Fore
SplineSet
618 1004 m 1,0,1
 547 864 547 864 377 489 c 1,2,-1
 645 489 l 1,3,-1
 618 1004 l 1,0,1
1139 408 m 1,4,5
 1157 152 1157 152 1262 92 c 1,6,7
 1226 30 1226 30 1154 -5.5 c 128,-1,8
 1082 -41 1082 -41 985 -41 c 0,9,10
 857 -41 857 -41 783.5 14.5 c 128,-1,11
 710 70 710 70 676 190 c 1,12,13
 658 264 658 264 651 319 c 1,14,-1
 311 319 l 1,15,16
 231 125 231 125 197 0 c 1,17,-1
 -115 0 l 1,18,-1
 547 1352 l 1,19,-1
 1087 1352 l 1,20,-1
 1139 408 l 1,4,5
EndSplineSet
Validated: 8388609
Substitution2: "Single Substitution lookup 21 subtable" ordfeminine
Substitution2: "'aalt' Access All Alternates lookup 0 subtable" ordfeminine
Position2: "'cpsp' Capital Spacing lookup 3 subtable" dx=10 dy=0 dh=20 dv=0
EndChar

StartChar: Aacute
Encoding: 193 193 2
Width: 1259
Flags: MW
HStem: 319 170<377 645 377 651 311 645> 1004 348<618 618> 1311 41G<547 1087 1087 1087>
VStem: -115 1376 632 481
LayerCount: 2
UndoRedoHistory
Layer: 1
Undoes
EndUndoes
Redoes
EndRedoes
EndUndoRedoHistory
Fore
SplineSet
618 1004 m 1,0,1
 547 864 547 864 377 489 c 1,2,-1
 645 489 l 1,3,-1
 618 1004 l 1,0,1
1139 408 m 1,4,5
 1157 152 1157 152 1262 92 c 1,6,7
 1226 30 1226 30 1154 -5.5 c 128,-1,8
 1082 -41 1082 -41 985 -41 c 0,9,10
 857 -41 857 -41 783.5 14.5 c 128,-1,11
 710 70 710 70 676 190 c 1,12,13
 658 264 658 264 651 319 c 1,14,-1
 311 319 l 1,15,16
 231 125 231 125 197 0 c 1,17,-1
 -115 0 l 1,18,-1
 547 1352 l 1,19,-1
 1087 1352 l 1,20,-1
 1139 408 l 1,4,5
649 1556 m 1,21,-1
 1161 1780 l 1,22,23
 1193 1754 1193 1754 1209 1727 c 128,-1,24
 1225 1700 1225 1700 1225 1659 c 0,25,26
 1225 1559 1225 1559 1141 1509.5 c 128,-1,27
 1057 1460 1057 1460 924 1458 c 1,28,-1
 678 1452 l 1,29,-1
 649 1556 l 1,21,-1
EndSplineSet
Validated: 8388609
Position2: "'cpsp' Capital Spacing lookup 3 subtable" dx=10 dy=0 dh=20 dv=0
EndChar

StartChar: Abreve
Encoding: 258 258 3
Width: 1259
Flags: MW
HStem: 319 170<377 645 377 651 311 645> 1004 348<618 618> 1311 41G<547 1087 1087 1087> 1434 272<663 786 934 941>
VStem: 418 358<1593 1595 1576 1660> 632 481
LayerCount: 2
UndoRedoHistory
Layer: 1
Undoes
EndUndoes
Redoes
EndRedoes
EndUndoRedoHistory
Fore
SplineSet
618 1004 m 1,0,1
 547 864 547 864 377 489 c 1,2,-1
 645 489 l 1,3,-1
 618 1004 l 1,0,1
1139 408 m 1,4,5
 1157 152 1157 152 1262 92 c 1,6,7
 1226 30 1226 30 1154 -5.5 c 128,-1,8
 1082 -41 1082 -41 985 -41 c 0,9,10
 857 -41 857 -41 783.5 14.5 c 128,-1,11
 710 70 710 70 676 190 c 1,12,13
 658 264 658 264 651 319 c 1,14,-1
 311 319 l 1,15,16
 231 125 231 125 197 0 c 1,17,-1
 -115 0 l 1,18,-1
 547 1352 l 1,19,-1
 1087 1352 l 1,20,-1
 1139 408 l 1,4,5
786 1706 m 1,21,22
 778 1648 778 1648 778 1622 c 0,23,24
 778 1618 778 1618 777 1607 c 128,-1,25
 776 1596 776 1596 776 1589 c 0,26,27
 776 1534 776 1534 834 1534 c 0,28,29
 851 1534 851 1534 864.5 1541.5 c 128,-1,30
 878 1549 878 1549 886.5 1559.5 c 128,-1,31
 895 1570 895 1570 902.5 1589.5 c 128,-1,32
 910 1609 910 1609 914 1624.5 c 128,-1,33
 918 1640 918 1640 924 1665.5 c 128,-1,34
 930 1691 930 1691 934 1706 c 1,35,-1
 1284 1706 l 1,36,37
 1258 1586 1258 1586 1131.5 1510 c 128,-1,38
 1005 1434 1005 1434 801 1434 c 0,39,40
 606 1434 606 1434 512 1495.5 c 128,-1,41
 418 1557 418 1557 418 1651 c 0,42,43
 418 1676 418 1676 424 1706 c 1,44,-1
 786 1706 l 1,21,22
EndSplineSet
Validated: 8388609
Position2: "'cpsp' Capital Spacing lookup 3 subtable" dx=10 dy=0 dh=20 dv=0
EndChar

StartChar: Acircumflex
Encoding: 194 194 4
Width: 1259
Flags: MW
HStem: 319 170<377 645 377 651 311 645> 1004 348<618 618> 1311 41G<547 1087 1087 1087>
VStem: -115 1376 632 481
LayerCount: 2
UndoRedoHistory
Layer: 1
Undoes
EndUndoes
Redoes
EndRedoes
EndUndoRedoHistory
Fore
SplineSet
618 1004 m 1,0,1
 547 864 547 864 377 489 c 1,2,-1
 645 489 l 1,3,-1
 618 1004 l 1,0,1
1139 408 m 1,4,5
 1157 152 1157 152 1262 92 c 1,6,7
 1226 30 1226 30 1154 -5.5 c 128,-1,8
 1082 -41 1082 -41 985 -41 c 0,9,10
 857 -41 857 -41 783.5 14.5 c 128,-1,11
 710 70 710 70 676 190 c 1,12,13
 658 264 658 264 651 319 c 1,14,-1
 311 319 l 1,15,16
 231 125 231 125 197 0 c 1,17,-1
 -115 0 l 1,18,-1
 547 1352 l 1,19,-1
 1087 1352 l 1,20,-1
 1139 408 l 1,4,5
1118 1411 m 1,21,-1
 866 1487 l 1,22,-1
 545 1411 l 1,23,-1
 477 1503 l 1,24,-1
 846 1749 l 1,25,-1
 938 1749 l 1,26,-1
 1231 1503 l 1,27,-1
 1118 1411 l 1,21,-1
EndSplineSet
Validated: 8388609
Position2: "'cpsp' Capital Spacing lookup 3 subtable" dx=10 dy=0 dh=20 dv=0
EndChar

StartChar: Adieresis
Encoding: 196 196 5
Width: 1259
Flags: MW
HStem: 319 170<377 645 377 651 311 645> 1004 348<618 618> 1311 41G<547 1087 1087 1087> 1413 346<504 636 1014 1146>
VStem: 324 485<1529 1636> 632 481 834 485<1529 1636>
LayerCount: 2
UndoRedoHistory
Layer: 1
Undoes
EndUndoes
Redoes
EndRedoes
EndUndoRedoHistory
Fore
SplineSet
618 1004 m 1,0,1
 547 864 547 864 377 489 c 1,2,-1
 645 489 l 1,3,-1
 618 1004 l 1,0,1
1139 408 m 1,4,5
 1157 152 1157 152 1262 92 c 1,6,7
 1226 30 1226 30 1154 -5.5 c 128,-1,8
 1082 -41 1082 -41 985 -41 c 0,9,10
 857 -41 857 -41 783.5 14.5 c 128,-1,11
 710 70 710 70 676 190 c 1,12,13
 658 264 658 264 651 319 c 1,14,-1
 311 319 l 1,15,16
 231 125 231 125 197 0 c 1,17,-1
 -115 0 l 1,18,-1
 547 1352 l 1,19,-1
 1087 1352 l 1,20,-1
 1139 408 l 1,4,5
1083 1759 m 0,21,22
 1188 1759 1188 1759 1253.5 1711.5 c 128,-1,23
 1319 1664 1319 1664 1319 1585 c 0,24,25
 1319 1503 1319 1503 1251.5 1458 c 128,-1,26
 1184 1413 1184 1413 1075 1413 c 128,-1,27
 966 1413 966 1413 900 1457 c 128,-1,28
 834 1501 834 1501 834 1581 c 0,29,30
 834 1662 834 1662 905 1710.5 c 128,-1,31
 976 1759 976 1759 1083 1759 c 0,21,22
573 1759 m 0,32,33
 678 1759 678 1759 743.5 1711.5 c 128,-1,34
 809 1664 809 1664 809 1585 c 0,35,36
 809 1503 809 1503 741.5 1458 c 128,-1,37
 674 1413 674 1413 565 1413 c 128,-1,38
 456 1413 456 1413 390 1457 c 128,-1,39
 324 1501 324 1501 324 1581 c 0,40,41
 324 1662 324 1662 395 1710.5 c 128,-1,42
 466 1759 466 1759 573 1759 c 0,32,33
EndSplineSet
Validated: 8388609
Position2: "'cpsp' Capital Spacing lookup 3 subtable" dx=10 dy=0 dh=20 dv=0
EndChar

StartChar: Agrave
Encoding: 192 192 6
Width: 1259
Flags: MW
HStem: 319 170<377 645 377 651 311 645> 1004 348<618 618> 1311 41G<547 1087 1087 1087> 1457 103
VStem: -115 1376 632 481
LayerCount: 2
UndoRedoHistory
Layer: 1
Undoes
EndUndoes
Redoes
EndRedoes
EndUndoRedoHistory
Fore
SplineSet
618 1004 m 1,0,1
 547 864 547 864 377 489 c 1,2,-1
 645 489 l 1,3,-1
 618 1004 l 1,0,1
1139 408 m 1,4,5
 1157 152 1157 152 1262 92 c 1,6,7
 1226 30 1226 30 1154 -5.5 c 128,-1,8
 1082 -41 1082 -41 985 -41 c 0,9,10
 857 -41 857 -41 783.5 14.5 c 128,-1,11
 710 70 710 70 676 190 c 1,12,13
 658 264 658 264 651 319 c 1,14,-1
 311 319 l 1,15,16
 231 125 231 125 197 0 c 1,17,-1
 -115 0 l 1,18,-1
 547 1352 l 1,19,-1
 1087 1352 l 1,20,-1
 1139 408 l 1,4,5
1049 1454 m 1,21,-1
 801 1460 l 2,22,23
 716 1462 716 1462 651 1482 c 128,-1,24
 586 1502 586 1502 544 1548 c 128,-1,25
 502 1594 502 1594 502 1663 c 0,26,27
 502 1735 502 1735 565 1782 c 1,28,-1
 1077 1561 l 1,29,-1
 1049 1454 l 1,21,-1
EndSplineSet
Validated: 8388609
Position2: "'cpsp' Capital Spacing lookup 3 subtable" dx=10 dy=0 dh=20 dv=0
EndChar

StartChar: Amacron
Encoding: 256 256 7
Width: 1259
Flags: MW
HStem: 319 170<377 645 377 651 311 645> 1004 348<618 618> 1311 41G<547 1087 1087 1087> 1520 197<655 1018 516 1174>
VStem: -115 1376 632 481
LayerCount: 2
UndoRedoHistory
Layer: 1
Undoes
EndUndoes
Redoes
EndRedoes
EndUndoRedoHistory
Fore
SplineSet
618 1004 m 1,0,1
 547 864 547 864 377 489 c 1,2,-1
 645 489 l 1,3,-1
 618 1004 l 1,0,1
1139 408 m 1,4,5
 1157 152 1157 152 1262 92 c 1,6,7
 1226 30 1226 30 1154 -5.5 c 128,-1,8
 1082 -41 1082 -41 985 -41 c 0,9,10
 857 -41 857 -41 783.5 14.5 c 128,-1,11
 710 70 710 70 676 190 c 1,12,13
 658 264 658 264 651 319 c 1,14,-1
 311 319 l 1,15,16
 231 125 231 125 197 0 c 1,17,-1
 -115 0 l 1,18,-1
 547 1352 l 1,19,-1
 1087 1352 l 1,20,-1
 1139 408 l 1,4,5
1174 1716 m 1,21,22
 1182 1684 1182 1684 1182 1655 c 0,23,24
 1182 1596 1182 1596 1140 1558 c 128,-1,25
 1098 1520 1098 1520 1018 1520 c 2,26,-1
 516 1520 l 1,27,28
 510 1538 510 1538 510 1577 c 0,29,30
 511 1638 511 1638 552 1677 c 128,-1,31
 593 1716 593 1716 655 1716 c 2,32,-1
 1174 1716 l 1,21,22
EndSplineSet
Validated: 8388609
Position2: "'cpsp' Capital Spacing lookup 3 subtable" dx=10 dy=0 dh=20 dv=0
EndChar

StartChar: Aogonek
Encoding: 260 260 8
Width: 1259
Flags: MW
HStem: -528 203<1080 1102> -76 41G 319 170<377 645 377 651 311 645> 1004 348<618 618> 1311 41G<547 1087 1087 1087>
VStem: 632 481 752 270<-268 -251>
LayerCount: 2
UndoRedoHistory
Layer: 1
Undoes
EndUndoes
Redoes
EndRedoes
EndUndoRedoHistory
Fore
SplineSet
645 489 m 1,0,-1
 618 1004 l 1,1,2
 547 864 547 864 377 489 c 1,3,-1
 645 489 l 1,0,-1
1198 20 m 1,4,5
 1118 -35 1118 -35 1070 -102 c 128,-1,6
 1022 -169 1022 -169 1022 -236 c 0,7,8
 1022 -284 1022 -284 1043.5 -305 c 128,-1,9
 1065 -326 1065 -326 1108 -326 c 0,10,11
 1187 -326 1187 -326 1231 -274 c 1,12,13
 1270 -330 1270 -330 1270 -397 c 0,14,15
 1270 -453 1270 -453 1204.5 -490.5 c 128,-1,16
 1139 -528 1139 -528 1014 -528 c 128,-1,17
 889 -528 889 -528 820.5 -473.5 c 128,-1,18
 752 -419 752 -419 752 -315 c 0,19,20
 752 -136 752 -136 907 -35 c 1,21,22
 815 -20 815 -20 759.5 35 c 128,-1,23
 704 90 704 90 676 190 c 1,24,25
 658 264 658 264 651 319 c 1,26,-1
 311 319 l 1,27,28
 231 125 231 125 197 0 c 1,29,-1
 -115 0 l 1,30,-1
 547 1352 l 1,31,-1
 1087 1352 l 1,32,-1
 1139 408 l 1,33,34
 1157 152 1157 152 1262 92 c 1,35,36
 1236 48 1236 48 1198 20 c 1,4,5
EndSplineSet
Validated: 8388609
Position2: "'cpsp' Capital Spacing lookup 3 subtable" dx=10 dy=0 dh=20 dv=0
EndChar

StartChar: Aring
Encoding: 197 197 9
Width: 1259
Flags: MW
HStem: 319 170<377 645 377 651 311 645> 1004 348<618 618> 1311 41G<547 1087 1087 1087> 1413 78<805 866 805 881> 1665 84<839 900>
VStem: 614 150<1533 1589 1533 1615> 632 481 936 147<1567 1622>
LayerCount: 2
UndoRedoHistory
Layer: 1
Undoes
EndUndoes
Redoes
EndRedoes
EndUndoRedoHistory
Fore
SplineSet
618 1004 m 1,0,1
 547 864 547 864 377 489 c 1,2,-1
 645 489 l 1,3,-1
 618 1004 l 1,0,1
1139 408 m 1,4,5
 1157 152 1157 152 1262 92 c 1,6,7
 1226 30 1226 30 1154 -5.5 c 128,-1,8
 1082 -41 1082 -41 985 -41 c 0,9,10
 857 -41 857 -41 783.5 14.5 c 128,-1,11
 710 70 710 70 676 190 c 1,12,13
 658 264 658 264 651 319 c 1,14,-1
 311 319 l 1,15,16
 231 125 231 125 197 0 c 1,17,-1
 -115 0 l 1,18,-1
 547 1352 l 1,19,-1
 1087 1352 l 1,20,-1
 1139 408 l 1,4,5
936 1599 m 0,21,22
 936 1634 936 1634 923 1649.5 c 128,-1,23
 910 1665 910 1665 879 1665 c 0,24,25
 821 1665 821 1665 792.5 1636 c 128,-1,26
 764 1607 764 1607 764 1556 c 0,27,28
 764 1521 764 1521 778.5 1506 c 128,-1,29
 793 1491 793 1491 827 1491 c 0,30,31
 936 1491 936 1491 936 1599 c 0,21,22
1083 1606 m 0,32,33
 1083 1519 1083 1519 1002 1466 c 128,-1,34
 921 1413 921 1413 809 1413 c 0,35,36
 721 1413 721 1413 667.5 1450.5 c 128,-1,37
 614 1488 614 1488 614 1554 c 0,38,39
 614 1641 614 1641 698.5 1695 c 128,-1,40
 783 1749 783 1749 899 1749 c 0,41,42
 984 1749 984 1749 1033.5 1712 c 128,-1,43
 1083 1675 1083 1675 1083 1606 c 0,32,33
EndSplineSet
Validated: 8388609
Position2: "'cpsp' Capital Spacing lookup 3 subtable" dx=10 dy=0 dh=20 dv=0
EndChar

StartChar: Aringacute
Encoding: 506 506 10
Width: 1259
Flags: MW
HStem: 319 170<377 645 377 651 311 645> 1311 41G<547 602 602 602 776 838 1006 1087 1087 1087> 1526 84<810 871>
VStem: 586 150<1403 1450 1394 1476> 632 481 907 147<1444 1483>
LayerCount: 2
UndoRedoHistory
Layer: 1
Undoes
EndUndoes
Redoes
EndRedoes
EndUndoRedoHistory
Fore
SplineSet
645 489 m 1,0,-1
 618 1004 l 1,1,2
 547 864 547 864 377 489 c 1,3,-1
 645 489 l 1,0,-1
735 1417 m 0,4,5
 735 1382 735 1382 750 1367 c 128,-1,6
 765 1352 765 1352 799 1352 c 0,7,8
 907 1352 907 1352 907 1460 c 0,9,10
 907 1495 907 1495 894 1510.5 c 128,-1,11
 881 1526 881 1526 850 1526 c 0,12,13
 792 1526 792 1526 763.5 1497 c 128,-1,14
 735 1468 735 1468 735 1417 c 0,4,5
1139 408 m 1,15,16
 1157 152 1157 152 1262 92 c 1,17,18
 1226 30 1226 30 1154 -5.5 c 128,-1,19
 1082 -41 1082 -41 985 -41 c 0,20,21
 857 -41 857 -41 783.5 14.5 c 128,-1,22
 710 70 710 70 676 190 c 1,23,24
 658 264 658 264 651 319 c 1,25,-1
 311 319 l 1,26,27
 231 125 231 125 197 0 c 1,28,-1
 -115 0 l 1,29,-1
 547 1352 l 1,30,-1
 602 1352 l 1,31,32
 586 1381 586 1381 586 1415 c 0,33,34
 586 1502 586 1502 670 1556 c 128,-1,35
 754 1610 754 1610 870 1610 c 0,36,37
 955 1610 955 1610 1005 1572.5 c 128,-1,38
 1055 1535 1055 1535 1055 1466 c 0,39,40
 1055 1401 1055 1401 1006 1352 c 1,41,-1
 1087 1352 l 1,42,-1
 1139 408 l 1,15,16
678 1622 m 1,43,-1
 649 1726 l 1,44,-1
 1161 1950 l 1,45,46
 1193 1924 1193 1924 1209 1897 c 128,-1,47
 1225 1870 1225 1870 1225 1829 c 0,48,49
 1225 1729 1225 1729 1141 1679.5 c 128,-1,50
 1057 1630 1057 1630 924 1628 c 1,51,-1
 678 1622 l 1,43,-1
EndSplineSet
Validated: 8388609
Position2: "'cpsp' Capital Spacing lookup 3 subtable" dx=10 dy=0 dh=20 dv=0
EndChar

StartChar: Atilde
Encoding: 195 195 11
Width: 1259
Flags: MW
HStem: 319 170<377 645 377 651 311 645> 1004 348<618 618> 1311 41G<547 1087 1087 1087> 1477 244<1058 1133 1058 1133> 1516 240<577 647>
VStem: -115 1397 632 481
LayerCount: 2
UndoRedoHistory
Layer: 1
Undoes
EndUndoes
Redoes
EndRedoes
EndUndoRedoHistory
Fore
SplineSet
618 1004 m 1,0,1
 547 864 547 864 377 489 c 1,2,-1
 645 489 l 1,3,-1
 618 1004 l 1,0,1
1139 408 m 1,4,5
 1157 152 1157 152 1262 92 c 1,6,7
 1226 30 1226 30 1154 -5.5 c 128,-1,8
 1082 -41 1082 -41 985 -41 c 0,9,10
 857 -41 857 -41 783.5 14.5 c 128,-1,11
 710 70 710 70 676 190 c 1,12,13
 658 264 658 264 651 319 c 1,14,-1
 311 319 l 1,15,16
 231 125 231 125 197 0 c 1,17,-1
 -115 0 l 1,18,-1
 547 1352 l 1,19,-1
 1087 1352 l 1,20,-1
 1139 408 l 1,4,5
1239 1755 m 1,21,22
 1282 1704 1282 1704 1282 1640 c 0,23,24
 1282 1561 1282 1561 1224.5 1519 c 128,-1,25
 1167 1477 1167 1477 1065 1477 c 0,26,27
 1007 1477 1007 1477 825.5 1496.5 c 128,-1,28
 644 1516 644 1516 606 1516 c 0,29,30
 565 1516 565 1516 522.5 1504.5 c 128,-1,31
 480 1493 480 1493 459 1479 c 1,32,33
 414 1539 414 1539 414 1606 c 0,34,35
 414 1678 414 1678 471 1716.5 c 128,-1,36
 528 1755 528 1755 635 1755 c 0,37,38
 700 1755 700 1755 880.5 1737.5 c 128,-1,39
 1061 1720 1061 1720 1106 1720 c 0,40,41
 1201 1720 1201 1720 1239 1755 c 1,21,22
EndSplineSet
Validated: 8388609
Position2: "'cpsp' Capital Spacing lookup 3 subtable" dx=10 dy=0 dh=20 dv=0
EndChar

StartChar: AE
Encoding: 198 198 12
Width: 1644
Flags: MW
HStem: -41 350<1281 1300> 362 158<399 745 477 725> 543 260<1373 1471> 1065 287<1474 1582> 1120 231<1280 1280> 1145 207
VStem: -125 1890<0 1352> 725 446<322 487 362 487>
LayerCount: 2
UndoRedoHistory
Layer: 1
Undoes
EndUndoes
Redoes
EndRedoes
EndUndoRedoHistory
Fore
SplineSet
745 520 m 1,0,1
 748 541 748 541 762.5 632.5 c 128,-1,2
 777 724 777 724 798 856.5 c 128,-1,3
 819 989 819 989 844 1145 c 1,4,5
 642 840 642 840 477 520 c 1,6,-1
 745 520 l 1,0,1
399 362 m 1,7,8
 359 281 359 281 338.5 236 c 128,-1,9
 318 191 318 191 291 126.5 c 128,-1,10
 264 62 264 62 236 0 c 1,11,-1
 -125 0 l 1,12,-1
 698 1352 l 1,13,-1
 1765 1352 l 1,14,15
 1765 1210 1765 1210 1695 1137.5 c 128,-1,16
 1625 1065 1625 1065 1505 1065 c 0,17,18
 1393 1065 1393 1065 1280 1120 c 1,19,-1
 1227 803 l 1,20,-1
 1618 803 l 1,21,22
 1618 680 1618 680 1562 611.5 c 128,-1,23
 1506 543 1506 543 1401 543 c 0,24,25
 1355 543 1355 543 1297.5 556 c 128,-1,26
 1240 569 1240 569 1196 594 c 1,27,28
 1187 581 1187 581 1179 541 c 128,-1,29
 1171 501 1171 501 1171 457 c 0,30,31
 1171 369 1171 369 1208.5 339 c 128,-1,32
 1246 309 1246 309 1346 309 c 0,33,34
 1485 309 1485 309 1577 344 c 1,35,36
 1597 288 1597 288 1597 223 c 0,37,38
 1597 -41 1597 -41 1206 -41 c 0,39,40
 1100 -41 1100 -41 1015.5 -21 c 128,-1,41
 931 -1 931 -1 864.5 40.5 c 128,-1,42
 798 82 798 82 761.5 153.5 c 128,-1,43
 725 225 725 225 725 322 c 2,44,-1
 725 362 l 1,45,-1
 399 362 l 1,7,8
EndSplineSet
Validated: 8388609
Position2: "'cpsp' Capital Spacing lookup 3 subtable" dx=10 dy=0 dh=20 dv=0
EndChar

StartChar: AEacute
Encoding: 508 508 13
Width: 1644
Flags: MW
HStem: -41 350<1281 1300> 362 158<399 745 477 725> 543 260<1373 1471> 1065 287<1474 1582> 1120 231<1280 1280> 1145 207
VStem: -125 1890<0 1352> 725 446<322 487 362 487>
LayerCount: 2
UndoRedoHistory
Layer: 1
Undoes
EndUndoes
Redoes
EndRedoes
EndUndoRedoHistory
Fore
SplineSet
745 520 m 1,0,1
 748 541 748 541 762.5 632.5 c 128,-1,2
 777 724 777 724 798 856.5 c 128,-1,3
 819 989 819 989 844 1145 c 1,4,5
 642 840 642 840 477 520 c 1,6,-1
 745 520 l 1,0,1
399 362 m 1,7,8
 359 281 359 281 338.5 236 c 128,-1,9
 318 191 318 191 291 126.5 c 128,-1,10
 264 62 264 62 236 0 c 1,11,-1
 -125 0 l 1,12,-1
 698 1352 l 1,13,-1
 1765 1352 l 1,14,15
 1765 1210 1765 1210 1695 1137.5 c 128,-1,16
 1625 1065 1625 1065 1505 1065 c 0,17,18
 1393 1065 1393 1065 1280 1120 c 1,19,-1
 1227 803 l 1,20,-1
 1618 803 l 1,21,22
 1618 680 1618 680 1562 611.5 c 128,-1,23
 1506 543 1506 543 1401 543 c 0,24,25
 1355 543 1355 543 1297.5 556 c 128,-1,26
 1240 569 1240 569 1196 594 c 1,27,28
 1187 581 1187 581 1179 541 c 128,-1,29
 1171 501 1171 501 1171 457 c 0,30,31
 1171 369 1171 369 1208.5 339 c 128,-1,32
 1246 309 1246 309 1346 309 c 0,33,34
 1485 309 1485 309 1577 344 c 1,35,36
 1597 288 1597 288 1597 223 c 0,37,38
 1597 -41 1597 -41 1206 -41 c 0,39,40
 1100 -41 1100 -41 1015.5 -21 c 128,-1,41
 931 -1 931 -1 864.5 40.5 c 128,-1,42
 798 82 798 82 761.5 153.5 c 128,-1,43
 725 225 725 225 725 322 c 2,44,-1
 725 362 l 1,45,-1
 399 362 l 1,7,8
877 1556 m 1,46,-1
 1389 1780 l 1,47,48
 1421 1754 1421 1754 1436.5 1727.5 c 128,-1,49
 1452 1701 1452 1701 1452 1659 c 0,50,51
 1452 1559 1452 1559 1368 1509.5 c 128,-1,52
 1284 1460 1284 1460 1151 1458 c 1,53,-1
 905 1452 l 1,54,-1
 877 1556 l 1,46,-1
EndSplineSet
Validated: 8388609
Position2: "'cpsp' Capital Spacing lookup 3 subtable" dx=10 dy=0 dh=20 dv=0
EndChar

StartChar: B
Encoding: 66 66 14
Width: 1294
Flags: MW
HStem: -41 41G<-20 -20> -6 150<326 528> 1227 131<741 796>
VStem: 791 471<377 503> 899 391<1009 1116>
LayerCount: 2
UndoRedoHistory
Layer: 1
Undoes
EndUndoes
Redoes
EndRedoes
EndUndoRedoHistory
Fore
SplineSet
528 139 m 1,0,1
 530 140 530 140 530 141 c 128,-1,2
 530 142 530 142 528 143 c 1,3,4
 591 144 591 144 639 163.5 c 128,-1,5
 687 183 687 183 715.5 212.5 c 128,-1,6
 744 242 744 242 761.5 282.5 c 128,-1,7
 779 323 779 323 785 360 c 128,-1,8
 791 397 791 397 791 438 c 0,9,10
 791 537 791 537 752 588.5 c 128,-1,11
 713 640 713 640 625 649 c 1,12,-1
 528 143 l 1,13,-1
 528 139 l 1,0,1
651 788 m 1,14,15
 708 790 708 790 752.5 807.5 c 128,-1,16
 797 825 797 825 824.5 851 c 128,-1,17
 852 877 852 877 869 912.5 c 128,-1,18
 886 948 886 948 892.5 983 c 128,-1,19
 899 1018 899 1018 899 1057 c 0,20,21
 899 1146 899 1146 861.5 1186.5 c 128,-1,22
 824 1227 824 1227 739 1227 c 1,23,-1
 741 1228 l 1,24,25
 740 1229 740 1229 737 1229 c 1,26,-1
 651 788 l 1,14,15
238 1352 m 1,27,28
 424 1358 424 1358 666 1358 c 0,29,30
 745 1358 745 1358 795.5 1357 c 128,-1,31
 846 1356 846 1356 918.5 1350.5 c 128,-1,32
 991 1345 991 1345 1037.5 1334.5 c 128,-1,33
 1084 1324 1084 1324 1136.5 1304.5 c 128,-1,34
 1189 1285 1189 1285 1219.5 1257.5 c 128,-1,35
 1250 1230 1250 1230 1270 1188 c 128,-1,36
 1290 1146 1290 1146 1290 1092 c 0,37,38
 1290 973 1290 973 1206.5 887.5 c 128,-1,39
 1123 802 1123 802 997 768 c 1,40,41
 1262 730 1262 730 1262 451 c 0,42,43
 1262 348 1262 348 1223.5 269.5 c 128,-1,44
 1185 191 1185 191 1115 139 c 128,-1,45
 1045 87 1045 87 938 54.5 c 128,-1,46
 831 22 831 22 703 8 c 128,-1,47
 575 -6 575 -6 412 -6 c 2,48,-1
 326 -6 l 2,49,50
 125 -6 125 -6 -20 0 c 1,51,-1
 238 1352 l 1,27,28
EndSplineSet
Validated: 8388613
Position2: "'cpsp' Capital Spacing lookup 3 subtable" dx=10 dy=0 dh=20 dv=0
EndChar

StartChar: C
Encoding: 67 67 15
Width: 1349
Flags: MW
HStem: -41 371<793 874> 1247 145<809 941>
VStem: 70 535<501 700 501 811> 1008 399<1074 1106>
LayerCount: 2
UndoRedoHistory
Layer: 1
Undoes
EndUndoes
Redoes
EndRedoes
EndUndoRedoHistory
Fore
SplineSet
961 1393 m 0,0,1
 1407 1393 1407 1393 1407 1155 c 0,2,3
 1407 1036 1407 1036 1310 955 c 128,-1,4
 1213 874 1213 874 1081 874 c 0,5,6
 1030 874 1030 874 989 879 c 1,7,8
 1008 981 1008 981 1008 1057 c 0,9,10
 1008 1247 1008 1247 897 1247 c 0,11,12
 847 1247 847 1247 799.5 1199.5 c 128,-1,13
 752 1152 752 1152 717.5 1077.5 c 128,-1,14
 683 1003 683 1003 656.5 915 c 128,-1,15
 630 827 630 827 617 744 c 128,-1,16
 604 661 604 661 604 598 c 0,17,18
 604 455 604 455 673 392.5 c 128,-1,19
 742 330 742 330 887 330 c 0,20,21
 1127 330 1127 330 1235 438 c 1,22,23
 1282 399 1282 399 1282 295 c 0,24,25
 1282 231 1282 231 1242 171.5 c 128,-1,26
 1202 112 1202 112 1128 64 c 128,-1,27
 1054 16 1054 16 937.5 -12.5 c 128,-1,28
 821 -41 821 -41 680 -41 c 0,29,30
 371 -41 371 -41 220.5 103 c 128,-1,31
 70 247 70 247 70 551 c 0,32,33
 70 943 70 943 306 1168 c 128,-1,34
 542 1393 542 1393 961 1393 c 0,0,1
EndSplineSet
Validated: 1
Position2: "'cpsp' Capital Spacing lookup 3 subtable" dx=10 dy=0 dh=20 dv=0
EndChar

StartChar: Cacute
Encoding: 262 262 16
Width: 1349
Flags: MW
HStem: -41 371<793 874> 1247 145<809 941>
VStem: 70 535<501 700 501 811> 1008 399<1074 1106>
LayerCount: 2
UndoRedoHistory
Layer: 1
Undoes
EndUndoes
Redoes
EndRedoes
EndUndoRedoHistory
Fore
SplineSet
961 1393 m 0,0,1
 1407 1393 1407 1393 1407 1155 c 0,2,3
 1407 1036 1407 1036 1310 955 c 128,-1,4
 1213 874 1213 874 1081 874 c 0,5,6
 1030 874 1030 874 989 879 c 1,7,8
 1008 981 1008 981 1008 1057 c 0,9,10
 1008 1247 1008 1247 897 1247 c 0,11,12
 847 1247 847 1247 799.5 1199.5 c 128,-1,13
 752 1152 752 1152 717.5 1077.5 c 128,-1,14
 683 1003 683 1003 656.5 915 c 128,-1,15
 630 827 630 827 617 744 c 128,-1,16
 604 661 604 661 604 598 c 0,17,18
 604 455 604 455 673 392.5 c 128,-1,19
 742 330 742 330 887 330 c 0,20,21
 1127 330 1127 330 1235 438 c 1,22,23
 1282 399 1282 399 1282 295 c 0,24,25
 1282 231 1282 231 1242 171.5 c 128,-1,26
 1202 112 1202 112 1128 64 c 128,-1,27
 1054 16 1054 16 937.5 -12.5 c 128,-1,28
 821 -41 821 -41 680 -41 c 0,29,30
 371 -41 371 -41 220.5 103 c 128,-1,31
 70 247 70 247 70 551 c 0,32,33
 70 943 70 943 306 1168 c 128,-1,34
 542 1393 542 1393 961 1393 c 0,0,1
770 1556 m 1,35,-1
 1282 1780 l 1,36,37
 1314 1754 1314 1754 1330 1727 c 128,-1,38
 1346 1700 1346 1700 1346 1659 c 0,39,40
 1346 1559 1346 1559 1261.5 1509.5 c 128,-1,41
 1177 1460 1177 1460 1044 1458 c 1,42,-1
 799 1452 l 1,43,-1
 770 1556 l 1,35,-1
EndSplineSet
Validated: 1
Substitution2: "'locl' Localized Forms in Latin lookup 13 subtable" Cacute.loclPLK
Substitution2: "'aalt' Access All Alternates lookup 0 subtable" Cacute.loclPLK
Position2: "'cpsp' Capital Spacing lookup 3 subtable" dx=10 dy=0 dh=20 dv=0
EndChar

StartChar: Ccaron
Encoding: 268 268 17
Width: 1349
Flags: MW
HStem: -41 371<793 874> 1247 145<809 941>
VStem: 70 535<501 700 501 811> 1008 399<1074 1106>
LayerCount: 2
UndoRedoHistory
Layer: 1
Undoes
EndUndoes
Redoes
EndRedoes
EndUndoRedoHistory
Fore
SplineSet
961 1393 m 0,0,1
 1407 1393 1407 1393 1407 1155 c 0,2,3
 1407 1036 1407 1036 1310 955 c 128,-1,4
 1213 874 1213 874 1081 874 c 0,5,6
 1030 874 1030 874 989 879 c 1,7,8
 1008 981 1008 981 1008 1057 c 0,9,10
 1008 1247 1008 1247 897 1247 c 0,11,12
 847 1247 847 1247 799.5 1199.5 c 128,-1,13
 752 1152 752 1152 717.5 1077.5 c 128,-1,14
 683 1003 683 1003 656.5 915 c 128,-1,15
 630 827 630 827 617 744 c 128,-1,16
 604 661 604 661 604 598 c 0,17,18
 604 455 604 455 673 392.5 c 128,-1,19
 742 330 742 330 887 330 c 0,20,21
 1127 330 1127 330 1235 438 c 1,22,23
 1282 399 1282 399 1282 295 c 0,24,25
 1282 231 1282 231 1242 171.5 c 128,-1,26
 1202 112 1202 112 1128 64 c 128,-1,27
 1054 16 1054 16 937.5 -12.5 c 128,-1,28
 821 -41 821 -41 680 -41 c 0,29,30
 371 -41 371 -41 220.5 103 c 128,-1,31
 70 247 70 247 70 551 c 0,32,33
 70 943 70 943 306 1168 c 128,-1,34
 542 1393 542 1393 961 1393 c 0,0,1
731 1782 m 1,35,-1
 1004 1665 l 1,36,-1
 1346 1782 l 1,37,-1
 1413 1690 l 1,38,-1
 1085 1423 l 1,39,-1
 870 1423 l 1,40,-1
 618 1690 l 1,41,-1
 731 1782 l 1,35,-1
EndSplineSet
Validated: 1
Position2: "'cpsp' Capital Spacing lookup 3 subtable" dx=10 dy=0 dh=20 dv=0
EndChar

StartChar: Ccedilla
Encoding: 199 199 18
Width: 1349
Flags: MW
HStem: -532 164<542 593 538 701> -225 115 1247 145<809 941>
VStem: 70 535<501 700 501 811> 659 303<-321 -264> 1008 399<1074 1106>
LayerCount: 2
UndoRedoHistory
Layer: 1
Undoes
EndUndoes
Redoes
EndRedoes
EndUndoRedoHistory
Fore
SplineSet
549 -33 m 1,0,1
 307 -5 307 -5 188.5 138.5 c 128,-1,2
 70 282 70 282 70 551 c 0,3,4
 70 943 70 943 306 1168 c 128,-1,5
 542 1393 542 1393 961 1393 c 0,6,7
 1407 1393 1407 1393 1407 1155 c 0,8,9
 1407 1036 1407 1036 1310 955 c 128,-1,10
 1213 874 1213 874 1081 874 c 0,11,12
 1030 874 1030 874 989 879 c 1,13,14
 1008 981 1008 981 1008 1057 c 0,15,16
 1008 1247 1008 1247 897 1247 c 0,17,18
 847 1247 847 1247 799.5 1199.5 c 128,-1,19
 752 1152 752 1152 717.5 1077.5 c 128,-1,20
 683 1003 683 1003 656.5 915 c 128,-1,21
 630 827 630 827 617 744 c 128,-1,22
 604 661 604 661 604 598 c 0,23,24
 604 455 604 455 673 392.5 c 128,-1,25
 742 330 742 330 887 330 c 0,26,27
 1127 330 1127 330 1235 438 c 1,28,29
 1282 399 1282 399 1282 295 c 0,30,31
 1282 234 1282 234 1246 177.5 c 128,-1,32
 1210 121 1210 121 1143 74.5 c 128,-1,33
 1076 28 1076 28 971.5 -2.5 c 128,-1,34
 867 -33 867 -33 739 -39 c 1,35,-1
 719 -111 l 1,36,-1
 725 -111 l 2,37,38
 830 -111 830 -111 896.5 -152.5 c 128,-1,39
 963 -194 963 -194 963 -281 c 0,40,41
 963 -391 963 -391 858.5 -461.5 c 128,-1,42
 754 -532 754 -532 604 -532 c 0,43,44
 510 -532 510 -532 455.5 -502 c 128,-1,45
 401 -472 401 -472 401 -420 c 0,46,47
 401 -347 401 -347 440 -299 c 1,48,49
 460 -334 460 -334 490.5 -351.5 c 128,-1,50
 521 -369 521 -369 575 -369 c 0,51,52
 606 -369 606 -369 632.5 -350 c 128,-1,53
 659 -331 659 -331 659 -293 c 0,54,55
 659 -225 659 -225 580 -225 c 0,56,57
 547 -225 547 -225 489 -229 c 1,58,-1
 549 -33 l 1,0,1
EndSplineSet
Validated: 1
Position2: "'cpsp' Capital Spacing lookup 3 subtable" dx=10 dy=0 dh=20 dv=0
EndChar

StartChar: Ccircumflex
Encoding: 264 264 19
Width: 1349
Flags: MW
HStem: -41 371<793 874> 1247 145<809 941>
VStem: 70 535<501 700 501 811> 1008 399<1074 1106>
LayerCount: 2
UndoRedoHistory
Layer: 1
Undoes
EndUndoes
Redoes
EndRedoes
EndUndoRedoHistory
Fore
SplineSet
961 1393 m 0,0,1
 1407 1393 1407 1393 1407 1155 c 0,2,3
 1407 1036 1407 1036 1310 955 c 128,-1,4
 1213 874 1213 874 1081 874 c 0,5,6
 1030 874 1030 874 989 879 c 1,7,8
 1008 981 1008 981 1008 1057 c 0,9,10
 1008 1247 1008 1247 897 1247 c 0,11,12
 847 1247 847 1247 799.5 1199.5 c 128,-1,13
 752 1152 752 1152 717.5 1077.5 c 128,-1,14
 683 1003 683 1003 656.5 915 c 128,-1,15
 630 827 630 827 617 744 c 128,-1,16
 604 661 604 661 604 598 c 0,17,18
 604 455 604 455 673 392.5 c 128,-1,19
 742 330 742 330 887 330 c 0,20,21
 1127 330 1127 330 1235 438 c 1,22,23
 1282 399 1282 399 1282 295 c 0,24,25
 1282 231 1282 231 1242 171.5 c 128,-1,26
 1202 112 1202 112 1128 64 c 128,-1,27
 1054 16 1054 16 937.5 -12.5 c 128,-1,28
 821 -41 821 -41 680 -41 c 0,29,30
 371 -41 371 -41 220.5 103 c 128,-1,31
 70 247 70 247 70 551 c 0,32,33
 70 943 70 943 306 1168 c 128,-1,34
 542 1393 542 1393 961 1393 c 0,0,1
1239 1411 m 1,35,-1
 987 1487 l 1,36,-1
 666 1411 l 1,37,-1
 598 1503 l 1,38,-1
 967 1749 l 1,39,-1
 1059 1749 l 1,40,-1
 1352 1503 l 1,41,-1
 1239 1411 l 1,35,-1
EndSplineSet
Validated: 1
Position2: "'cpsp' Capital Spacing lookup 3 subtable" dx=10 dy=0 dh=20 dv=0
EndChar

StartChar: Cdotaccent
Encoding: 266 266 20
Width: 1349
Flags: MW
HStem: -41 371<793 874> 1247 145<809 941> 1413 346<891 1023>
VStem: 70 535<501 700 501 811> 711 485<1529 1636> 1008 399<1074 1106>
LayerCount: 2
UndoRedoHistory
Layer: 1
Undoes
EndUndoes
Redoes
EndRedoes
EndUndoRedoHistory
Fore
SplineSet
961 1393 m 0,0,1
 1407 1393 1407 1393 1407 1155 c 0,2,3
 1407 1036 1407 1036 1310 955 c 128,-1,4
 1213 874 1213 874 1081 874 c 0,5,6
 1030 874 1030 874 989 879 c 1,7,8
 1008 981 1008 981 1008 1057 c 0,9,10
 1008 1247 1008 1247 897 1247 c 0,11,12
 847 1247 847 1247 799.5 1199.5 c 128,-1,13
 752 1152 752 1152 717.5 1077.5 c 128,-1,14
 683 1003 683 1003 656.5 915 c 128,-1,15
 630 827 630 827 617 744 c 128,-1,16
 604 661 604 661 604 598 c 0,17,18
 604 455 604 455 673 392.5 c 128,-1,19
 742 330 742 330 887 330 c 0,20,21
 1127 330 1127 330 1235 438 c 1,22,23
 1282 399 1282 399 1282 295 c 0,24,25
 1282 231 1282 231 1242 171.5 c 128,-1,26
 1202 112 1202 112 1128 64 c 128,-1,27
 1054 16 1054 16 937.5 -12.5 c 128,-1,28
 821 -41 821 -41 680 -41 c 0,29,30
 371 -41 371 -41 220.5 103 c 128,-1,31
 70 247 70 247 70 551 c 0,32,33
 70 943 70 943 306 1168 c 128,-1,34
 542 1393 542 1393 961 1393 c 0,0,1
961 1759 m 0,35,36
 1066 1759 1066 1759 1131 1711.5 c 128,-1,37
 1196 1664 1196 1664 1196 1585 c 0,38,39
 1196 1503 1196 1503 1128.5 1458 c 128,-1,40
 1061 1413 1061 1413 952 1413 c 128,-1,41
 843 1413 843 1413 777 1457 c 128,-1,42
 711 1501 711 1501 711 1581 c 0,43,44
 711 1662 711 1662 782.5 1710.5 c 128,-1,45
 854 1759 854 1759 961 1759 c 0,35,36
EndSplineSet
Validated: 8388609
Position2: "'cpsp' Capital Spacing lookup 3 subtable" dx=10 dy=0 dh=20 dv=0
EndChar

StartChar: D
Encoding: 68 68 21
Width: 1452
Flags: MW
HStem: -41 41G<-23 -23> -6 150<550 670 550 708> 1212 145<784 854>
VStem: 969 473<1023 1035 478 1110>
LayerCount: 2
UndoRedoHistory
Layer: 1
Undoes
EndUndoes
Redoes
EndRedoes
EndUndoRedoHistory
Fore
SplineSet
535 145 m 1,0,1
 551 143 551 143 557 143 c 0,2,3
 640 143 640 143 703.5 183.5 c 128,-1,4
 767 224 767 224 812.5 305.5 c 128,-1,5
 858 387 858 387 889 496 c 128,-1,6
 920 605 920 605 944 756 c 1,7,8
 969 927 969 927 969 1047 c 0,9,10
 969 1140 969 1140 928.5 1176 c 128,-1,11
 888 1212 888 1212 793 1212 c 0,12,13
 755 1212 755 1212 739 1210 c 1,14,-1
 535 145 l 1,0,1
238 1352 m 1,15,16
 338 1358 338 1358 512 1358 c 2,17,-1
 600 1358 l 2,18,19
 701 1358 701 1358 779.5 1355 c 128,-1,20
 858 1352 858 1352 936 1343.5 c 128,-1,21
 1014 1335 1014 1335 1072 1321 c 128,-1,22
 1130 1307 1130 1307 1185.5 1284.5 c 128,-1,23
 1241 1262 1241 1262 1279.5 1230.5 c 128,-1,24
 1318 1199 1318 1199 1350.5 1156.5 c 128,-1,25
 1383 1114 1383 1114 1402 1059 c 128,-1,26
 1421 1004 1421 1004 1431.5 935 c 128,-1,27
 1442 866 1442 866 1442 782 c 0,28,29
 1442 602 1442 602 1394 466.5 c 128,-1,30
 1346 331 1346 331 1259 241.5 c 128,-1,31
 1172 152 1172 152 1037.5 96.5 c 128,-1,32
 903 41 903 41 742.5 17.5 c 128,-1,33
 582 -6 582 -6 375 -6 c 0,34,35
 121 -6 121 -6 -23 0 c 1,36,-1
 238 1352 l 1,15,16
EndSplineSet
Validated: 8388609
Position2: "'cpsp' Capital Spacing lookup 3 subtable" dx=10 dy=0 dh=20 dv=0
EndChar

StartChar: DZ
Encoding: 497 497 22
Width: 2603
Flags: MW
HStem: -41 41G<-23 -23> -23 428<2190 2282 2190 2288> -6 150<550 670 550 708> 942 440<1820 1930> 1212 145<784 854> 1311 41G<238 238> 1341 41G<1793 1966>
VStem: 969 473<1023 1035 478 1110>
LayerCount: 2
UndoRedoHistory
Layer: 1
Undoes
EndUndoes
Redoes
EndRedoes
EndUndoRedoHistory
Fore
SplineSet
535 145 m 1,0,1
 551 143 551 143 557 143 c 0,2,3
 640 143 640 143 703.5 183.5 c 128,-1,4
 767 224 767 224 812.5 305.5 c 128,-1,5
 858 387 858 387 889 496 c 128,-1,6
 920 605 920 605 944 756 c 1,7,8
 969 927 969 927 969 1047 c 0,9,10
 969 1140 969 1140 928.5 1176 c 128,-1,11
 888 1212 888 1212 793 1212 c 0,12,13
 755 1212 755 1212 739 1210 c 1,14,-1
 535 145 l 1,0,1
238 1352 m 1,15,16
 338 1358 338 1358 512 1358 c 2,17,-1
 600 1358 l 2,18,19
 701 1358 701 1358 779.5 1355 c 128,-1,20
 858 1352 858 1352 936 1343.5 c 128,-1,21
 1014 1335 1014 1335 1072 1321 c 128,-1,22
 1130 1307 1130 1307 1185.5 1284.5 c 128,-1,23
 1241 1262 1241 1262 1279.5 1230.5 c 128,-1,24
 1318 1199 1318 1199 1350.5 1156.5 c 128,-1,25
 1383 1114 1383 1114 1402 1059 c 128,-1,26
 1421 1004 1421 1004 1431.5 935 c 128,-1,27
 1442 866 1442 866 1442 782 c 0,28,29
 1442 602 1442 602 1394 466.5 c 128,-1,30
 1346 331 1346 331 1259 241.5 c 128,-1,31
 1172 152 1172 152 1037.5 96.5 c 128,-1,32
 903 41 903 41 742.5 17.5 c 128,-1,33
 582 -6 582 -6 375 -6 c 0,34,35
 121 -6 121 -6 -23 0 c 1,36,-1
 238 1352 l 1,15,16
2232 903 m 1,37,38
 2034 942 2034 942 1888 942 c 0,39,40
 1755 942 1755 942 1647 901 c 1,41,42
 1577 1009 1577 1009 1577 1126 c 0,43,44
 1577 1254 1577 1254 1658.5 1318 c 128,-1,45
 1740 1382 1740 1382 1892 1382 c 0,46,47
 1964 1382 1964 1382 2132.5 1357.5 c 128,-1,48
 2301 1333 2301 1333 2384 1333 c 0,49,50
 2486 1333 2486 1333 2578 1352 c 1,51,52
 2677 1270 2677 1270 2677 1120 c 0,53,54
 2677 1014 2677 1014 2630.5 938.5 c 128,-1,55
 2584 863 2584 863 2482 784 c 1,56,-1
 1864 451 l 1,57,58
 2021 406 2021 406 2241 406 c 0,59,60
 2321 406 2321 406 2377.5 419.5 c 128,-1,61
 2434 433 2434 433 2474 477 c 1,62,63
 2554 347 2554 347 2554 240 c 0,64,65
 2554 119 2554 119 2451.5 48 c 128,-1,66
 2349 -23 2349 -23 2152 -23 c 0,67,68
 2036 -23 2036 -23 1864 5 c 128,-1,69
 1692 33 1692 33 1647 33 c 0,70,71
 1579 33 1579 33 1559 0 c 1,72,73
 1520 33 1520 33 1492 107.5 c 128,-1,74
 1464 182 1464 182 1464 260 c 0,75,76
 1464 427 1464 427 1636 565 c 1,77,-1
 2232 903 l 1,37,38
EndSplineSet
Validated: 8388609
Position2: "'cpsp' Capital Spacing lookup 3 subtable" dx=10 dy=0 dh=20 dv=0
EndChar

StartChar: DZcaron
Encoding: 452 452 23
Width: 2603
Flags: MW
HStem: -41 41G<-23 -23> -23 428<2190 2282 2190 2288> -6 150<550 670 550 708> 942 440<1820 1930> 1212 145<784 854> 1311 41G<238 238> 1341 41G<1793 1966>
VStem: 969 473<1023 1035 478 1110>
LayerCount: 2
UndoRedoHistory
Layer: 1
Undoes
EndUndoes
Redoes
EndRedoes
EndUndoRedoHistory
Fore
SplineSet
535 145 m 1,0,1
 551 143 551 143 557 143 c 0,2,3
 640 143 640 143 703.5 183.5 c 128,-1,4
 767 224 767 224 812.5 305.5 c 128,-1,5
 858 387 858 387 889 496 c 128,-1,6
 920 605 920 605 944 756 c 1,7,8
 969 927 969 927 969 1047 c 0,9,10
 969 1140 969 1140 928.5 1176 c 128,-1,11
 888 1212 888 1212 793 1212 c 0,12,13
 755 1212 755 1212 739 1210 c 1,14,-1
 535 145 l 1,0,1
238 1352 m 1,15,16
 338 1358 338 1358 512 1358 c 2,17,-1
 600 1358 l 2,18,19
 701 1358 701 1358 779.5 1355 c 128,-1,20
 858 1352 858 1352 936 1343.5 c 128,-1,21
 1014 1335 1014 1335 1072 1321 c 128,-1,22
 1130 1307 1130 1307 1185.5 1284.5 c 128,-1,23
 1241 1262 1241 1262 1279.5 1230.5 c 128,-1,24
 1318 1199 1318 1199 1350.5 1156.5 c 128,-1,25
 1383 1114 1383 1114 1402 1059 c 128,-1,26
 1421 1004 1421 1004 1431.5 935 c 128,-1,27
 1442 866 1442 866 1442 782 c 0,28,29
 1442 602 1442 602 1394 466.5 c 128,-1,30
 1346 331 1346 331 1259 241.5 c 128,-1,31
 1172 152 1172 152 1037.5 96.5 c 128,-1,32
 903 41 903 41 742.5 17.5 c 128,-1,33
 582 -6 582 -6 375 -6 c 0,34,35
 121 -6 121 -6 -23 0 c 1,36,-1
 238 1352 l 1,15,16
2232 903 m 1,37,38
 2034 942 2034 942 1888 942 c 0,39,40
 1755 942 1755 942 1647 901 c 1,41,42
 1577 1009 1577 1009 1577 1126 c 0,43,44
 1577 1254 1577 1254 1658.5 1318 c 128,-1,45
 1740 1382 1740 1382 1892 1382 c 0,46,47
 1964 1382 1964 1382 2132.5 1357.5 c 128,-1,48
 2301 1333 2301 1333 2384 1333 c 0,49,50
 2486 1333 2486 1333 2578 1352 c 1,51,52
 2677 1270 2677 1270 2677 1120 c 0,53,54
 2677 1014 2677 1014 2630.5 938.5 c 128,-1,55
 2584 863 2584 863 2482 784 c 1,56,-1
 1864 451 l 1,57,58
 2021 406 2021 406 2241 406 c 0,59,60
 2321 406 2321 406 2377.5 419.5 c 128,-1,61
 2434 433 2434 433 2474 477 c 1,62,63
 2554 347 2554 347 2554 240 c 0,64,65
 2554 119 2554 119 2451.5 48 c 128,-1,66
 2349 -23 2349 -23 2152 -23 c 0,67,68
 2036 -23 2036 -23 1864 5 c 128,-1,69
 1692 33 1692 33 1647 33 c 0,70,71
 1579 33 1579 33 1559 0 c 1,72,73
 1520 33 1520 33 1492 107.5 c 128,-1,74
 1464 182 1464 182 1464 260 c 0,75,76
 1464 427 1464 427 1636 565 c 1,77,-1
 2232 903 l 1,37,38
1960 1782 m 1,78,-1
 2232 1665 l 1,79,-1
 2574 1782 l 1,80,-1
 2642 1690 l 1,81,-1
 2314 1423 l 1,82,-1
 2099 1423 l 1,83,-1
 1847 1690 l 1,84,-1
 1960 1782 l 1,78,-1
EndSplineSet
Validated: 8388609
Position2: "'cpsp' Capital Spacing lookup 3 subtable" dx=10 dy=0 dh=20 dv=0
EndChar

StartChar: Eth
Encoding: 208 208 24
Width: 1511
Flags: MW
HStem: -41 41G<37 37> -6 150<609 729 609 767> 592 209<14 193 14 193> 1212 145<844 913>
VStem: 1028 473<1023 1035 478 1110>
LayerCount: 2
UndoRedoHistory
Layer: 1
Undoes
EndUndoes
Redoes
EndRedoes
EndUndoRedoHistory
Fore
SplineSet
594 145 m 1,0,1
 610 143 610 143 616 143 c 0,2,3
 699 143 699 143 762.5 183.5 c 128,-1,4
 826 224 826 224 872 305.5 c 128,-1,5
 918 387 918 387 949 496 c 128,-1,6
 980 605 980 605 1004 756 c 1,7,8
 1028 920 1028 920 1028 1047 c 0,9,10
 1028 1140 1028 1140 987.5 1176 c 128,-1,11
 947 1212 947 1212 852 1212 c 0,12,13
 815 1212 815 1212 799 1210 c 1,14,-1
 721 801 l 1,15,-1
 834 801 l 1,16,17
 844 756 844 756 844 739 c 0,18,19
 844 676 844 676 800 634 c 0,20,21
 757 594 757 594 680 592 c 1,22,-1
 594 145 l 1,0,1
297 1352 m 1,23,24
 397 1358 397 1358 571 1358 c 2,25,-1
 659 1358 l 2,26,27
 760 1358 760 1358 838.5 1355 c 128,-1,28
 917 1352 917 1352 995 1343.5 c 128,-1,29
 1073 1335 1073 1335 1131 1321 c 128,-1,30
 1189 1307 1189 1307 1244.5 1284.5 c 128,-1,31
 1300 1262 1300 1262 1338.5 1230.5 c 128,-1,32
 1377 1199 1377 1199 1409.5 1156.5 c 128,-1,33
 1442 1114 1442 1114 1461 1059 c 128,-1,34
 1480 1004 1480 1004 1490.5 935 c 128,-1,35
 1501 866 1501 866 1501 782 c 0,36,37
 1501 602 1501 602 1453 466.5 c 128,-1,38
 1405 331 1405 331 1318 241.5 c 128,-1,39
 1231 152 1231 152 1096.5 96.5 c 128,-1,40
 962 41 962 41 801.5 17.5 c 128,-1,41
 641 -6 641 -6 434 -6 c 0,42,43
 181 -6 181 -6 37 0 c 1,44,-1
 152 592 l 1,45,-1
 14 592 l 1,46,47
 6 612 6 612 6 651 c 0,48,49
 7 715 7 715 51.5 758 c 128,-1,50
 96 801 96 801 158 801 c 2,51,-1
 193 801 l 1,52,-1
 297 1352 l 1,23,24
EndSplineSet
Validated: 8388609
Position2: "'cpsp' Capital Spacing lookup 3 subtable" dx=10 dy=0 dh=20 dv=0
EndChar

StartChar: Dcaron
Encoding: 270 270 25
Width: 1452
Flags: MW
HStem: -41 41G<-23 -23> -6 150<550 670 550 708> 1212 145<784 854>
VStem: 969 473<1023 1035 478 1110>
LayerCount: 2
UndoRedoHistory
Layer: 1
Undoes
EndUndoes
Redoes
EndRedoes
EndUndoRedoHistory
Fore
SplineSet
535 145 m 1,0,1
 551 143 551 143 557 143 c 0,2,3
 640 143 640 143 703.5 183.5 c 128,-1,4
 767 224 767 224 812.5 305.5 c 128,-1,5
 858 387 858 387 889 496 c 128,-1,6
 920 605 920 605 944 756 c 1,7,8
 969 927 969 927 969 1047 c 0,9,10
 969 1140 969 1140 928.5 1176 c 128,-1,11
 888 1212 888 1212 793 1212 c 0,12,13
 755 1212 755 1212 739 1210 c 1,14,-1
 535 145 l 1,0,1
238 1352 m 1,15,16
 338 1358 338 1358 512 1358 c 2,17,-1
 600 1358 l 2,18,19
 701 1358 701 1358 779.5 1355 c 128,-1,20
 858 1352 858 1352 936 1343.5 c 128,-1,21
 1014 1335 1014 1335 1072 1321 c 128,-1,22
 1130 1307 1130 1307 1185.5 1284.5 c 128,-1,23
 1241 1262 1241 1262 1279.5 1230.5 c 128,-1,24
 1318 1199 1318 1199 1350.5 1156.5 c 128,-1,25
 1383 1114 1383 1114 1402 1059 c 128,-1,26
 1421 1004 1421 1004 1431.5 935 c 128,-1,27
 1442 866 1442 866 1442 782 c 0,28,29
 1442 602 1442 602 1394 466.5 c 128,-1,30
 1346 331 1346 331 1259 241.5 c 128,-1,31
 1172 152 1172 152 1037.5 96.5 c 128,-1,32
 903 41 903 41 742.5 17.5 c 128,-1,33
 582 -6 582 -6 375 -6 c 0,34,35
 121 -6 121 -6 -23 0 c 1,36,-1
 238 1352 l 1,15,16
537 1782 m 1,37,-1
 809 1665 l 1,38,-1
 1151 1782 l 1,39,-1
 1219 1690 l 1,40,-1
 891 1423 l 1,41,-1
 676 1423 l 1,42,-1
 424 1690 l 1,43,-1
 537 1782 l 1,37,-1
EndSplineSet
Validated: 8388609
Position2: "'cpsp' Capital Spacing lookup 3 subtable" dx=10 dy=0 dh=20 dv=0
EndChar

StartChar: Dcroat
Encoding: 272 272 26
Width: 1511
Flags: MW
HStem: -41 41G<37 37> -6 150<609 729 609 767> 592 209<14 193 14 193> 1212 145<844 913>
VStem: 1028 473<1023 1035 478 1110>
LayerCount: 2
UndoRedoHistory
Layer: 1
Undoes
EndUndoes
Redoes
EndRedoes
EndUndoRedoHistory
Fore
SplineSet
594 145 m 1,0,1
 610 143 610 143 616 143 c 0,2,3
 699 143 699 143 762.5 183.5 c 128,-1,4
 826 224 826 224 872 305.5 c 128,-1,5
 918 387 918 387 949 496 c 128,-1,6
 980 605 980 605 1004 756 c 1,7,8
 1028 920 1028 920 1028 1047 c 0,9,10
 1028 1140 1028 1140 987.5 1176 c 128,-1,11
 947 1212 947 1212 852 1212 c 0,12,13
 815 1212 815 1212 799 1210 c 1,14,-1
 721 801 l 1,15,-1
 834 801 l 1,16,17
 844 756 844 756 844 739 c 0,18,19
 844 676 844 676 800 634 c 0,20,21
 757 594 757 594 680 592 c 1,22,-1
 594 145 l 1,0,1
297 1352 m 1,23,24
 397 1358 397 1358 571 1358 c 2,25,-1
 659 1358 l 2,26,27
 760 1358 760 1358 838.5 1355 c 128,-1,28
 917 1352 917 1352 995 1343.5 c 128,-1,29
 1073 1335 1073 1335 1131 1321 c 128,-1,30
 1189 1307 1189 1307 1244.5 1284.5 c 128,-1,31
 1300 1262 1300 1262 1338.5 1230.5 c 128,-1,32
 1377 1199 1377 1199 1409.5 1156.5 c 128,-1,33
 1442 1114 1442 1114 1461 1059 c 128,-1,34
 1480 1004 1480 1004 1490.5 935 c 128,-1,35
 1501 866 1501 866 1501 782 c 0,36,37
 1501 602 1501 602 1453 466.5 c 128,-1,38
 1405 331 1405 331 1318 241.5 c 128,-1,39
 1231 152 1231 152 1096.5 96.5 c 128,-1,40
 962 41 962 41 801.5 17.5 c 128,-1,41
 641 -6 641 -6 434 -6 c 0,42,43
 181 -6 181 -6 37 0 c 1,44,-1
 152 592 l 1,45,-1
 14 592 l 1,46,47
 6 612 6 612 6 651 c 0,48,49
 7 715 7 715 51.5 758 c 128,-1,50
 96 801 96 801 158 801 c 2,51,-1
 193 801 l 1,52,-1
 297 1352 l 1,23,24
EndSplineSet
Validated: 8388609
Position2: "'cpsp' Capital Spacing lookup 3 subtable" dx=10 dy=0 dh=20 dv=0
EndChar

StartChar: Ddotbelow
Encoding: 7692 7692 27
Width: 1452
Flags: MW
HStem: -412 346<498 630> -41 41G<-23 -23> -6 150<550 670 550 708> 1212 145<784 854>
VStem: 317 485<-296 -188> 969 473<1023 1035 478 1110>
LayerCount: 2
UndoRedoHistory
Layer: 1
Undoes
EndUndoes
Redoes
EndRedoes
EndUndoRedoHistory
Fore
SplineSet
567 -66 m 0,0,1
 672 -66 672 -66 737.5 -113.5 c 128,-1,2
 803 -161 803 -161 803 -240 c 0,3,4
 803 -322 803 -322 735.5 -367 c 128,-1,5
 668 -412 668 -412 559 -412 c 128,-1,6
 450 -412 450 -412 383.5 -368 c 128,-1,7
 317 -324 317 -324 317 -244 c 0,8,9
 317 -163 317 -163 388.5 -114.5 c 128,-1,10
 460 -66 460 -66 567 -66 c 0,0,1
535 145 m 1,11,12
 551 143 551 143 557 143 c 0,13,14
 640 143 640 143 703.5 183.5 c 128,-1,15
 767 224 767 224 812.5 305.5 c 128,-1,16
 858 387 858 387 889 496 c 128,-1,17
 920 605 920 605 944 756 c 1,18,19
 969 927 969 927 969 1047 c 0,20,21
 969 1140 969 1140 928.5 1176 c 128,-1,22
 888 1212 888 1212 793 1212 c 0,23,24
 755 1212 755 1212 739 1210 c 1,25,-1
 535 145 l 1,11,12
238 1352 m 1,26,27
 338 1358 338 1358 512 1358 c 2,28,-1
 600 1358 l 2,29,30
 701 1358 701 1358 779.5 1355 c 128,-1,31
 858 1352 858 1352 936 1343.5 c 128,-1,32
 1014 1335 1014 1335 1072 1321 c 128,-1,33
 1130 1307 1130 1307 1185.5 1284.5 c 128,-1,34
 1241 1262 1241 1262 1279.5 1230.5 c 128,-1,35
 1318 1199 1318 1199 1350.5 1156.5 c 128,-1,36
 1383 1114 1383 1114 1402 1059 c 128,-1,37
 1421 1004 1421 1004 1431.5 935 c 128,-1,38
 1442 866 1442 866 1442 782 c 0,39,40
 1442 602 1442 602 1394 466.5 c 128,-1,41
 1346 331 1346 331 1259 241.5 c 128,-1,42
 1172 152 1172 152 1037.5 96.5 c 128,-1,43
 903 41 903 41 742.5 17.5 c 128,-1,44
 582 -6 582 -6 375 -6 c 0,45,46
 121 -6 121 -6 -23 0 c 1,47,-1
 238 1352 l 1,26,27
EndSplineSet
Validated: 8388609
Position2: "'cpsp' Capital Spacing lookup 3 subtable" dx=10 dy=0 dh=20 dv=0
EndChar

StartChar: Dz
Encoding: 498 498 28
Width: 2449
Flags: MW
HStem: -45 412<2051 2129 2051 2180> -41 41G<-23 -23> -6 150<550 670 550 708> 707 379<1752 1848> 1016 41G 1212 145<784 854>
VStem: 969 473<1023 1035 478 1110>
LayerCount: 2
UndoRedoHistory
Layer: 1
Undoes
EndUndoes
Redoes
EndRedoes
EndUndoRedoHistory
Fore
SplineSet
2064 659 m 1,0,1
 1918 707 1918 707 1810 707 c 0,2,3
 1648 707 1648 707 1608 598 c 1,4,5
 1568 644 1568 644 1545 714 c 128,-1,6
 1522 784 1522 784 1522 852 c 0,7,8
 1522 974 1522 974 1598 1029.5 c 128,-1,9
 1674 1085 1674 1085 1804 1085 c 0,10,11
 1880 1085 1880 1085 2062.5 1059.5 c 128,-1,12
 2245 1034 2245 1034 2306 1034 c 0,13,14
 2378 1034 2378 1034 2423 1057 c 1,15,16
 2484 1001 2484 1001 2484 918 c 0,17,18
 2484 842 2484 842 2440 785 c 128,-1,19
 2396 728 2396 728 2316 674 c 1,20,-1
 1841 420 l 1,21,22
 2005 367 2005 367 2087 367 c 0,23,24
 2156 367 2156 367 2223.5 390.5 c 128,-1,25
 2291 414 2291 414 2333 461 c 1,26,27
 2400 385 2400 385 2400 262 c 0,28,29
 2400 111 2400 111 2316 33 c 128,-1,30
 2232 -45 2232 -45 2083 -45 c 0,31,32
 2010 -45 2010 -45 1865 -13.5 c 128,-1,33
 1720 18 1720 18 1649 18 c 0,34,35
 1592 18 1592 18 1511 0 c 1,36,37
 1432 52 1432 52 1432 154 c 0,38,39
 1432 231 1432 231 1469.5 289.5 c 128,-1,40
 1507 348 1507 348 1577 399 c 1,41,-1
 2064 659 l 1,0,1
535 145 m 1,42,43
 551 143 551 143 557 143 c 0,44,45
 640 143 640 143 703.5 183.5 c 128,-1,46
 767 224 767 224 812.5 305.5 c 128,-1,47
 858 387 858 387 889 496 c 128,-1,48
 920 605 920 605 944 756 c 1,49,50
 969 927 969 927 969 1047 c 0,51,52
 969 1140 969 1140 928.5 1176 c 128,-1,53
 888 1212 888 1212 793 1212 c 0,54,55
 755 1212 755 1212 739 1210 c 1,56,-1
 535 145 l 1,42,43
238 1352 m 1,57,58
 338 1358 338 1358 512 1358 c 2,59,-1
 600 1358 l 2,60,61
 701 1358 701 1358 779.5 1355 c 128,-1,62
 858 1352 858 1352 936 1343.5 c 128,-1,63
 1014 1335 1014 1335 1072 1321 c 128,-1,64
 1130 1307 1130 1307 1185.5 1284.5 c 128,-1,65
 1241 1262 1241 1262 1279.5 1230.5 c 128,-1,66
 1318 1199 1318 1199 1350.5 1156.5 c 128,-1,67
 1383 1114 1383 1114 1402 1059 c 128,-1,68
 1421 1004 1421 1004 1431.5 935 c 128,-1,69
 1442 866 1442 866 1442 782 c 0,70,71
 1442 602 1442 602 1394 466.5 c 128,-1,72
 1346 331 1346 331 1259 241.5 c 128,-1,73
 1172 152 1172 152 1037.5 96.5 c 128,-1,74
 903 41 903 41 742.5 17.5 c 128,-1,75
 582 -6 582 -6 375 -6 c 0,76,77
 121 -6 121 -6 -23 0 c 1,78,-1
 238 1352 l 1,57,58
EndSplineSet
Validated: 8388609
Position2: "'cpsp' Capital Spacing lookup 3 subtable" dx=10 dy=0 dh=20 dv=0
EndChar

StartChar: Dzcaron
Encoding: 453 453 29
Width: 2449
Flags: MW
HStem: -45 412<2051 2129 2051 2180> -41 41G<-23 -23> -6 150<550 670 550 708> 707 379<1752 1848> 1016 41G 1212 145<784 854> 1341 41G<1745 1745 2540 2540> 1434 41G<1858 1858 2472 2472>
VStem: 969 473<1023 1035 478 1110>
LayerCount: 2
UndoRedoHistory
Layer: 1
Undoes
EndUndoes
Redoes
EndRedoes
EndUndoRedoHistory
Fore
SplineSet
2064 659 m 1,0,1
 1918 707 1918 707 1810 707 c 0,2,3
 1648 707 1648 707 1608 598 c 1,4,5
 1568 644 1568 644 1545 714 c 128,-1,6
 1522 784 1522 784 1522 852 c 0,7,8
 1522 974 1522 974 1598 1029.5 c 128,-1,9
 1674 1085 1674 1085 1804 1085 c 0,10,11
 1880 1085 1880 1085 2062.5 1059.5 c 128,-1,12
 2245 1034 2245 1034 2306 1034 c 0,13,14
 2378 1034 2378 1034 2423 1057 c 1,15,16
 2484 1001 2484 1001 2484 918 c 0,17,18
 2484 842 2484 842 2440 785 c 128,-1,19
 2396 728 2396 728 2316 674 c 1,20,-1
 1841 420 l 1,21,22
 2005 367 2005 367 2087 367 c 0,23,24
 2156 367 2156 367 2223.5 390.5 c 128,-1,25
 2291 414 2291 414 2333 461 c 1,26,27
 2400 385 2400 385 2400 262 c 0,28,29
 2400 111 2400 111 2316 33 c 128,-1,30
 2232 -45 2232 -45 2083 -45 c 0,31,32
 2010 -45 2010 -45 1865 -13.5 c 128,-1,33
 1720 18 1720 18 1649 18 c 0,34,35
 1592 18 1592 18 1511 0 c 1,36,37
 1432 52 1432 52 1432 154 c 0,38,39
 1432 231 1432 231 1469.5 289.5 c 128,-1,40
 1507 348 1507 348 1577 399 c 1,41,-1
 2064 659 l 1,0,1
535 145 m 1,42,43
 551 143 551 143 557 143 c 0,44,45
 640 143 640 143 703.5 183.5 c 128,-1,46
 767 224 767 224 812.5 305.5 c 128,-1,47
 858 387 858 387 889 496 c 128,-1,48
 920 605 920 605 944 756 c 1,49,50
 969 927 969 927 969 1047 c 0,51,52
 969 1140 969 1140 928.5 1176 c 128,-1,53
 888 1212 888 1212 793 1212 c 0,54,55
 755 1212 755 1212 739 1210 c 1,56,-1
 535 145 l 1,42,43
238 1352 m 1,57,58
 338 1358 338 1358 512 1358 c 2,59,-1
 600 1358 l 2,60,61
 701 1358 701 1358 779.5 1355 c 128,-1,62
 858 1352 858 1352 936 1343.5 c 128,-1,63
 1014 1335 1014 1335 1072 1321 c 128,-1,64
 1130 1307 1130 1307 1185.5 1284.5 c 128,-1,65
 1241 1262 1241 1262 1279.5 1230.5 c 128,-1,66
 1318 1199 1318 1199 1350.5 1156.5 c 128,-1,67
 1383 1114 1383 1114 1402 1059 c 128,-1,68
 1421 1004 1421 1004 1431.5 935 c 128,-1,69
 1442 866 1442 866 1442 782 c 0,70,71
 1442 602 1442 602 1394 466.5 c 128,-1,72
 1346 331 1346 331 1259 241.5 c 128,-1,73
 1172 152 1172 152 1037.5 96.5 c 128,-1,74
 903 41 903 41 742.5 17.5 c 128,-1,75
 582 -6 582 -6 375 -6 c 0,76,77
 121 -6 121 -6 -23 0 c 1,78,-1
 238 1352 l 1,57,58
1858 1475 m 1,79,-1
 2130 1358 l 1,80,-1
 2472 1475 l 1,81,-1
 2540 1382 l 1,82,-1
 2212 1116 l 1,83,-1
 1997 1116 l 1,84,-1
 1745 1382 l 1,85,-1
 1858 1475 l 1,79,-1
EndSplineSet
Validated: 8388609
Position2: "'cpsp' Capital Spacing lookup 3 subtable" dx=10 dy=0 dh=20 dv=0
EndChar

StartChar: E
Encoding: 69 69 30
Width: 1095
Flags: MW
HStem: 0 276<580 702> 543 260<778 903> 1065 287<908 1060> 1120 231<737 737>
VStem: -10 1231
LayerCount: 2
UndoRedoHistory
Layer: 1
Undoes
EndUndoes
Redoes
EndRedoes
EndUndoRedoHistory
Fore
SplineSet
1221 1352 m 1,0,1
 1221 1211 1221 1211 1161 1138 c 128,-1,2
 1101 1065 1101 1065 969 1065 c 0,3,4
 915 1065 915 1065 858.5 1078 c 128,-1,5
 802 1091 802 1091 776 1101.5 c 128,-1,6
 750 1112 750 1112 737 1120 c 1,7,-1
 680 803 l 1,8,-1
 1042 803 l 1,9,10
 1042 681 1042 681 989.5 612 c 128,-1,11
 937 543 937 543 825 543 c 0,12,13
 782 543 782 543 738 553 c 128,-1,14
 694 563 694 563 670 572.5 c 128,-1,15
 646 582 646 582 639 588 c 1,16,-1
 580 276 l 1,17,-1
 729 276 l 2,18,19
 859 276 859 276 952 295 c 1,20,21
 981 258 981 258 981 172 c 0,22,23
 981 0 981 0 702 0 c 2,24,-1
 -10 0 l 1,25,-1
 238 1352 l 1,26,-1
 1221 1352 l 1,0,1
EndSplineSet
Validated: 8388609
Position2: "'cpsp' Capital Spacing lookup 3 subtable" dx=10 dy=0 dh=20 dv=0
EndChar

StartChar: Eacute
Encoding: 201 201 31
Width: 1095
Flags: MW
HStem: 0 276<580 702> 543 260<778 903> 1065 287<908 1060> 1120 231<737 737>
VStem: -10 1231
LayerCount: 2
UndoRedoHistory
Layer: 1
Undoes
EndUndoes
Redoes
EndRedoes
EndUndoRedoHistory
Fore
SplineSet
1221 1352 m 1,0,1
 1221 1211 1221 1211 1161 1138 c 128,-1,2
 1101 1065 1101 1065 969 1065 c 0,3,4
 915 1065 915 1065 858.5 1078 c 128,-1,5
 802 1091 802 1091 776 1101.5 c 128,-1,6
 750 1112 750 1112 737 1120 c 1,7,-1
 680 803 l 1,8,-1
 1042 803 l 1,9,10
 1042 681 1042 681 989.5 612 c 128,-1,11
 937 543 937 543 825 543 c 0,12,13
 782 543 782 543 738 553 c 128,-1,14
 694 563 694 563 670 572.5 c 128,-1,15
 646 582 646 582 639 588 c 1,16,-1
 580 276 l 1,17,-1
 729 276 l 2,18,19
 859 276 859 276 952 295 c 1,20,21
 981 258 981 258 981 172 c 0,22,23
 981 0 981 0 702 0 c 2,24,-1
 -10 0 l 1,25,-1
 238 1352 l 1,26,-1
 1221 1352 l 1,0,1
532 1556 m 1,27,-1
 1044 1780 l 1,28,29
 1076 1754 1076 1754 1092 1727 c 128,-1,30
 1108 1700 1108 1700 1108 1659 c 0,31,32
 1108 1559 1108 1559 1024 1509.5 c 128,-1,33
 940 1460 940 1460 807 1458 c 1,34,-1
 561 1452 l 1,35,-1
 532 1556 l 1,27,-1
EndSplineSet
Validated: 8388609
Position2: "'cpsp' Capital Spacing lookup 3 subtable" dx=10 dy=0 dh=20 dv=0
EndChar

StartChar: Ebreve
Encoding: 276 276 32
Width: 1095
Flags: MW
HStem: 0 276<580 702> 543 260<778 903> 1065 287<908 1060> 1120 231<737 737> 1434 272<546 670 817 824>
VStem: -10 1231 301 358<1593 1595 1576 1660>
LayerCount: 2
UndoRedoHistory
Layer: 1
Undoes
EndUndoes
Redoes
EndRedoes
EndUndoRedoHistory
Fore
SplineSet
1221 1352 m 1,0,1
 1221 1211 1221 1211 1161 1138 c 128,-1,2
 1101 1065 1101 1065 969 1065 c 0,3,4
 915 1065 915 1065 858.5 1078 c 128,-1,5
 802 1091 802 1091 776 1101.5 c 128,-1,6
 750 1112 750 1112 737 1120 c 1,7,-1
 680 803 l 1,8,-1
 1042 803 l 1,9,10
 1042 681 1042 681 989.5 612 c 128,-1,11
 937 543 937 543 825 543 c 0,12,13
 782 543 782 543 738 553 c 128,-1,14
 694 563 694 563 670 572.5 c 128,-1,15
 646 582 646 582 639 588 c 1,16,-1
 580 276 l 1,17,-1
 729 276 l 2,18,19
 859 276 859 276 952 295 c 1,20,21
 981 258 981 258 981 172 c 0,22,23
 981 0 981 0 702 0 c 2,24,-1
 -10 0 l 1,25,-1
 238 1352 l 1,26,-1
 1221 1352 l 1,0,1
670 1706 m 1,27,28
 662 1648 662 1648 662 1622 c 0,29,30
 662 1618 662 1618 660.5 1607 c 128,-1,31
 659 1596 659 1596 659 1589 c 0,32,33
 659 1534 659 1534 717 1534 c 0,34,35
 734 1534 734 1534 747.5 1541.5 c 128,-1,36
 761 1549 761 1549 769.5 1559.5 c 128,-1,37
 778 1570 778 1570 785.5 1589.5 c 128,-1,38
 793 1609 793 1609 797 1624.5 c 128,-1,39
 801 1640 801 1640 807 1665.5 c 128,-1,40
 813 1691 813 1691 817 1706 c 1,41,-1
 1167 1706 l 1,42,43
 1141 1586 1141 1586 1014.5 1510 c 128,-1,44
 888 1434 888 1434 684 1434 c 0,45,46
 489 1434 489 1434 395 1495.5 c 128,-1,47
 301 1557 301 1557 301 1651 c 0,48,49
 301 1676 301 1676 307 1706 c 1,50,-1
 670 1706 l 1,27,28
EndSplineSet
Validated: 8388609
Position2: "'cpsp' Capital Spacing lookup 3 subtable" dx=10 dy=0 dh=20 dv=0
EndChar

StartChar: Ecaron
Encoding: 282 282 33
Width: 1095
Flags: MW
HStem: 0 276<580 702> 543 260<778 903> 1065 287<908 1060> 1120 231<737 737>
VStem: -10 1231
LayerCount: 2
UndoRedoHistory
Layer: 1
Undoes
EndUndoes
Redoes
EndRedoes
EndUndoRedoHistory
Fore
SplineSet
1221 1352 m 1,0,1
 1221 1211 1221 1211 1161 1138 c 128,-1,2
 1101 1065 1101 1065 969 1065 c 0,3,4
 915 1065 915 1065 858.5 1078 c 128,-1,5
 802 1091 802 1091 776 1101.5 c 128,-1,6
 750 1112 750 1112 737 1120 c 1,7,-1
 680 803 l 1,8,-1
 1042 803 l 1,9,10
 1042 681 1042 681 989.5 612 c 128,-1,11
 937 543 937 543 825 543 c 0,12,13
 782 543 782 543 738 553 c 128,-1,14
 694 563 694 563 670 572.5 c 128,-1,15
 646 582 646 582 639 588 c 1,16,-1
 580 276 l 1,17,-1
 729 276 l 2,18,19
 859 276 859 276 952 295 c 1,20,21
 981 258 981 258 981 172 c 0,22,23
 981 0 981 0 702 0 c 2,24,-1
 -10 0 l 1,25,-1
 238 1352 l 1,26,-1
 1221 1352 l 1,0,1
494 1782 m 1,27,-1
 766 1665 l 1,28,-1
 1108 1782 l 1,29,-1
 1176 1690 l 1,30,-1
 848 1423 l 1,31,-1
 633 1423 l 1,32,-1
 381 1690 l 1,33,-1
 494 1782 l 1,27,-1
EndSplineSet
Validated: 8388609
Position2: "'cpsp' Capital Spacing lookup 3 subtable" dx=10 dy=0 dh=20 dv=0
EndChar

StartChar: Ecircumflex
Encoding: 202 202 34
Width: 1095
Flags: MW
HStem: 0 276<580 702> 543 260<778 903> 1065 287<908 1060> 1120 231<737 737>
VStem: -10 1231
LayerCount: 2
UndoRedoHistory
Layer: 1
Undoes
EndUndoes
Redoes
EndRedoes
EndUndoRedoHistory
Fore
SplineSet
1221 1352 m 1,0,1
 1221 1211 1221 1211 1161 1138 c 128,-1,2
 1101 1065 1101 1065 969 1065 c 0,3,4
 915 1065 915 1065 858.5 1078 c 128,-1,5
 802 1091 802 1091 776 1101.5 c 128,-1,6
 750 1112 750 1112 737 1120 c 1,7,-1
 680 803 l 1,8,-1
 1042 803 l 1,9,10
 1042 681 1042 681 989.5 612 c 128,-1,11
 937 543 937 543 825 543 c 0,12,13
 782 543 782 543 738 553 c 128,-1,14
 694 563 694 563 670 572.5 c 128,-1,15
 646 582 646 582 639 588 c 1,16,-1
 580 276 l 1,17,-1
 729 276 l 2,18,19
 859 276 859 276 952 295 c 1,20,21
 981 258 981 258 981 172 c 0,22,23
 981 0 981 0 702 0 c 2,24,-1
 -10 0 l 1,25,-1
 238 1352 l 1,26,-1
 1221 1352 l 1,0,1
1001 1411 m 1,27,-1
 750 1487 l 1,28,-1
 428 1411 l 1,29,-1
 360 1503 l 1,30,-1
 729 1749 l 1,31,-1
 821 1749 l 1,32,-1
 1114 1503 l 1,33,-1
 1001 1411 l 1,27,-1
EndSplineSet
Validated: 8388609
Position2: "'cpsp' Capital Spacing lookup 3 subtable" dx=10 dy=0 dh=20 dv=0
EndChar

StartChar: Edieresis
Encoding: 203 203 35
Width: 1095
Flags: MW
HStem: 0 276<580 702> 543 260<778 903> 1065 287<908 1060> 1120 231<737 737> 1413 346<387 519 897 1029>
VStem: -10 1231 207 485<1529 1636> 717 485<1529 1636>
LayerCount: 2
UndoRedoHistory
Layer: 1
Undoes
EndUndoes
Redoes
EndRedoes
EndUndoRedoHistory
Fore
SplineSet
1221 1352 m 1,0,1
 1221 1211 1221 1211 1161 1138 c 128,-1,2
 1101 1065 1101 1065 969 1065 c 0,3,4
 915 1065 915 1065 858.5 1078 c 128,-1,5
 802 1091 802 1091 776 1101.5 c 128,-1,6
 750 1112 750 1112 737 1120 c 1,7,-1
 680 803 l 1,8,-1
 1042 803 l 1,9,10
 1042 681 1042 681 989.5 612 c 128,-1,11
 937 543 937 543 825 543 c 0,12,13
 782 543 782 543 738 553 c 128,-1,14
 694 563 694 563 670 572.5 c 128,-1,15
 646 582 646 582 639 588 c 1,16,-1
 580 276 l 1,17,-1
 729 276 l 2,18,19
 859 276 859 276 952 295 c 1,20,21
 981 258 981 258 981 172 c 0,22,23
 981 0 981 0 702 0 c 2,24,-1
 -10 0 l 1,25,-1
 238 1352 l 1,26,-1
 1221 1352 l 1,0,1
967 1759 m 0,27,28
 1072 1759 1072 1759 1137 1711.5 c 128,-1,29
 1202 1664 1202 1664 1202 1585 c 0,30,31
 1202 1503 1202 1503 1134.5 1458 c 128,-1,32
 1067 1413 1067 1413 958 1413 c 128,-1,33
 849 1413 849 1413 783 1457 c 128,-1,34
 717 1501 717 1501 717 1581 c 0,35,36
 717 1662 717 1662 788.5 1710.5 c 128,-1,37
 860 1759 860 1759 967 1759 c 0,27,28
457 1759 m 0,38,39
 562 1759 562 1759 627 1711.5 c 128,-1,40
 692 1664 692 1664 692 1585 c 0,41,42
 692 1503 692 1503 625 1458 c 128,-1,43
 558 1413 558 1413 449 1413 c 128,-1,44
 340 1413 340 1413 273.5 1457 c 128,-1,45
 207 1501 207 1501 207 1581 c 0,46,47
 207 1662 207 1662 278.5 1710.5 c 128,-1,48
 350 1759 350 1759 457 1759 c 0,38,39
EndSplineSet
Validated: 8388609
Position2: "'cpsp' Capital Spacing lookup 3 subtable" dx=10 dy=0 dh=20 dv=0
EndChar

StartChar: Edotaccent
Encoding: 278 278 36
Width: 1095
Flags: MW
HStem: 0 276<580 702> 543 260<778 903> 1065 287<908 1060> 1120 231<737 737> 1413 346<653 785>
VStem: -10 1231 473 485<1529 1636>
LayerCount: 2
UndoRedoHistory
Layer: 1
Undoes
EndUndoes
Redoes
EndRedoes
EndUndoRedoHistory
Fore
SplineSet
1221 1352 m 1,0,1
 1221 1211 1221 1211 1161 1138 c 128,-1,2
 1101 1065 1101 1065 969 1065 c 0,3,4
 915 1065 915 1065 858.5 1078 c 128,-1,5
 802 1091 802 1091 776 1101.5 c 128,-1,6
 750 1112 750 1112 737 1120 c 1,7,-1
 680 803 l 1,8,-1
 1042 803 l 1,9,10
 1042 681 1042 681 989.5 612 c 128,-1,11
 937 543 937 543 825 543 c 0,12,13
 782 543 782 543 738 553 c 128,-1,14
 694 563 694 563 670 572.5 c 128,-1,15
 646 582 646 582 639 588 c 1,16,-1
 580 276 l 1,17,-1
 729 276 l 2,18,19
 859 276 859 276 952 295 c 1,20,21
 981 258 981 258 981 172 c 0,22,23
 981 0 981 0 702 0 c 2,24,-1
 -10 0 l 1,25,-1
 238 1352 l 1,26,-1
 1221 1352 l 1,0,1
723 1759 m 0,27,28
 828 1759 828 1759 893 1711.5 c 128,-1,29
 958 1664 958 1664 958 1585 c 0,30,31
 958 1503 958 1503 891 1458 c 128,-1,32
 824 1413 824 1413 715 1413 c 128,-1,33
 606 1413 606 1413 539.5 1457 c 128,-1,34
 473 1501 473 1501 473 1581 c 0,35,36
 473 1662 473 1662 544.5 1710.5 c 128,-1,37
 616 1759 616 1759 723 1759 c 0,27,28
EndSplineSet
Validated: 8388609
Position2: "'cpsp' Capital Spacing lookup 3 subtable" dx=10 dy=0 dh=20 dv=0
EndChar

StartChar: Edotbelow
Encoding: 7864 7864 37
Width: 1095
Flags: MW
HStem: -412 346<356 488> 0 276<580 702> 543 260<778 903> 1065 287<908 1060> 1120 231<737 737>
VStem: -10 1231 176 485<-296 -188>
LayerCount: 2
UndoRedoHistory
Layer: 1
Undoes
EndUndoes
Redoes
EndRedoes
EndUndoRedoHistory
Fore
SplineSet
426 -66 m 0,0,1
 531 -66 531 -66 596.5 -113.5 c 128,-1,2
 662 -161 662 -161 662 -240 c 0,3,4
 662 -322 662 -322 594.5 -367 c 128,-1,5
 527 -412 527 -412 418 -412 c 128,-1,6
 309 -412 309 -412 242.5 -368 c 128,-1,7
 176 -324 176 -324 176 -244 c 0,8,9
 176 -163 176 -163 247.5 -114.5 c 128,-1,10
 319 -66 319 -66 426 -66 c 0,0,1
1221 1352 m 1,11,12
 1221 1211 1221 1211 1161 1138 c 128,-1,13
 1101 1065 1101 1065 969 1065 c 0,14,15
 915 1065 915 1065 858.5 1078 c 128,-1,16
 802 1091 802 1091 776 1101.5 c 128,-1,17
 750 1112 750 1112 737 1120 c 1,18,-1
 680 803 l 1,19,-1
 1042 803 l 1,20,21
 1042 681 1042 681 989.5 612 c 128,-1,22
 937 543 937 543 825 543 c 0,23,24
 782 543 782 543 738 553 c 128,-1,25
 694 563 694 563 670 572.5 c 128,-1,26
 646 582 646 582 639 588 c 1,27,-1
 580 276 l 1,28,-1
 729 276 l 2,29,30
 859 276 859 276 952 295 c 1,31,32
 981 258 981 258 981 172 c 0,33,34
 981 0 981 0 702 0 c 2,35,-1
 -10 0 l 1,36,-1
 238 1352 l 1,37,-1
 1221 1352 l 1,11,12
EndSplineSet
Validated: 8388609
Position2: "'cpsp' Capital Spacing lookup 3 subtable" dx=10 dy=0 dh=20 dv=0
EndChar

StartChar: Egrave
Encoding: 200 200 38
Width: 1095
Flags: MW
HStem: 0 276<580 702> 543 260<778 903> 1065 287<908 1060> 1120 231<737 737> 1457 103
VStem: -10 1231
LayerCount: 2
UndoRedoHistory
Layer: 1
Undoes
EndUndoes
Redoes
EndRedoes
EndUndoRedoHistory
Fore
SplineSet
1221 1352 m 1,0,1
 1221 1211 1221 1211 1161 1138 c 128,-1,2
 1101 1065 1101 1065 969 1065 c 0,3,4
 915 1065 915 1065 858.5 1078 c 128,-1,5
 802 1091 802 1091 776 1101.5 c 128,-1,6
 750 1112 750 1112 737 1120 c 1,7,-1
 680 803 l 1,8,-1
 1042 803 l 1,9,10
 1042 681 1042 681 989.5 612 c 128,-1,11
 937 543 937 543 825 543 c 0,12,13
 782 543 782 543 738 553 c 128,-1,14
 694 563 694 563 670 572.5 c 128,-1,15
 646 582 646 582 639 588 c 1,16,-1
 580 276 l 1,17,-1
 729 276 l 2,18,19
 859 276 859 276 952 295 c 1,20,21
 981 258 981 258 981 172 c 0,22,23
 981 0 981 0 702 0 c 2,24,-1
 -10 0 l 1,25,-1
 238 1352 l 1,26,-1
 1221 1352 l 1,0,1
932 1454 m 1,27,-1
 684 1460 l 2,28,29
 599 1462 599 1462 534 1482 c 128,-1,30
 469 1502 469 1502 427 1548 c 128,-1,31
 385 1594 385 1594 385 1663 c 0,32,33
 385 1734 385 1734 449 1782 c 1,34,-1
 961 1561 l 1,35,-1
 932 1454 l 1,27,-1
EndSplineSet
Validated: 8388609
Position2: "'cpsp' Capital Spacing lookup 3 subtable" dx=10 dy=0 dh=20 dv=0
EndChar

StartChar: Emacron
Encoding: 274 274 39
Width: 1095
Flags: MW
HStem: 0 276<580 702> 543 260<778 903> 1065 287<908 1060> 1120 231<737 737> 1520 197<539 901 399 1057>
VStem: -10 1231
LayerCount: 2
UndoRedoHistory
Layer: 1
Undoes
EndUndoes
Redoes
EndRedoes
EndUndoRedoHistory
Fore
SplineSet
1221 1352 m 1,0,1
 1221 1211 1221 1211 1161 1138 c 128,-1,2
 1101 1065 1101 1065 969 1065 c 0,3,4
 915 1065 915 1065 858.5 1078 c 128,-1,5
 802 1091 802 1091 776 1101.5 c 128,-1,6
 750 1112 750 1112 737 1120 c 1,7,-1
 680 803 l 1,8,-1
 1042 803 l 1,9,10
 1042 681 1042 681 989.5 612 c 128,-1,11
 937 543 937 543 825 543 c 0,12,13
 782 543 782 543 738 553 c 128,-1,14
 694 563 694 563 670 572.5 c 128,-1,15
 646 582 646 582 639 588 c 1,16,-1
 580 276 l 1,17,-1
 729 276 l 2,18,19
 859 276 859 276 952 295 c 1,20,21
 981 258 981 258 981 172 c 0,22,23
 981 0 981 0 702 0 c 2,24,-1
 -10 0 l 1,25,-1
 238 1352 l 1,26,-1
 1221 1352 l 1,0,1
1057 1716 m 1,27,28
 1065 1684 1065 1684 1065 1655 c 0,29,30
 1065 1596 1065 1596 1023 1558 c 128,-1,31
 981 1520 981 1520 901 1520 c 2,32,-1
 399 1520 l 1,33,34
 393 1538 393 1538 393 1577 c 0,35,36
 394 1638 394 1638 435.5 1677 c 128,-1,37
 477 1716 477 1716 539 1716 c 2,38,-1
 1057 1716 l 1,27,28
EndSplineSet
Validated: 8388609
Position2: "'cpsp' Capital Spacing lookup 3 subtable" dx=10 dy=0 dh=20 dv=0
EndChar

StartChar: Eogonek
Encoding: 280 280 40
Width: 1095
Flags: MW
HStem: -528 203<749 770> 0 276<580 639> 543 260<778 903> 1065 287<908 1060> 1120 231<737 737>
VStem: 420 270<-268 -238>
LayerCount: 2
UndoRedoHistory
Layer: 1
Undoes
EndUndoes
Redoes
EndRedoes
EndUndoRedoHistory
Fore
SplineSet
1221 1352 m 1,0,1
 1221 1211 1221 1211 1161 1138 c 128,-1,2
 1101 1065 1101 1065 969 1065 c 0,3,4
 915 1065 915 1065 858.5 1078 c 128,-1,5
 802 1091 802 1091 776 1101.5 c 128,-1,6
 750 1112 750 1112 737 1120 c 1,7,-1
 680 803 l 1,8,-1
 1042 803 l 1,9,10
 1042 681 1042 681 989.5 612 c 128,-1,11
 937 543 937 543 825 543 c 0,12,13
 782 543 782 543 738 553 c 128,-1,14
 694 563 694 563 670 572.5 c 128,-1,15
 646 582 646 582 639 588 c 1,16,-1
 580 276 l 1,17,-1
 729 276 l 2,18,19
 859 276 859 276 952 295 c 1,20,21
 981 258 981 258 981 172 c 0,22,23
 981 65 981 65 866 23 c 1,24,-1
 866 20 l 1,25,26
 786 -35 786 -35 738 -102 c 128,-1,27
 690 -169 690 -169 690 -236 c 0,28,29
 690 -284 690 -284 711.5 -305 c 128,-1,30
 733 -326 733 -326 776 -326 c 0,31,32
 855 -326 855 -326 899 -274 c 1,33,34
 938 -330 938 -330 938 -397 c 0,35,36
 938 -453 938 -453 872.5 -490.5 c 128,-1,37
 807 -528 807 -528 682 -528 c 128,-1,38
 557 -528 557 -528 488.5 -473.5 c 128,-1,39
 420 -419 420 -419 420 -315 c 0,40,41
 420 -104 420 -104 639 0 c 1,42,-1
 -10 0 l 1,43,-1
 238 1352 l 1,44,-1
 1221 1352 l 1,0,1
EndSplineSet
Validated: 8388609
Position2: "'cpsp' Capital Spacing lookup 3 subtable" dx=10 dy=0 dh=20 dv=0
EndChar

StartChar: Etilde
Encoding: 7868 7868 41
Width: 1095
Flags: MW
HStem: 0 276<580 702> 543 260<778 903> 1065 287<908 1060> 1120 231<737 737> 1477 244<941 1016 941 1016> 1516 240<460 530>
VStem: -10 1231
LayerCount: 2
UndoRedoHistory
Layer: 1
Undoes
EndUndoes
Redoes
EndRedoes
EndUndoRedoHistory
Fore
SplineSet
1221 1352 m 1,0,1
 1221 1211 1221 1211 1161 1138 c 128,-1,2
 1101 1065 1101 1065 969 1065 c 0,3,4
 915 1065 915 1065 858.5 1078 c 128,-1,5
 802 1091 802 1091 776 1101.5 c 128,-1,6
 750 1112 750 1112 737 1120 c 1,7,-1
 680 803 l 1,8,-1
 1042 803 l 1,9,10
 1042 681 1042 681 989.5 612 c 128,-1,11
 937 543 937 543 825 543 c 0,12,13
 782 543 782 543 738 553 c 128,-1,14
 694 563 694 563 670 572.5 c 128,-1,15
 646 582 646 582 639 588 c 1,16,-1
 580 276 l 1,17,-1
 729 276 l 2,18,19
 859 276 859 276 952 295 c 1,20,21
 981 258 981 258 981 172 c 0,22,23
 981 0 981 0 702 0 c 2,24,-1
 -10 0 l 1,25,-1
 238 1352 l 1,26,-1
 1221 1352 l 1,0,1
1122 1755 m 1,27,28
 1165 1704 1165 1704 1165 1640 c 0,29,30
 1165 1561 1165 1561 1107.5 1519 c 128,-1,31
 1050 1477 1050 1477 948 1477 c 0,32,33
 890 1477 890 1477 708.5 1496.5 c 128,-1,34
 527 1516 527 1516 489 1516 c 0,35,36
 448 1516 448 1516 405.5 1504.5 c 128,-1,37
 363 1493 363 1493 342 1479 c 1,38,39
 297 1539 297 1539 297 1606 c 0,40,41
 297 1678 297 1678 354 1716.5 c 128,-1,42
 411 1755 411 1755 518 1755 c 0,43,44
 583 1755 583 1755 763.5 1737.5 c 128,-1,45
 944 1720 944 1720 989 1720 c 0,46,47
 1084 1720 1084 1720 1122 1755 c 1,27,28
EndSplineSet
Validated: 8388609
Position2: "'cpsp' Capital Spacing lookup 3 subtable" dx=10 dy=0 dh=20 dv=0
EndChar

StartChar: F
Encoding: 70 70 42
Width: 1140
Flags: MW
HStem: 543 285<805 950> 1051 301<970 1117> 1106 246<737 737>
VStem: -10 1272<0 1352>
LayerCount: 2
UndoRedoHistory
Layer: 1
Undoes
EndUndoes
Redoes
EndRedoes
EndUndoRedoHistory
Fore
SplineSet
1262 1352 m 1,0,1
 1262 1199 1262 1199 1210.5 1125 c 128,-1,2
 1159 1051 1159 1051 1018 1051 c 0,3,4
 946 1051 946 1051 862.5 1067.5 c 128,-1,5
 779 1084 779 1084 737 1106 c 1,6,-1
 684 827 l 1,7,-1
 1092 827 l 1,8,9
 1092 543 1092 543 856 543 c 0,10,11
 754 543 754 543 639 594 c 1,12,-1
 535 0 l 1,13,-1
 -10 0 l 1,14,-1
 238 1352 l 1,15,-1
 1262 1352 l 1,0,1
EndSplineSet
Validated: 8388609
Position2: "'cpsp' Capital Spacing lookup 3 subtable" dx=10 dy=0 dh=20 dv=0
EndChar

StartChar: G
Encoding: 71 71 43
Width: 1441
Flags: MW
HStem: -41 266<379 810 709 1178> 1247 145<828 951>
VStem: 70 530<512 723 512 813> 907 393 1024 399<1074 1118>
LayerCount: 2
UndoRedoHistory
Layer: 1
Undoes
EndUndoes
Redoes
EndRedoes
EndUndoRedoHistory
Fore
SplineSet
1458 711 m 1,0,1
 1300 363 1300 363 1300 13 c 0,2,3
 1300 6 1300 6 1300 0 c 1,4,5
 1228 -41 1228 -41 1147 -41 c 0,6,7
 1047 -41 1047 -41 979 2 c 128,-1,8
 911 45 911 45 907 86 c 1,9,10
 777 -41 777 -41 543 -41 c 0,11,12
 305 -41 305 -41 187.5 115 c 128,-1,13
 70 271 70 271 70 545 c 0,14,15
 70 947 70 947 308 1170 c 128,-1,16
 546 1393 546 1393 969 1393 c 0,17,18
 1423 1393 1423 1393 1423 1155 c 0,19,20
 1423 1036 1423 1036 1325.5 955 c 128,-1,21
 1228 874 1228 874 1096 874 c 0,22,23
 1047 874 1047 874 1006 879 c 1,24,25
 1024 981 1024 981 1024 1061 c 0,26,27
 1024 1247 1024 1247 911 1247 c 0,28,29
 832 1247 832 1247 758.5 1140.5 c 128,-1,30
 685 1034 685 1034 642.5 878.5 c 128,-1,31
 600 723 600 723 600 575 c 0,32,33
 600 518 600 518 607.5 465 c 128,-1,34
 615 412 615 412 633.5 354 c 128,-1,35
 652 296 652 296 692.5 260.5 c 128,-1,36
 733 225 733 225 791 225 c 0,37,38
 825 225 825 225 858.5 237 c 128,-1,39
 892 249 892 249 903 272 c 1,40,-1
 969 674 l 1,41,-1
 1458 711 l 1,0,1
EndSplineSet
Validated: 8388609
Position2: "'cpsp' Capital Spacing lookup 3 subtable" dx=10 dy=0 dh=20 dv=0
EndChar

StartChar: Gbreve
Encoding: 286 286 44
Width: 1441
Flags: MW
HStem: -41 266<379 810 709 1178> 1247 145<828 951> 1434 272<812 936 1083 1091>
VStem: 70 530<512 723 512 813> 567 358<1593 1595 1576 1660> 907 393 1024 399<1074 1118>
LayerCount: 2
UndoRedoHistory
Layer: 1
Undoes
EndUndoes
Redoes
EndRedoes
EndUndoRedoHistory
Fore
SplineSet
1458 711 m 1,0,1
 1300 363 1300 363 1300 13 c 0,2,3
 1300 6 1300 6 1300 0 c 1,4,5
 1228 -41 1228 -41 1147 -41 c 0,6,7
 1047 -41 1047 -41 979 2 c 128,-1,8
 911 45 911 45 907 86 c 1,9,10
 777 -41 777 -41 543 -41 c 0,11,12
 305 -41 305 -41 187.5 115 c 128,-1,13
 70 271 70 271 70 545 c 0,14,15
 70 947 70 947 308 1170 c 128,-1,16
 546 1393 546 1393 969 1393 c 0,17,18
 1423 1393 1423 1393 1423 1155 c 0,19,20
 1423 1036 1423 1036 1325.5 955 c 128,-1,21
 1228 874 1228 874 1096 874 c 0,22,23
 1047 874 1047 874 1006 879 c 1,24,25
 1024 981 1024 981 1024 1061 c 0,26,27
 1024 1247 1024 1247 911 1247 c 0,28,29
 832 1247 832 1247 758.5 1140.5 c 128,-1,30
 685 1034 685 1034 642.5 878.5 c 128,-1,31
 600 723 600 723 600 575 c 0,32,33
 600 518 600 518 607.5 465 c 128,-1,34
 615 412 615 412 633.5 354 c 128,-1,35
 652 296 652 296 692.5 260.5 c 128,-1,36
 733 225 733 225 791 225 c 0,37,38
 825 225 825 225 858.5 237 c 128,-1,39
 892 249 892 249 903 272 c 1,40,-1
 969 674 l 1,41,-1
 1458 711 l 1,0,1
936 1706 m 1,42,43
 928 1648 928 1648 928 1622 c 0,44,45
 928 1618 928 1618 927 1607 c 128,-1,46
 926 1596 926 1596 926 1589 c 0,47,48
 926 1534 926 1534 983 1534 c 0,49,50
 1000 1534 1000 1534 1013.5 1541.5 c 128,-1,51
 1027 1549 1027 1549 1035.5 1559.5 c 128,-1,52
 1044 1570 1044 1570 1051.5 1589.5 c 128,-1,53
 1059 1609 1059 1609 1063 1624.5 c 128,-1,54
 1067 1640 1067 1640 1073 1665.5 c 128,-1,55
 1079 1691 1079 1691 1083 1706 c 1,56,-1
 1434 1706 l 1,57,58
 1408 1586 1408 1586 1281 1510 c 128,-1,59
 1154 1434 1154 1434 950 1434 c 0,60,61
 755 1434 755 1434 661 1495.5 c 128,-1,62
 567 1557 567 1557 567 1651 c 0,63,64
 567 1676 567 1676 573 1706 c 1,65,-1
 936 1706 l 1,42,43
EndSplineSet
Validated: 8388609
Position2: "'cpsp' Capital Spacing lookup 3 subtable" dx=10 dy=0 dh=20 dv=0
EndChar

StartChar: Gcircumflex
Encoding: 284 284 45
Width: 1441
Flags: MW
HStem: -41 266<379 810 709 1178> 1247 145<828 951>
VStem: 70 530<512 723 512 813> 907 393 1024 399<1074 1118>
LayerCount: 2
UndoRedoHistory
Layer: 1
Undoes
EndUndoes
Redoes
EndRedoes
EndUndoRedoHistory
Fore
SplineSet
1458 711 m 1,0,1
 1300 363 1300 363 1300 13 c 0,2,3
 1300 6 1300 6 1300 0 c 1,4,5
 1228 -41 1228 -41 1147 -41 c 0,6,7
 1047 -41 1047 -41 979 2 c 128,-1,8
 911 45 911 45 907 86 c 1,9,10
 777 -41 777 -41 543 -41 c 0,11,12
 305 -41 305 -41 187.5 115 c 128,-1,13
 70 271 70 271 70 545 c 0,14,15
 70 947 70 947 308 1170 c 128,-1,16
 546 1393 546 1393 969 1393 c 0,17,18
 1423 1393 1423 1393 1423 1155 c 0,19,20
 1423 1036 1423 1036 1325.5 955 c 128,-1,21
 1228 874 1228 874 1096 874 c 0,22,23
 1047 874 1047 874 1006 879 c 1,24,25
 1024 981 1024 981 1024 1061 c 0,26,27
 1024 1247 1024 1247 911 1247 c 0,28,29
 832 1247 832 1247 758.5 1140.5 c 128,-1,30
 685 1034 685 1034 642.5 878.5 c 128,-1,31
 600 723 600 723 600 575 c 0,32,33
 600 518 600 518 607.5 465 c 128,-1,34
 615 412 615 412 633.5 354 c 128,-1,35
 652 296 652 296 692.5 260.5 c 128,-1,36
 733 225 733 225 791 225 c 0,37,38
 825 225 825 225 858.5 237 c 128,-1,39
 892 249 892 249 903 272 c 1,40,-1
 969 674 l 1,41,-1
 1458 711 l 1,0,1
1268 1411 m 1,42,-1
 1016 1487 l 1,43,-1
 694 1411 l 1,44,-1
 627 1503 l 1,45,-1
 995 1749 l 1,46,-1
 1087 1749 l 1,47,-1
 1380 1503 l 1,48,-1
 1268 1411 l 1,42,-1
EndSplineSet
Validated: 8388609
Position2: "'cpsp' Capital Spacing lookup 3 subtable" dx=10 dy=0 dh=20 dv=0
EndChar

StartChar: Gcommaaccent
Encoding: 290 290 46
Width: 1441
Flags: MW
HStem: -41 266<379 810 709 1178> 1247 145<828 951>
VStem: 70 530<512 723 512 813> 436 326<-321 -234> 907 393 1024 399<1074 1118>
LayerCount: 2
UndoRedoHistory
Layer: 1
Undoes
EndUndoes
Redoes
EndRedoes
EndUndoRedoHistory
Fore
SplineSet
762 -233 m 0,0,1
 762 -309 762 -309 722 -372.5 c 128,-1,2
 682 -436 682 -436 621.5 -473.5 c 128,-1,3
 561 -511 561 -511 498 -531 c 128,-1,4
 435 -551 435 -551 381 -551 c 0,5,6
 349 -551 349 -551 305 -537 c 1,7,8
 382 -459 382 -459 409 -404 c 128,-1,9
 436 -349 436 -349 436 -254 c 0,10,11
 436 -226 436 -226 429 -190.5 c 128,-1,12
 422 -155 422 -155 414 -139 c 1,13,14
 515 -106 515 -106 580 -106 c 0,15,16
 762 -106 762 -106 762 -233 c 0,0,1
1458 711 m 1,17,18
 1300 363 1300 363 1300 13 c 0,19,20
 1300 6 1300 6 1300 0 c 1,21,22
 1228 -41 1228 -41 1147 -41 c 0,23,24
 1047 -41 1047 -41 979 2 c 128,-1,25
 911 45 911 45 907 86 c 1,26,27
 777 -41 777 -41 543 -41 c 0,28,29
 305 -41 305 -41 187.5 115 c 128,-1,30
 70 271 70 271 70 545 c 0,31,32
 70 947 70 947 308 1170 c 128,-1,33
 546 1393 546 1393 969 1393 c 0,34,35
 1423 1393 1423 1393 1423 1155 c 0,36,37
 1423 1036 1423 1036 1325.5 955 c 128,-1,38
 1228 874 1228 874 1096 874 c 0,39,40
 1047 874 1047 874 1006 879 c 1,41,42
 1024 981 1024 981 1024 1061 c 0,43,44
 1024 1247 1024 1247 911 1247 c 0,45,46
 832 1247 832 1247 758.5 1140.5 c 128,-1,47
 685 1034 685 1034 642.5 878.5 c 128,-1,48
 600 723 600 723 600 575 c 0,49,50
 600 518 600 518 607.5 465 c 128,-1,51
 615 412 615 412 633.5 354 c 128,-1,52
 652 296 652 296 692.5 260.5 c 128,-1,53
 733 225 733 225 791 225 c 0,54,55
 825 225 825 225 858.5 237 c 128,-1,56
 892 249 892 249 903 272 c 1,57,-1
 969 674 l 1,58,-1
 1458 711 l 1,17,18
EndSplineSet
Validated: 8388609
Position2: "'cpsp' Capital Spacing lookup 3 subtable" dx=10 dy=0 dh=20 dv=0
EndChar

StartChar: Gdotaccent
Encoding: 288 288 47
Width: 1441
Flags: MW
HStem: -41 266<379 810 709 1178> 1247 145<828 951> 1413 346<920 1052>
VStem: 70 530<512 723 512 813> 739 485<1529 1636> 907 393 1024 399<1074 1118>
LayerCount: 2
UndoRedoHistory
Layer: 1
Undoes
EndUndoes
Redoes
EndRedoes
EndUndoRedoHistory
Fore
SplineSet
1458 711 m 1,0,1
 1300 363 1300 363 1300 13 c 0,2,3
 1300 6 1300 6 1300 0 c 1,4,5
 1228 -41 1228 -41 1147 -41 c 0,6,7
 1047 -41 1047 -41 979 2 c 128,-1,8
 911 45 911 45 907 86 c 1,9,10
 777 -41 777 -41 543 -41 c 0,11,12
 305 -41 305 -41 187.5 115 c 128,-1,13
 70 271 70 271 70 545 c 0,14,15
 70 947 70 947 308 1170 c 128,-1,16
 546 1393 546 1393 969 1393 c 0,17,18
 1423 1393 1423 1393 1423 1155 c 0,19,20
 1423 1036 1423 1036 1325.5 955 c 128,-1,21
 1228 874 1228 874 1096 874 c 0,22,23
 1047 874 1047 874 1006 879 c 1,24,25
 1024 981 1024 981 1024 1061 c 0,26,27
 1024 1247 1024 1247 911 1247 c 0,28,29
 832 1247 832 1247 758.5 1140.5 c 128,-1,30
 685 1034 685 1034 642.5 878.5 c 128,-1,31
 600 723 600 723 600 575 c 0,32,33
 600 518 600 518 607.5 465 c 128,-1,34
 615 412 615 412 633.5 354 c 128,-1,35
 652 296 652 296 692.5 260.5 c 128,-1,36
 733 225 733 225 791 225 c 0,37,38
 825 225 825 225 858.5 237 c 128,-1,39
 892 249 892 249 903 272 c 1,40,-1
 969 674 l 1,41,-1
 1458 711 l 1,0,1
989 1759 m 0,42,43
 1094 1759 1094 1759 1159.5 1711.5 c 128,-1,44
 1225 1664 1225 1664 1225 1585 c 0,45,46
 1225 1503 1225 1503 1157.5 1458 c 128,-1,47
 1090 1413 1090 1413 981 1413 c 128,-1,48
 872 1413 872 1413 805.5 1457 c 128,-1,49
 739 1501 739 1501 739 1581 c 0,50,51
 739 1662 739 1662 810.5 1710.5 c 128,-1,52
 882 1759 882 1759 989 1759 c 0,42,43
EndSplineSet
Validated: 8388609
Position2: "'cpsp' Capital Spacing lookup 3 subtable" dx=10 dy=0 dh=20 dv=0
EndChar

StartChar: H
Encoding: 72 72 48
Width: 1427
Flags: MW
HStem: 580 172<645 846 610 879> 1311 41G<238 762 762 762 989 1516 1516 1516>
VStem: -23 1538<0 1352>
LayerCount: 2
UndoRedoHistory
Layer: 1
Undoes
EndUndoes
Redoes
EndRedoes
EndUndoRedoHistory
Fore
SplineSet
1329 393 m 1,0,1
 1307 257 1307 257 1307 186 c 0,2,3
 1307 140 1307 140 1316 98 c 128,-1,4
 1325 56 1325 56 1335 39 c 1,5,6
 1277 0 1277 0 1202 -20.5 c 128,-1,7
 1127 -41 1127 -41 1055 -41 c 0,8,9
 927 -41 927 -41 861 23.5 c 128,-1,10
 795 88 795 88 795 195 c 0,11,12
 795 234 795 234 813 383 c 1,13,-1
 846 580 l 1,14,-1
 610 580 l 1,15,-1
 498 0 l 1,16,-1
 -23 0 l 1,17,-1
 238 1352 l 1,18,-1
 762 1352 l 1,19,-1
 645 752 l 1,20,-1
 879 752 l 1,21,-1
 989 1352 l 1,22,-1
 1516 1352 l 1,23,-1
 1329 393 l 1,0,1
EndSplineSet
Validated: 1
Position2: "'cpsp' Capital Spacing lookup 3 subtable" dx=10 dy=0 dh=20 dv=0
EndChar

StartChar: Hbar
Encoding: 294 294 49
Width: 1458
Flags: MW
HStem: 580 172<625 825 590 858> 1030 199<45 195 45 195 717 909> 1030 322<45 741 45 741 678 678 678 741 217 909 1434 1434>
VStem: -43 1622<0 1179>
LayerCount: 2
UndoRedoHistory
Layer: 1
Undoes
EndUndoes
Redoes
EndRedoes
EndUndoRedoHistory
Fore
SplineSet
909 1030 m 1,0,-1
 678 1030 l 1,1,-1
 625 752 l 1,2,-1
 858 752 l 1,3,-1
 909 1030 l 1,0,-1
1309 393 m 1,4,5
 1286 251 1286 251 1286 186 c 0,6,7
 1286 140 1286 140 1295.5 98 c 128,-1,8
 1305 56 1305 56 1315 39 c 1,9,10
 1257 0 1257 0 1181.5 -20.5 c 128,-1,11
 1106 -41 1106 -41 1034 -41 c 0,12,13
 906 -41 906 -41 840 23.5 c 128,-1,14
 774 88 774 88 774 195 c 0,15,16
 774 226 774 226 793 383 c 1,17,-1
 825 580 l 1,18,-1
 590 580 l 1,19,-1
 477 0 l 1,20,-1
 -43 0 l 1,21,-1
 156 1030 l 1,22,-1
 45 1030 l 1,23,24
 37 1050 37 1050 37 1090 c 0,25,26
 38 1151 38 1151 79.5 1190 c 128,-1,27
 121 1229 121 1229 184 1229 c 2,28,-1
 195 1229 l 1,29,-1
 217 1352 l 1,30,-1
 741 1352 l 1,31,-1
 717 1229 l 1,32,-1
 944 1229 l 1,33,-1
 969 1352 l 1,34,-1
 1495 1352 l 1,35,-1
 1470 1229 l 1,36,-1
 1571 1229 l 1,37,38
 1579 1193 1579 1193 1579 1167 c 0,39,40
 1579 1110 1579 1110 1542 1072 c 128,-1,41
 1505 1034 1505 1034 1434 1030 c 1,42,-1
 1309 393 l 1,4,5
EndSplineSet
Validated: 8388609
Position2: "'cpsp' Capital Spacing lookup 3 subtable" dx=10 dy=0 dh=20 dv=0
EndChar

StartChar: Hcircumflex
Encoding: 292 292 50
Width: 1427
Flags: MW
HStem: 580 172<645 846 610 879> 1311 41G<238 762 762 762 989 1516 1516 1516>
VStem: -23 1538<0 1352>
LayerCount: 2
UndoRedoHistory
Layer: 1
Undoes
EndUndoes
Redoes
EndRedoes
EndUndoRedoHistory
Fore
SplineSet
1329 393 m 1,0,1
 1307 257 1307 257 1307 186 c 0,2,3
 1307 140 1307 140 1316 98 c 128,-1,4
 1325 56 1325 56 1335 39 c 1,5,6
 1277 0 1277 0 1202 -20.5 c 128,-1,7
 1127 -41 1127 -41 1055 -41 c 0,8,9
 927 -41 927 -41 861 23.5 c 128,-1,10
 795 88 795 88 795 195 c 0,11,12
 795 234 795 234 813 383 c 1,13,-1
 846 580 l 1,14,-1
 610 580 l 1,15,-1
 498 0 l 1,16,-1
 -23 0 l 1,17,-1
 238 1352 l 1,18,-1
 762 1352 l 1,19,-1
 645 752 l 1,20,-1
 879 752 l 1,21,-1
 989 1352 l 1,22,-1
 1516 1352 l 1,23,-1
 1329 393 l 1,0,1
1196 1411 m 1,24,-1
 944 1487 l 1,25,-1
 623 1411 l 1,26,-1
 555 1503 l 1,27,-1
 924 1749 l 1,28,-1
 1016 1749 l 1,29,-1
 1309 1503 l 1,30,-1
 1196 1411 l 1,24,-1
EndSplineSet
Validated: 1
Position2: "'cpsp' Capital Spacing lookup 3 subtable" dx=10 dy=0 dh=20 dv=0
EndChar

StartChar: Hdotbelow
Encoding: 7716 7716 51
Width: 1427
Flags: MW
HStem: -412 346<551 683> 580 172<645 846 610 879> 1311 41G<238 762 762 762 989 1516 1516 1516>
VStem: -23 1538<0 1352> 371 485<-296 -188>
LayerCount: 2
UndoRedoHistory
Layer: 1
Undoes
EndUndoes
Redoes
EndRedoes
EndUndoRedoHistory
Fore
SplineSet
621 -66 m 0,0,1
 726 -66 726 -66 791 -113.5 c 128,-1,2
 856 -161 856 -161 856 -240 c 0,3,4
 856 -322 856 -322 788.5 -367 c 128,-1,5
 721 -412 721 -412 612 -412 c 128,-1,6
 503 -412 503 -412 437 -368 c 128,-1,7
 371 -324 371 -324 371 -244 c 0,8,9
 371 -163 371 -163 442.5 -114.5 c 128,-1,10
 514 -66 514 -66 621 -66 c 0,0,1
1329 393 m 1,11,12
 1307 257 1307 257 1307 186 c 0,13,14
 1307 140 1307 140 1316 98 c 128,-1,15
 1325 56 1325 56 1335 39 c 1,16,17
 1277 0 1277 0 1202 -20.5 c 128,-1,18
 1127 -41 1127 -41 1055 -41 c 0,19,20
 927 -41 927 -41 861 23.5 c 128,-1,21
 795 88 795 88 795 195 c 0,22,23
 795 234 795 234 813 383 c 1,24,-1
 846 580 l 1,25,-1
 610 580 l 1,26,-1
 498 0 l 1,27,-1
 -23 0 l 1,28,-1
 238 1352 l 1,29,-1
 762 1352 l 1,30,-1
 645 752 l 1,31,-1
 879 752 l 1,32,-1
 989 1352 l 1,33,-1
 1516 1352 l 1,34,-1
 1329 393 l 1,11,12
EndSplineSet
Validated: 8388609
Position2: "'cpsp' Capital Spacing lookup 3 subtable" dx=10 dy=0 dh=20 dv=0
EndChar

StartChar: I
Encoding: 73 73 52
Width: 694
Flags: MW
HStem: 1311 41G<238 791 791 791>
VStem: -23 813
LayerCount: 2
UndoRedoHistory
Layer: 1
Undoes
EndUndoes
Redoes
EndRedoes
EndUndoRedoHistory
Fore
SplineSet
526 0 m 1,0,-1
 -23 0 l 1,1,-1
 238 1352 l 1,2,-1
 791 1352 l 1,3,-1
 526 0 l 1,0,-1
EndSplineSet
Validated: 1
Position2: "'cpsp' Capital Spacing lookup 3 subtable" dx=10 dy=0 dh=20 dv=0
EndChar

StartChar: IJ
Encoding: 306 306 53
Width: 1388
Flags: MW
HStem: 1311 41G<238 791 791 791 938 1481 1481 1481>
VStem: -23 1503<0 1352>
LayerCount: 2
UndoRedoHistory
Layer: 1
Undoes
EndUndoes
Redoes
EndRedoes
EndUndoRedoHistory
Fore
SplineSet
1300 403 m 2,0,1
 1254 161 1254 161 1197 1 c 128,-1,2
 1140 -159 1140 -159 1063.5 -252 c 128,-1,3
 987 -345 987 -345 897.5 -382.5 c 128,-1,4
 808 -420 808 -420 686 -420 c 0,5,6
 455 -420 455 -420 403 -299 c 1,7,8
 495 -261 495 -261 528 -235 c 0,9,10
 598 -180 598 -180 648 -38 c 0,11,12
 698 105 698 105 760 422 c 1,13,-1
 938 1352 l 1,14,-1
 1481 1352 l 1,15,-1
 1300 403 l 2,0,1
-23 0 m 1,16,-1
 238 1352 l 1,17,-1
 791 1352 l 1,18,-1
 526 0 l 1,19,-1
 -23 0 l 1,16,-1
EndSplineSet
Validated: 1
Position2: "'cpsp' Capital Spacing lookup 3 subtable" dx=10 dy=0 dh=20 dv=0
EndChar

StartChar: Iacute
Encoding: 205 205 54
Width: 694
Flags: MW
HStem: 1311 41G<238 791 791 791>
VStem: -23 971
LayerCount: 2
UndoRedoHistory
Layer: 1
Undoes
EndUndoes
Redoes
EndRedoes
EndUndoRedoHistory
Fore
SplineSet
-23 0 m 1,0,-1
 238 1352 l 1,1,-1
 791 1352 l 1,2,-1
 526 0 l 1,3,-1
 -23 0 l 1,0,-1
373 1556 m 1,4,-1
 885 1780 l 1,5,6
 917 1754 917 1754 932.5 1727.5 c 128,-1,7
 948 1701 948 1701 948 1659 c 0,8,9
 948 1559 948 1559 864 1509.5 c 128,-1,10
 780 1460 780 1460 647 1458 c 1,11,-1
 401 1452 l 1,12,-1
 373 1556 l 1,4,-1
EndSplineSet
Validated: 1
Position2: "'cpsp' Capital Spacing lookup 3 subtable" dx=10 dy=0 dh=20 dv=0
EndChar

StartChar: Ibreve
Encoding: 300 300 55
Width: 694
Flags: MW
HStem: 1311 41G<238 791 791 791> 1434 272<386 510 657 665>
VStem: 141 358<1593 1595 1576 1660>
LayerCount: 2
UndoRedoHistory
Layer: 1
Undoes
EndUndoes
Redoes
EndRedoes
EndUndoRedoHistory
Fore
SplineSet
-23 0 m 1,0,-1
 238 1352 l 1,1,-1
 791 1352 l 1,2,-1
 526 0 l 1,3,-1
 -23 0 l 1,0,-1
510 1706 m 1,4,5
 502 1648 502 1648 502 1622 c 0,6,7
 502 1618 502 1618 501 1607 c 128,-1,8
 500 1596 500 1596 500 1589 c 0,9,10
 500 1534 500 1534 557 1534 c 0,11,12
 574 1534 574 1534 587.5 1541.5 c 128,-1,13
 601 1549 601 1549 609.5 1559.5 c 128,-1,14
 618 1570 618 1570 625.5 1589.5 c 128,-1,15
 633 1609 633 1609 637 1624.5 c 128,-1,16
 641 1640 641 1640 647 1665.5 c 128,-1,17
 653 1691 653 1691 657 1706 c 1,18,-1
 1008 1706 l 1,19,20
 982 1586 982 1586 855 1510 c 128,-1,21
 728 1434 728 1434 524 1434 c 0,22,23
 329 1434 329 1434 235 1495.5 c 128,-1,24
 141 1557 141 1557 141 1651 c 0,25,26
 141 1676 141 1676 147 1706 c 1,27,-1
 510 1706 l 1,4,5
EndSplineSet
Validated: 1
Position2: "'cpsp' Capital Spacing lookup 3 subtable" dx=10 dy=0 dh=20 dv=0
EndChar

StartChar: Icircumflex
Encoding: 206 206 56
Width: 694
Flags: MW
HStem: 1311 41G<238 791 791 791>
VStem: -23 977
LayerCount: 2
UndoRedoHistory
Layer: 1
Undoes
EndUndoes
Redoes
EndRedoes
EndUndoRedoHistory
Fore
SplineSet
-23 0 m 1,0,-1
 238 1352 l 1,1,-1
 791 1352 l 1,2,-1
 526 0 l 1,3,-1
 -23 0 l 1,0,-1
842 1411 m 1,4,-1
 590 1487 l 1,5,-1
 268 1411 l 1,6,-1
 201 1503 l 1,7,-1
 569 1749 l 1,8,-1
 662 1749 l 1,9,-1
 954 1503 l 1,10,-1
 842 1411 l 1,4,-1
EndSplineSet
Validated: 1
Position2: "'cpsp' Capital Spacing lookup 3 subtable" dx=10 dy=0 dh=20 dv=0
EndChar

StartChar: Idieresis
Encoding: 207 207 57
Width: 694
Flags: MW
HStem: 1311 41G<238 791 791 791> 1413 346<227 359 737 869>
VStem: 47 485<1529 1636> 557 485<1529 1636>
LayerCount: 2
UndoRedoHistory
Layer: 1
Undoes
EndUndoes
Redoes
EndRedoes
EndUndoRedoHistory
Fore
SplineSet
-23 0 m 1,0,-1
 238 1352 l 1,1,-1
 791 1352 l 1,2,-1
 526 0 l 1,3,-1
 -23 0 l 1,0,-1
807 1759 m 0,4,5
 912 1759 912 1759 977 1711.5 c 128,-1,6
 1042 1664 1042 1664 1042 1585 c 0,7,8
 1042 1503 1042 1503 975 1458 c 128,-1,9
 908 1413 908 1413 799 1413 c 128,-1,10
 690 1413 690 1413 623.5 1457 c 128,-1,11
 557 1501 557 1501 557 1581 c 0,12,13
 557 1662 557 1662 628.5 1710.5 c 128,-1,14
 700 1759 700 1759 807 1759 c 0,4,5
297 1759 m 0,15,16
 402 1759 402 1759 467 1711.5 c 128,-1,17
 532 1664 532 1664 532 1585 c 0,18,19
 532 1503 532 1503 465 1458 c 128,-1,20
 398 1413 398 1413 289 1413 c 128,-1,21
 180 1413 180 1413 113.5 1457 c 128,-1,22
 47 1501 47 1501 47 1581 c 0,23,24
 47 1662 47 1662 118.5 1710.5 c 128,-1,25
 190 1759 190 1759 297 1759 c 0,15,16
EndSplineSet
Validated: 1
Position2: "'cpsp' Capital Spacing lookup 3 subtable" dx=10 dy=0 dh=20 dv=0
EndChar

StartChar: Idotaccent
Encoding: 304 304 58
Width: 694
Flags: MW
HStem: 1311 41G<238 791 791 791> 1413 346<494 626>
VStem: 313 485<1529 1636>
LayerCount: 2
UndoRedoHistory
Layer: 1
Undoes
EndUndoes
Redoes
EndRedoes
EndUndoRedoHistory
Fore
SplineSet
-23 0 m 1,0,-1
 238 1352 l 1,1,-1
 791 1352 l 1,2,-1
 526 0 l 1,3,-1
 -23 0 l 1,0,-1
563 1759 m 0,4,5
 668 1759 668 1759 733.5 1711.5 c 128,-1,6
 799 1664 799 1664 799 1585 c 0,7,8
 799 1503 799 1503 731.5 1458 c 128,-1,9
 664 1413 664 1413 555 1413 c 128,-1,10
 446 1413 446 1413 379.5 1457 c 128,-1,11
 313 1501 313 1501 313 1581 c 0,12,13
 313 1662 313 1662 384.5 1710.5 c 128,-1,14
 456 1759 456 1759 563 1759 c 0,4,5
EndSplineSet
Validated: 1
Position2: "'cpsp' Capital Spacing lookup 3 subtable" dx=10 dy=0 dh=20 dv=0
EndChar

StartChar: Idotbelow
Encoding: 7882 7882 59
Width: 694
Flags: MW
HStem: -412 346<162 294> 1311 41G<238 791 791 791>
VStem: -23 813 -18 485<-296 -188>
LayerCount: 2
UndoRedoHistory
Layer: 1
Undoes
EndUndoes
Redoes
EndRedoes
EndUndoRedoHistory
Fore
SplineSet
231 -66 m 0,0,1
 336 -66 336 -66 401.5 -113.5 c 128,-1,2
 467 -161 467 -161 467 -240 c 0,3,4
 467 -322 467 -322 399.5 -367 c 128,-1,5
 332 -412 332 -412 223 -412 c 128,-1,6
 114 -412 114 -412 48 -368 c 128,-1,7
 -18 -324 -18 -324 -18 -244 c 0,8,9
 -18 -163 -18 -163 53 -114.5 c 128,-1,10
 124 -66 124 -66 231 -66 c 0,0,1
-23 0 m 1,11,-1
 238 1352 l 1,12,-1
 791 1352 l 1,13,-1
 526 0 l 1,14,-1
 -23 0 l 1,11,-1
EndSplineSet
Validated: 8388609
Position2: "'cpsp' Capital Spacing lookup 3 subtable" dx=10 dy=0 dh=20 dv=0
EndChar

StartChar: Igrave
Encoding: 204 204 60
Width: 694
Flags: MW
HStem: 1311 41G<238 791 791 791> 1457 103
VStem: -23 823
LayerCount: 2
UndoRedoHistory
Layer: 1
Undoes
EndUndoes
Redoes
EndRedoes
EndUndoRedoHistory
Fore
SplineSet
-23 0 m 1,0,-1
 238 1352 l 1,1,-1
 791 1352 l 1,2,-1
 526 0 l 1,3,-1
 -23 0 l 1,0,-1
772 1454 m 1,4,-1
 524 1460 l 2,5,6
 439 1462 439 1462 374 1482 c 128,-1,7
 309 1502 309 1502 267 1548 c 128,-1,8
 225 1594 225 1594 225 1663 c 0,9,10
 225 1734 225 1734 289 1782 c 1,11,-1
 801 1561 l 1,12,-1
 772 1454 l 1,4,-1
EndSplineSet
Validated: 1
Position2: "'cpsp' Capital Spacing lookup 3 subtable" dx=10 dy=0 dh=20 dv=0
EndChar

StartChar: Imacron
Encoding: 298 298 61
Width: 694
Flags: MW
HStem: 1311 41G<238 791 791 791> 1520 197<379 741 240 897>
VStem: -23 928
LayerCount: 2
UndoRedoHistory
Layer: 1
Undoes
EndUndoes
Redoes
EndRedoes
EndUndoRedoHistory
Fore
SplineSet
-23 0 m 1,0,-1
 238 1352 l 1,1,-1
 791 1352 l 1,2,-1
 526 0 l 1,3,-1
 -23 0 l 1,0,-1
897 1716 m 1,4,5
 905 1684 905 1684 905 1655 c 0,6,7
 905 1596 905 1596 863 1558 c 128,-1,8
 821 1520 821 1520 741 1520 c 2,9,-1
 240 1520 l 1,10,11
 233 1541 233 1541 233 1577 c 0,12,13
 234 1638 234 1638 275.5 1677 c 128,-1,14
 317 1716 317 1716 379 1716 c 2,15,-1
 897 1716 l 1,4,5
EndSplineSet
Validated: 1
Position2: "'cpsp' Capital Spacing lookup 3 subtable" dx=10 dy=0 dh=20 dv=0
EndChar

StartChar: Iogonek
Encoding: 302 302 62
Width: 694
Flags: MW
HStem: -528 203<413 434> 1311 41G<238 791 791 791>
VStem: 84 270<-268 -238>
LayerCount: 2
UndoRedoHistory
Layer: 1
Undoes
EndUndoes
Redoes
EndRedoes
EndUndoRedoHistory
Fore
SplineSet
502 0 m 1,0,1
 354 -114 354 -114 354 -236 c 0,2,3
 354 -284 354 -284 375.5 -305 c 128,-1,4
 397 -326 397 -326 440 -326 c 0,5,6
 519 -326 519 -326 563 -274 c 1,7,8
 602 -330 602 -330 602 -397 c 0,9,10
 602 -453 602 -453 536.5 -490.5 c 128,-1,11
 471 -528 471 -528 346 -528 c 128,-1,12
 221 -528 221 -528 152.5 -473.5 c 128,-1,13
 84 -419 84 -419 84 -315 c 0,14,15
 84 -104 84 -104 303 0 c 1,16,-1
 -23 0 l 1,17,-1
 238 1352 l 1,18,-1
 791 1352 l 1,19,-1
 530 20 l 1,20,-1
 526 0 l 1,21,-1
 502 0 l 1,0,1
EndSplineSet
Validated: 1
Position2: "'cpsp' Capital Spacing lookup 3 subtable" dx=10 dy=0 dh=20 dv=0
EndChar

StartChar: Itilde
Encoding: 296 296 63
Width: 694
Flags: MW
HStem: 1311 41G<238 791 791 791> 1477 244<781 856 781 856> 1516 240<300 371>
VStem: -23 1028
LayerCount: 2
UndoRedoHistory
Layer: 1
Undoes
EndUndoes
Redoes
EndRedoes
EndUndoRedoHistory
Fore
SplineSet
-23 0 m 1,0,-1
 238 1352 l 1,1,-1
 791 1352 l 1,2,-1
 526 0 l 1,3,-1
 -23 0 l 1,0,-1
963 1755 m 1,4,5
 1006 1704 1006 1704 1006 1640 c 0,6,7
 1006 1561 1006 1561 948.5 1519 c 128,-1,8
 891 1477 891 1477 788 1477 c 0,9,10
 730 1477 730 1477 549 1496.5 c 128,-1,11
 368 1516 368 1516 330 1516 c 0,12,13
 289 1516 289 1516 246 1504.5 c 128,-1,14
 203 1493 203 1493 182 1479 c 1,15,16
 137 1539 137 1539 137 1606 c 0,17,18
 137 1678 137 1678 194 1716.5 c 128,-1,19
 251 1755 251 1755 358 1755 c 0,20,21
 423 1755 423 1755 603.5 1737.5 c 128,-1,22
 784 1720 784 1720 829 1720 c 0,23,24
 925 1720 925 1720 963 1755 c 1,4,5
EndSplineSet
Validated: 8388609
Position2: "'cpsp' Capital Spacing lookup 3 subtable" dx=10 dy=0 dh=20 dv=0
EndChar

StartChar: J
Encoding: 74 74 64
Width: 694
Flags: MW
HStem: 1311 41G<244 786 786 786>
VStem: -291 1077
LayerCount: 2
UndoRedoHistory
Layer: 1
Undoes
EndUndoes
Redoes
EndRedoes
EndUndoRedoHistory
Fore
SplineSet
606 403 m 2,0,1
 560 161 560 161 503 1 c 128,-1,2
 446 -159 446 -159 369.5 -252 c 128,-1,3
 293 -345 293 -345 203.5 -382.5 c 128,-1,4
 114 -420 114 -420 -8 -420 c 0,5,6
 -239 -420 -239 -420 -291 -299 c 1,7,8
 -199 -261 -199 -261 -166 -235 c 0,9,10
 -96 -180 -96 -180 -46 -38 c 0,11,12
 4 105 4 105 66 422 c 1,13,-1
 244 1352 l 1,14,-1
 786 1352 l 1,15,-1
 606 403 l 2,0,1
EndSplineSet
Validated: 1
Position2: "'cpsp' Capital Spacing lookup 3 subtable" dx=10 dy=0 dh=20 dv=0
EndChar

StartChar: Jcircumflex
Encoding: 308 308 65
Width: 694
Flags: MW
HStem: 1311 41G<244 786 786 786>
VStem: -291 1233
LayerCount: 2
UndoRedoHistory
Layer: 1
Undoes
EndUndoes
Redoes
EndRedoes
EndUndoRedoHistory
Fore
SplineSet
606 403 m 2,0,1
 560 161 560 161 503 1 c 128,-1,2
 446 -159 446 -159 369.5 -252 c 128,-1,3
 293 -345 293 -345 203.5 -382.5 c 128,-1,4
 114 -420 114 -420 -8 -420 c 0,5,6
 -239 -420 -239 -420 -291 -299 c 1,7,8
 -199 -261 -199 -261 -166 -235 c 0,9,10
 -96 -180 -96 -180 -46 -38 c 0,11,12
 4 105 4 105 66 422 c 1,13,-1
 244 1352 l 1,14,-1
 786 1352 l 1,15,-1
 606 403 l 2,0,1
829 1411 m 1,16,-1
 578 1487 l 1,17,-1
 256 1411 l 1,18,-1
 188 1503 l 1,19,-1
 557 1749 l 1,20,-1
 649 1749 l 1,21,-1
 942 1503 l 1,22,-1
 829 1411 l 1,16,-1
EndSplineSet
Validated: 1
Position2: "'cpsp' Capital Spacing lookup 3 subtable" dx=10 dy=0 dh=20 dv=0
EndChar

StartChar: K
Encoding: 75 75 66
Width: 1531
Flags: MW
HStem: 1311 41G<240 774 774 774 1186 1724 1724 1724>
VStem: -16 1741<0 1352>
LayerCount: 2
UndoRedoHistory
Layer: 1
Undoes
EndUndoes
Redoes
EndRedoes
EndUndoRedoHistory
Fore
SplineSet
1724 1352 m 1,0,1
 1640 1268 1640 1268 1560 1183 c 128,-1,2
 1480 1098 1480 1098 1424.5 1036.5 c 128,-1,3
 1369 975 1369 975 1313.5 909.5 c 128,-1,4
 1258 844 1258 844 1230.5 810 c 128,-1,5
 1203 776 1203 776 1169 733.5 c 128,-1,6
 1135 691 1135 691 1133 688 c 1,7,8
 1229 248 1229 248 1421 145 c 1,9,10
 1358 -41 1358 -41 1137 -41 c 0,11,12
 1066 -41 1066 -41 1007.5 -20 c 128,-1,13
 949 1 949 1 906 36 c 128,-1,14
 863 71 863 71 829 125 c 128,-1,15
 795 179 795 179 772.5 237 c 128,-1,16
 750 295 750 295 732.5 371 c 128,-1,17
 715 447 715 447 705.5 516.5 c 128,-1,18
 696 586 696 586 688 672 c 1,19,-1
 1186 1352 l 1,20,-1
 1724 1352 l 1,0,1
516 0 m 1,21,-1
 -16 0 l 1,22,23
 186 1121 186 1121 240 1352 c 1,24,-1
 774 1352 l 1,25,-1
 516 0 l 1,21,-1
EndSplineSet
Validated: 1
Position2: "'cpsp' Capital Spacing lookup 3 subtable" dx=10 dy=0 dh=20 dv=0
EndChar

StartChar: Kcommaaccent
Encoding: 310 310 67
Width: 1531
Flags: MW
HStem: 1311 41G<240 774 774 774 1186 1724 1724 1724>
VStem: 479 326<-321 -234>
LayerCount: 2
UndoRedoHistory
Layer: 1
Undoes
EndUndoes
Redoes
EndRedoes
EndUndoRedoHistory
Fore
SplineSet
805 -233 m 0,0,1
 805 -309 805 -309 765 -372.5 c 128,-1,2
 725 -436 725 -436 664.5 -473.5 c 128,-1,3
 604 -511 604 -511 541 -531 c 128,-1,4
 478 -551 478 -551 424 -551 c 0,5,6
 392 -551 392 -551 348 -537 c 1,7,8
 425 -459 425 -459 452 -404 c 128,-1,9
 479 -349 479 -349 479 -254 c 0,10,11
 479 -226 479 -226 472 -190.5 c 128,-1,12
 465 -155 465 -155 457 -139 c 1,13,14
 558 -106 558 -106 623 -106 c 0,15,16
 805 -106 805 -106 805 -233 c 0,0,1
1724 1352 m 1,17,18
 1640 1268 1640 1268 1560 1183 c 128,-1,19
 1480 1098 1480 1098 1424.5 1036.5 c 128,-1,20
 1369 975 1369 975 1313.5 909.5 c 128,-1,21
 1258 844 1258 844 1230.5 810 c 128,-1,22
 1203 776 1203 776 1169 733.5 c 128,-1,23
 1135 691 1135 691 1133 688 c 1,24,25
 1229 248 1229 248 1421 145 c 1,26,27
 1358 -41 1358 -41 1137 -41 c 0,28,29
 1066 -41 1066 -41 1007.5 -20 c 128,-1,30
 949 1 949 1 906 36 c 128,-1,31
 863 71 863 71 829 125 c 128,-1,32
 795 179 795 179 772.5 237 c 128,-1,33
 750 295 750 295 732.5 371 c 128,-1,34
 715 447 715 447 705.5 516.5 c 128,-1,35
 696 586 696 586 688 672 c 1,36,-1
 1186 1352 l 1,37,-1
 1724 1352 l 1,17,18
-16 0 m 1,38,39
 186 1121 186 1121 240 1352 c 1,40,-1
 774 1352 l 1,41,-1
 516 0 l 1,42,-1
 -16 0 l 1,38,39
EndSplineSet
Validated: 1
Position2: "'cpsp' Capital Spacing lookup 3 subtable" dx=10 dy=0 dh=20 dv=0
EndChar

StartChar: L
Encoding: 76 76 68
Width: 1040
Flags: MW
HStem: 0 276<600 723> 1311 41G<238 786 786 786>
VStem: -4 1004<0 188>
LayerCount: 2
UndoRedoHistory
Layer: 1
Undoes
EndUndoes
Redoes
EndRedoes
EndUndoRedoHistory
Fore
SplineSet
238 1352 m 1,0,-1
 786 1352 l 1,1,-1
 600 276 l 1,2,-1
 748 276 l 2,3,4
 878 276 878 276 971 295 c 1,5,6
 999 260 999 260 999 172 c 0,7,8
 999 121 999 121 977 85.5 c 128,-1,9
 955 50 955 50 914 32 c 128,-1,10
 873 14 873 14 827.5 7 c 128,-1,11
 782 0 782 0 723 0 c 2,12,-1
 -4 0 l 1,13,-1
 238 1352 l 1,0,-1
EndSplineSet
Validated: 1
Position2: "'cpsp' Capital Spacing lookup 3 subtable" dx=10 dy=0 dh=20 dv=0
EndChar

StartChar: LJ
Encoding: 455 455 69
Width: 1734
Flags: MW
HStem: 0 276<600 723> 1311 41G<238 786 786 786 1284 1827 1827 1827>
VStem: -4 1831<0 1352>
LayerCount: 2
UndoRedoHistory
Layer: 1
Undoes
EndUndoes
Redoes
EndRedoes
EndUndoRedoHistory
Fore
SplineSet
1647 403 m 2,0,1
 1610 209 1610 209 1565.5 68 c 128,-1,2
 1521 -73 1521 -73 1468 -167 c 128,-1,3
 1415 -261 1415 -261 1347.5 -317 c 128,-1,4
 1280 -373 1280 -373 1204.5 -396.5 c 128,-1,5
 1129 -420 1129 -420 1032 -420 c 0,6,7
 802 -420 802 -420 750 -299 c 1,8,9
 841 -261 841 -261 875 -235 c 0,10,11
 945 -180 945 -180 994 -38 c 0,12,13
 1044 105 1044 105 1106 422 c 1,14,-1
 1284 1352 l 1,15,-1
 1827 1352 l 1,16,-1
 1647 403 l 2,0,1
786 1352 m 1,17,-1
 600 276 l 1,18,-1
 748 276 l 2,19,20
 878 276 878 276 971 295 c 1,21,22
 999 260 999 260 999 172 c 0,23,24
 999 121 999 121 977 85.5 c 128,-1,25
 955 50 955 50 914 32 c 128,-1,26
 873 14 873 14 827.5 7 c 128,-1,27
 782 0 782 0 723 0 c 2,28,-1
 -4 0 l 1,29,-1
 238 1352 l 1,30,-1
 786 1352 l 1,17,-1
EndSplineSet
Validated: 1
Position2: "'cpsp' Capital Spacing lookup 3 subtable" dx=10 dy=0 dh=20 dv=0
EndChar

StartChar: Lacute
Encoding: 313 313 70
Width: 1040
Flags: MW
HStem: 0 276<600 723> 1311 41G<238 786 786 786>
VStem: -4 1004<0 188>
LayerCount: 2
UndoRedoHistory
Layer: 1
Undoes
EndUndoes
Redoes
EndRedoes
EndUndoRedoHistory
Fore
SplineSet
786 1352 m 1,0,-1
 600 276 l 1,1,-1
 748 276 l 2,2,3
 878 276 878 276 971 295 c 1,4,5
 999 260 999 260 999 172 c 0,6,7
 999 121 999 121 977 85.5 c 128,-1,8
 955 50 955 50 914 32 c 128,-1,9
 873 14 873 14 827.5 7 c 128,-1,10
 782 0 782 0 723 0 c 2,11,-1
 -4 0 l 1,12,-1
 238 1352 l 1,13,-1
 786 1352 l 1,0,-1
369 1556 m 1,14,-1
 881 1780 l 1,15,16
 913 1754 913 1754 928.5 1727.5 c 128,-1,17
 944 1701 944 1701 944 1659 c 0,18,19
 944 1559 944 1559 860 1509.5 c 128,-1,20
 776 1460 776 1460 643 1458 c 1,21,-1
 397 1452 l 1,22,-1
 369 1556 l 1,14,-1
EndSplineSet
Validated: 1
Position2: "'cpsp' Capital Spacing lookup 3 subtable" dx=10 dy=0 dh=20 dv=0
EndChar

StartChar: Lcaron
Encoding: 317 317 71
Width: 1040
Flags: MW
HStem: 0 276<600 723> 1036 41G 1065 287<238 984> 1430 41G<999 1070>
VStem: 905 279<1283 1336>
LayerCount: 2
UndoRedoHistory
Layer: 1
Undoes
EndUndoes
Redoes
EndRedoes
EndUndoRedoHistory
Fore
SplineSet
786 1352 m 1,0,-1
 600 276 l 1,1,-1
 748 276 l 2,2,3
 878 276 878 276 971 295 c 1,4,5
 999 260 999 260 999 172 c 0,6,7
 999 121 999 121 977 85.5 c 128,-1,8
 955 50 955 50 914 32 c 128,-1,9
 873 14 873 14 827.5 7 c 128,-1,10
 782 0 782 0 723 0 c 2,11,-1
 -4 0 l 1,12,-1
 238 1352 l 1,13,-1
 786 1352 l 1,0,-1
887 1440 m 1,14,15
 954 1470 954 1470 1022 1470 c 0,16,17
 1095 1470 1095 1470 1139.5 1421.5 c 128,-1,18
 1184 1373 1184 1373 1184 1292 c 0,19,20
 1184 1259 1184 1259 1164 1221 c 128,-1,21
 1144 1183 1144 1183 1108.5 1147.5 c 128,-1,22
 1073 1112 1073 1112 1014.5 1088.5 c 128,-1,23
 956 1065 956 1065 889 1065 c 0,24,25
 861 1065 861 1065 813 1077 c 1,26,27
 854 1123 854 1123 875.5 1171.5 c 128,-1,28
 897 1220 897 1220 901 1247 c 128,-1,29
 905 1274 905 1274 905 1309 c 0,30,31
 905 1372 905 1372 887 1440 c 1,14,15
EndSplineSet
Validated: 8388609
Position2: "'cpsp' Capital Spacing lookup 3 subtable" dx=10 dy=0 dh=20 dv=0
EndChar

StartChar: Lcommaaccent
Encoding: 315 315 72
Width: 1040
Flags: MW
HStem: 0 276<600 723> 1311 41G<238 786 786 786>
VStem: 223 326<-321 -234>
LayerCount: 2
UndoRedoHistory
Layer: 1
Undoes
EndUndoes
Redoes
EndRedoes
EndUndoRedoHistory
Fore
SplineSet
549 -233 m 0,0,1
 549 -309 549 -309 509 -372.5 c 128,-1,2
 469 -436 469 -436 408.5 -473.5 c 128,-1,3
 348 -511 348 -511 285 -531 c 128,-1,4
 222 -551 222 -551 168 -551 c 0,5,6
 136 -551 136 -551 92 -537 c 1,7,8
 169 -459 169 -459 196 -404 c 128,-1,9
 223 -349 223 -349 223 -254 c 0,10,11
 223 -226 223 -226 216 -190.5 c 128,-1,12
 209 -155 209 -155 201 -139 c 1,13,14
 302 -106 302 -106 367 -106 c 0,15,16
 549 -106 549 -106 549 -233 c 0,0,1
786 1352 m 1,17,-1
 600 276 l 1,18,-1
 748 276 l 2,19,20
 878 276 878 276 971 295 c 1,21,22
 999 260 999 260 999 172 c 0,23,24
 999 121 999 121 977 85.5 c 128,-1,25
 955 50 955 50 914 32 c 128,-1,26
 873 14 873 14 827.5 7 c 128,-1,27
 782 0 782 0 723 0 c 2,28,-1
 -4 0 l 1,29,-1
 238 1352 l 1,30,-1
 786 1352 l 1,17,-1
EndSplineSet
Validated: 1
Position2: "'cpsp' Capital Spacing lookup 3 subtable" dx=10 dy=0 dh=20 dv=0
EndChar

StartChar: Ldot
Encoding: 319 319 73
Width: 1040
Flags: MW
HStem: 0 276<600 723> 492 301<868 905> 1311 41G<238 786 786 786>
VStem: -4 1044<0 709> 727 313<625 656>
LayerCount: 2
UndoRedoHistory
Layer: 1
Undoes
EndUndoes
Redoes
EndRedoes
EndUndoRedoHistory
Fore
SplineSet
920 793 m 0,0,1
 976 793 976 793 1008 760 c 128,-1,2
 1040 727 1040 727 1040 676 c 0,3,4
 1040 599 1040 599 985.5 545.5 c 128,-1,5
 931 492 931 492 852 492 c 0,6,7
 792 492 792 492 759.5 523.5 c 128,-1,8
 727 555 727 555 727 606 c 0,9,10
 727 681 727 681 785 737 c 128,-1,11
 843 793 843 793 920 793 c 0,0,1
786 1352 m 1,12,-1
 600 276 l 1,13,-1
 748 276 l 2,14,15
 878 276 878 276 971 295 c 1,16,17
 999 260 999 260 999 172 c 0,18,19
 999 121 999 121 977 85.5 c 128,-1,20
 955 50 955 50 914 32 c 128,-1,21
 873 14 873 14 827.5 7 c 128,-1,22
 782 0 782 0 723 0 c 2,23,-1
 -4 0 l 1,24,-1
 238 1352 l 1,25,-1
 786 1352 l 1,12,-1
EndSplineSet
Validated: 8388609
Ligature2: "Ligature Substitution lookup 20 subtable" L periodcentered
Position2: "'cpsp' Capital Spacing lookup 3 subtable" dx=10 dy=0 dh=20 dv=0
EndChar

StartChar: Lj
Encoding: 456 456 74
Width: 1675
Flags: MW
HStem: -410 168 0 276<600 723> 1190 362<1435 1573> 1311 41G<238 786 786 786>
VStem: -4 1759<0 1427>
LayerCount: 2
UndoRedoHistory
Layer: 1
Undoes
EndUndoes
Redoes
EndRedoes
EndUndoRedoHistory
Fore
SplineSet
1554 250 m 2,0,1
 1528 114 1528 114 1500 16 c 128,-1,2
 1472 -82 1472 -82 1432.5 -166.5 c 128,-1,3
 1393 -251 1393 -251 1342.5 -302 c 128,-1,4
 1292 -353 1292 -353 1223 -381.5 c 128,-1,5
 1154 -410 1154 -410 1065 -410 c 0,6,7
 956 -410 956 -410 877 -369.5 c 128,-1,8
 798 -329 798 -329 772 -242 c 1,9,10
 821 -240 821 -240 858.5 -221.5 c 128,-1,11
 896 -203 896 -203 925 -169 c 128,-1,12
 954 -135 954 -135 978 -74.5 c 128,-1,13
 1002 -14 1002 -14 1021 59.5 c 128,-1,14
 1040 133 1040 133 1061 242 c 2,15,-1
 1212 1044 l 1,16,-1
 1714 1094 l 1,17,-1
 1554 250 l 2,0,1
786 1352 m 1,18,-1
 600 276 l 1,19,-1
 748 276 l 2,20,21
 878 276 878 276 971 295 c 1,22,23
 999 260 999 260 999 172 c 0,24,25
 999 121 999 121 977 85.5 c 128,-1,26
 955 50 955 50 914 32 c 128,-1,27
 873 14 873 14 827.5 7 c 128,-1,28
 782 0 782 0 723 0 c 2,29,-1
 -4 0 l 1,30,-1
 238 1352 l 1,31,-1
 786 1352 l 1,18,-1
1507 1552 m 0,32,33
 1619 1552 1619 1552 1687 1503.5 c 128,-1,34
 1755 1455 1755 1455 1755 1370 c 0,35,36
 1755 1283 1755 1283 1684 1236.5 c 128,-1,37
 1613 1190 1613 1190 1499 1190 c 128,-1,38
 1385 1190 1385 1190 1315 1236 c 128,-1,39
 1245 1282 1245 1282 1245 1366 c 0,40,41
 1245 1452 1245 1452 1319.5 1502 c 128,-1,42
 1394 1552 1394 1552 1507 1552 c 0,32,33
EndSplineSet
Validated: 8388609
Position2: "'cpsp' Capital Spacing lookup 3 subtable" dx=10 dy=0 dh=20 dv=0
EndChar

StartChar: Lslash
Encoding: 321 321 75
Width: 1126
Flags: MW
HStem: 0 276<731 854> 1311 41G<369 918 918 918>
VStem: -8 1139<100 508>
LayerCount: 2
UndoRedoHistory
Layer: 1
Undoes
EndUndoes
Redoes
EndRedoes
EndUndoRedoHistory
Fore
SplineSet
879 276 m 2,0,1
 1009 276 1009 276 1102 295 c 1,2,3
 1130 260 1130 260 1130 172 c 0,4,5
 1130 121 1130 121 1108 85.5 c 128,-1,6
 1086 50 1086 50 1045 32 c 128,-1,7
 1004 14 1004 14 958.5 7 c 128,-1,8
 913 0 913 0 854 0 c 2,9,-1
 127 0 l 1,10,-1
 205 440 l 1,11,-1
 37 381 l 1,12,13
 -8 419 -8 419 -8 483 c 0,14,15
 -8 577 -8 577 90 612 c 2,16,-1
 246 668 l 1,17,-1
 369 1352 l 1,18,-1
 918 1352 l 1,19,-1
 836 885 l 1,20,-1
 993 942 l 1,21,22
 1036 905 1036 905 1036 834 c 0,23,24
 1036 782 1036 782 1000.5 746.5 c 128,-1,25
 965 711 965 711 883 682 c 2,26,-1
 797 651 l 1,27,-1
 731 276 l 1,28,-1
 879 276 l 2,0,1
EndSplineSet
Validated: 1
Position2: "'cpsp' Capital Spacing lookup 3 subtable" dx=10 dy=0 dh=20 dv=0
EndChar

StartChar: M
Encoding: 77 77 76
Width: 1687
Flags: MW
HStem: 1311 41G<272 760 760 760 1200 1661 1661 1661>
VStem: 1137 475<250 281 281 281> 1157 481
LayerCount: 2
UndoRedoHistory
Layer: 1
Undoes
EndUndoes
Redoes
EndRedoes
EndUndoRedoHistory
Fore
SplineSet
1661 1352 m 1,0,-1
 1616 416 l 1,1,2
 1612 354 1612 354 1612 299 c 0,3,4
 1612 130 1612 130 1688 84 c 1,5,6
 1661 30 1661 30 1580.5 -4.5 c 128,-1,7
 1500 -39 1500 -39 1395 -39 c 0,8,9
 1272 -39 1272 -39 1204.5 26.5 c 128,-1,10
 1137 92 1137 92 1137 215 c 0,11,12
 1137 221 1137 221 1136.5 234 c 128,-1,13
 1136 247 1136 247 1136 259 c 128,-1,14
 1136 271 1136 271 1137 281 c 2,15,-1
 1178 850 l 1,16,-1
 807 0 l 1,17,-1
 532 0 l 1,18,-1
 369 850 l 1,19,-1
 178 0 l 1,20,-1
 -74 0 l 1,21,-1
 272 1352 l 1,22,-1
 760 1352 l 1,23,-1
 893 686 l 1,24,-1
 1200 1352 l 1,25,-1
 1661 1352 l 1,0,-1
EndSplineSet
Validated: 8388609
Position2: "'cpsp' Capital Spacing lookup 3 subtable" dx=10 dy=0 dh=20 dv=0
EndChar

StartChar: N
Encoding: 78 78 77
Width: 1404
Flags: MW
HStem: 1311 41G<238 750 750 750 1227 1489 1489 1489>
VStem: -6 1495<0 1352>
LayerCount: 2
UndoRedoHistory
Layer: 1
Undoes
EndUndoes
Redoes
EndRedoes
EndUndoRedoHistory
Fore
SplineSet
-6 0 m 1,0,-1
 238 1352 l 1,1,-1
 750 1352 l 1,2,-1
 1081 485 l 1,3,-1
 1227 1352 l 1,4,-1
 1489 1352 l 1,5,-1
 1237 0 l 1,6,-1
 670 0 l 1,7,-1
 385 799 l 1,8,-1
 252 0 l 1,9,-1
 -6 0 l 1,0,-1
EndSplineSet
Validated: 1
Position2: "'cpsp' Capital Spacing lookup 3 subtable" dx=10 dy=0 dh=20 dv=0
EndChar

StartChar: NJ
Encoding: 458 458 78
Width: 2099
Flags: MW
HStem: 1311 41G<238 750 750 750 1227 1489 1489 1489 1649 2191 2191 2191>
VStem: -6 2198<0 1352>
LayerCount: 2
UndoRedoHistory
Layer: 1
Undoes
EndUndoes
Redoes
EndRedoes
EndUndoRedoHistory
Fore
SplineSet
2011 403 m 2,0,1
 1965 161 1965 161 1908 1 c 128,-1,2
 1851 -159 1851 -159 1774.5 -252 c 128,-1,3
 1698 -345 1698 -345 1608.5 -382.5 c 128,-1,4
 1519 -420 1519 -420 1397 -420 c 0,5,6
 1166 -420 1166 -420 1114 -299 c 1,7,8
 1205 -261 1205 -261 1239 -235 c 0,9,10
 1309 -180 1309 -180 1358 -38 c 0,11,12
 1408 105 1408 105 1470 422 c 2,13,-1
 1649 1352 l 1,14,-1
 2191 1352 l 1,15,-1
 2011 403 l 2,0,1
238 1352 m 1,16,-1
 750 1352 l 1,17,-1
 1081 485 l 1,18,-1
 1227 1352 l 1,19,-1
 1489 1352 l 1,20,-1
 1237 0 l 1,21,-1
 670 0 l 1,22,-1
 385 799 l 1,23,-1
 252 0 l 1,24,-1
 -6 0 l 1,25,-1
 238 1352 l 1,16,-1
EndSplineSet
Validated: 1
Position2: "'cpsp' Capital Spacing lookup 3 subtable" dx=10 dy=0 dh=20 dv=0
EndChar

StartChar: Nacute
Encoding: 323 323 79
Width: 1404
Flags: MW
HStem: 1311 41G<238 750 750 750 1227 1489 1489 1489>
VStem: -6 1495<0 1352>
LayerCount: 2
UndoRedoHistory
Layer: 1
Undoes
EndUndoes
Redoes
EndRedoes
EndUndoRedoHistory
Fore
SplineSet
238 1352 m 1,0,-1
 750 1352 l 1,1,-1
 1081 485 l 1,2,-1
 1227 1352 l 1,3,-1
 1489 1352 l 1,4,-1
 1237 0 l 1,5,-1
 670 0 l 1,6,-1
 385 799 l 1,7,-1
 252 0 l 1,8,-1
 -6 0 l 1,9,-1
 238 1352 l 1,0,-1
711 1556 m 1,10,-1
 1223 1780 l 1,11,12
 1255 1754 1255 1754 1270.5 1727.5 c 128,-1,13
 1286 1701 1286 1701 1286 1659 c 0,14,15
 1286 1559 1286 1559 1202 1509.5 c 128,-1,16
 1118 1460 1118 1460 985 1458 c 1,17,-1
 739 1452 l 1,18,-1
 711 1556 l 1,10,-1
EndSplineSet
Validated: 1
Substitution2: "'locl' Localized Forms in Latin lookup 13 subtable" Nacute.loclPLK
Substitution2: "'aalt' Access All Alternates lookup 0 subtable" Nacute.loclPLK
Position2: "'cpsp' Capital Spacing lookup 3 subtable" dx=10 dy=0 dh=20 dv=0
EndChar

StartChar: Ncaron
Encoding: 327 327 80
Width: 1404
Flags: MW
HStem: 1311 41G<238 750 750 750 1227 1489 1489 1489>
VStem: -6 1495<0 1352>
LayerCount: 2
UndoRedoHistory
Layer: 1
Undoes
EndUndoes
Redoes
EndRedoes
EndUndoRedoHistory
Fore
SplineSet
238 1352 m 1,0,-1
 750 1352 l 1,1,-1
 1081 485 l 1,2,-1
 1227 1352 l 1,3,-1
 1489 1352 l 1,4,-1
 1237 0 l 1,5,-1
 670 0 l 1,6,-1
 385 799 l 1,7,-1
 252 0 l 1,8,-1
 -6 0 l 1,9,-1
 238 1352 l 1,0,-1
672 1782 m 1,10,-1
 944 1665 l 1,11,-1
 1286 1782 l 1,12,-1
 1354 1690 l 1,13,-1
 1026 1423 l 1,14,-1
 811 1423 l 1,15,-1
 559 1690 l 1,16,-1
 672 1782 l 1,10,-1
EndSplineSet
Validated: 1
Position2: "'cpsp' Capital Spacing lookup 3 subtable" dx=10 dy=0 dh=20 dv=0
EndChar

StartChar: Ncommaaccent
Encoding: 325 325 81
Width: 1404
Flags: MW
HStem: 1311 41G<238 750 750 750 1227 1489 1489 1489>
VStem: 410 326<-321 -234>
LayerCount: 2
UndoRedoHistory
Layer: 1
Undoes
EndUndoes
Redoes
EndRedoes
EndUndoRedoHistory
Fore
SplineSet
735 -233 m 0,0,1
 735 -309 735 -309 695 -372.5 c 128,-1,2
 655 -436 655 -436 594.5 -473.5 c 128,-1,3
 534 -511 534 -511 471 -531 c 128,-1,4
 408 -551 408 -551 354 -551 c 0,5,6
 323 -551 323 -551 279 -537 c 1,7,8
 356 -459 356 -459 383 -404 c 128,-1,9
 410 -349 410 -349 410 -254 c 0,10,11
 410 -226 410 -226 402.5 -190.5 c 128,-1,12
 395 -155 395 -155 387 -139 c 1,13,14
 488 -106 488 -106 553 -106 c 0,15,16
 735 -106 735 -106 735 -233 c 0,0,1
238 1352 m 1,17,-1
 750 1352 l 1,18,-1
 1081 485 l 1,19,-1
 1227 1352 l 1,20,-1
 1489 1352 l 1,21,-1
 1237 0 l 1,22,-1
 670 0 l 1,23,-1
 385 799 l 1,24,-1
 252 0 l 1,25,-1
 -6 0 l 1,26,-1
 238 1352 l 1,17,-1
EndSplineSet
Validated: 1
Position2: "'cpsp' Capital Spacing lookup 3 subtable" dx=10 dy=0 dh=20 dv=0
EndChar

StartChar: Ndotaccent
Encoding: 7748 7748 82
Width: 1404
Flags: MW
HStem: 1311 41G<238 750 750 750 1227 1489 1489 1489> 1413 346<831 964>
VStem: -6 1495<0 1352> 651 485<1529 1636>
LayerCount: 2
UndoRedoHistory
Layer: 1
Undoes
EndUndoes
Redoes
EndRedoes
EndUndoRedoHistory
Fore
SplineSet
238 1352 m 1,0,-1
 750 1352 l 1,1,-1
 1081 485 l 1,2,-1
 1227 1352 l 1,3,-1
 1489 1352 l 1,4,-1
 1237 0 l 1,5,-1
 670 0 l 1,6,-1
 385 799 l 1,7,-1
 252 0 l 1,8,-1
 -6 0 l 1,9,-1
 238 1352 l 1,0,-1
901 1759 m 0,10,11
 1006 1759 1006 1759 1071.5 1711.5 c 128,-1,12
 1137 1664 1137 1664 1137 1585 c 0,13,14
 1137 1503 1137 1503 1069.5 1458 c 128,-1,15
 1002 1413 1002 1413 893 1413 c 128,-1,16
 784 1413 784 1413 717.5 1457 c 128,-1,17
 651 1501 651 1501 651 1581 c 0,18,19
 651 1662 651 1662 722.5 1710.5 c 128,-1,20
 794 1759 794 1759 901 1759 c 0,10,11
EndSplineSet
Validated: 8388609
Position2: "'cpsp' Capital Spacing lookup 3 subtable" dx=10 dy=0 dh=20 dv=0
EndChar

StartChar: Eng
Encoding: 330 330 83
Width: 1402
Flags: MW
HStem: 1311 41G<238 750 750 750 1227 1489 1489 1489>
VStem: -6 1495<0 1352>
LayerCount: 2
UndoRedoHistory
Layer: 1
Undoes
EndUndoes
Redoes
EndRedoes
EndUndoRedoHistory
Fore
SplineSet
252 0 m 1,0,-1
 -6 0 l 1,1,-1
 238 1352 l 1,2,-1
 750 1352 l 1,3,-1
 1081 485 l 1,4,-1
 1227 1352 l 1,5,-1
 1489 1352 l 1,6,-1
 1257 104 l 2,7,8
 1217 -109 1217 -109 1166.5 -226.5 c 128,-1,9
 1116 -344 1116 -344 1047 -392 c 128,-1,10
 978 -440 978 -440 870 -440 c 0,11,12
 741 -440 741 -440 711 -369 c 1,13,14
 803 -336 803 -336 821 -326 c 0,15,16
 892 -289 892 -289 933 -201 c 0,17,18
 967 -128 967 -128 995 0 c 1,19,-1
 684 0 l 1,20,-1
 385 799 l 1,21,-1
 252 0 l 1,0,-1
EndSplineSet
Validated: 1
Position2: "'cpsp' Capital Spacing lookup 3 subtable" dx=10 dy=0 dh=20 dv=0
EndChar

StartChar: Nj
Encoding: 459 459 84
Width: 2039
Flags: MW
HStem: -410 168 1190 162 1190 362<1799 1937> 1311 41G<238 750 750 750 1227 1489 1489 1489>
VStem: -6 2126<0 1427>
LayerCount: 2
UndoRedoHistory
Layer: 1
Undoes
EndUndoes
Redoes
EndRedoes
EndUndoRedoHistory
Fore
SplineSet
1919 250 m 2,0,1
 1893 114 1893 114 1865 16 c 128,-1,2
 1837 -82 1837 -82 1797.5 -166.5 c 128,-1,3
 1758 -251 1758 -251 1707.5 -302 c 128,-1,4
 1657 -353 1657 -353 1588 -381.5 c 128,-1,5
 1519 -410 1519 -410 1430 -410 c 0,6,7
 1321 -410 1321 -410 1242 -369.5 c 128,-1,8
 1163 -329 1163 -329 1137 -242 c 1,9,10
 1256 -238 1256 -238 1314.5 -133 c 128,-1,11
 1373 -28 1373 -28 1425 242 c 2,12,-1
 1577 1044 l 1,13,-1
 2079 1094 l 1,14,-1
 1919 250 l 2,0,1
238 1352 m 1,15,-1
 750 1352 l 1,16,-1
 1081 485 l 1,17,-1
 1227 1352 l 1,18,-1
 1489 1352 l 1,19,-1
 1237 0 l 1,20,-1
 670 0 l 1,21,-1
 385 799 l 1,22,-1
 252 0 l 1,23,-1
 -6 0 l 1,24,-1
 238 1352 l 1,15,-1
1872 1552 m 0,25,26
 1984 1552 1984 1552 2052 1503.5 c 128,-1,27
 2120 1455 2120 1455 2120 1370 c 0,28,29
 2120 1283 2120 1283 2049 1236.5 c 128,-1,30
 1978 1190 1978 1190 1864 1190 c 128,-1,31
 1750 1190 1750 1190 1680 1236 c 128,-1,32
 1610 1282 1610 1282 1610 1366 c 0,33,34
 1610 1452 1610 1452 1684.5 1502 c 128,-1,35
 1759 1552 1759 1552 1872 1552 c 0,25,26
EndSplineSet
Validated: 8388609
Position2: "'cpsp' Capital Spacing lookup 3 subtable" dx=10 dy=0 dh=20 dv=0
EndChar

StartChar: Ntilde
Encoding: 209 209 85
Width: 1404
Flags: MW
HStem: 1311 41G<238 750 750 750 1227 1489 1489 1489> 1477 244<1119 1194 1119 1194> 1516 240<638 709>
VStem: -6 1495<0 1352>
LayerCount: 2
UndoRedoHistory
Layer: 1
Undoes
EndUndoes
Redoes
EndRedoes
EndUndoRedoHistory
Fore
SplineSet
238 1352 m 1,0,-1
 750 1352 l 1,1,-1
 1081 485 l 1,2,-1
 1227 1352 l 1,3,-1
 1489 1352 l 1,4,-1
 1237 0 l 1,5,-1
 670 0 l 1,6,-1
 385 799 l 1,7,-1
 252 0 l 1,8,-1
 -6 0 l 1,9,-1
 238 1352 l 1,0,-1
1300 1755 m 1,10,11
 1343 1704 1343 1704 1343 1640 c 0,12,13
 1343 1561 1343 1561 1285.5 1519 c 128,-1,14
 1228 1477 1228 1477 1126 1477 c 0,15,16
 1068 1477 1068 1477 887 1496.5 c 128,-1,17
 706 1516 706 1516 668 1516 c 0,18,19
 627 1516 627 1516 584 1504.5 c 128,-1,20
 541 1493 541 1493 520 1479 c 1,21,22
 475 1539 475 1539 475 1606 c 0,23,24
 475 1678 475 1678 532 1716.5 c 128,-1,25
 589 1755 589 1755 696 1755 c 0,26,27
 761 1755 761 1755 941.5 1737.5 c 128,-1,28
 1122 1720 1122 1720 1167 1720 c 0,29,30
 1262 1720 1262 1720 1300 1755 c 1,10,11
EndSplineSet
Validated: 8388609
Position2: "'cpsp' Capital Spacing lookup 3 subtable" dx=10 dy=0 dh=20 dv=0
EndChar

StartChar: O
Encoding: 79 79 86
Width: 1513
Flags: MW
HStem: -41 145<667 751 667 932> 1249 143<828 915>
VStem: 74 539<230 819> 967 539<530 1123>
LayerCount: 2
UndoRedoHistory
Layer: 1
Undoes
EndUndoes
Redoes
EndRedoes
EndUndoRedoHistory
Fore
SplineSet
879 1249 m 0,0,1
 798 1249 798 1249 736 1088.5 c 128,-1,2
 674 928 674 928 631 549 c 0,3,4
 612 378 612 378 612 279 c 0,5,6
 612 196 612 196 632 150 c 128,-1,7
 652 104 652 104 707 104 c 0,8,9
 868 104 868 104 948 805 c 0,10,11
 967 976 967 976 967 1075 c 0,12,13
 967 1158 967 1158 948.5 1203.5 c 128,-1,14
 930 1249 930 1249 879 1249 c 0,0,1
905 1393 m 0,15,16
 1195 1393 1195 1393 1350 1244 c 128,-1,17
 1505 1095 1505 1095 1505 782 c 0,18,19
 1505 403 1505 403 1282.5 181 c 128,-1,20
 1060 -41 1060 -41 674 -41 c 0,21,22
 384 -41 384 -41 229 107.5 c 128,-1,23
 74 256 74 256 74 569 c 0,24,25
 74 947 74 947 296 1170 c 128,-1,26
 518 1393 518 1393 905 1393 c 0,15,16
EndSplineSet
Validated: 1
Substitution2: "Single Substitution lookup 21 subtable" ordmasculine
Substitution2: "'aalt' Access All Alternates lookup 0 subtable" ordmasculine
Position2: "'cpsp' Capital Spacing lookup 3 subtable" dx=10 dy=0 dh=20 dv=0
EndChar

StartChar: Oacute
Encoding: 211 211 87
Width: 1513
Flags: MW
HStem: -41 145<667 751 667 932> 1249 143<828 915>
VStem: 74 539<230 819> 74 1432<530 819> 967 539<530 1123>
LayerCount: 2
UndoRedoHistory
Layer: 1
Undoes
EndUndoes
Redoes
EndRedoes
EndUndoRedoHistory
Fore
SplineSet
879 1249 m 0,0,1
 798 1249 798 1249 736 1088.5 c 128,-1,2
 674 928 674 928 631 549 c 0,3,4
 612 378 612 378 612 279 c 0,5,6
 612 196 612 196 632 150 c 128,-1,7
 652 104 652 104 707 104 c 0,8,9
 868 104 868 104 948 805 c 0,10,11
 967 976 967 976 967 1075 c 0,12,13
 967 1158 967 1158 948.5 1203.5 c 128,-1,14
 930 1249 930 1249 879 1249 c 0,0,1
905 1393 m 0,15,16
 1195 1393 1195 1393 1350 1244 c 128,-1,17
 1505 1095 1505 1095 1505 782 c 0,18,19
 1505 403 1505 403 1282.5 181 c 128,-1,20
 1060 -41 1060 -41 674 -41 c 0,21,22
 384 -41 384 -41 229 107.5 c 128,-1,23
 74 256 74 256 74 569 c 0,24,25
 74 947 74 947 296 1170 c 128,-1,26
 518 1393 518 1393 905 1393 c 0,15,16
741 1556 m 1,27,-1
 1253 1780 l 1,28,29
 1285 1754 1285 1754 1301 1727 c 128,-1,30
 1317 1700 1317 1700 1317 1659 c 0,31,32
 1317 1559 1317 1559 1233 1509.5 c 128,-1,33
 1149 1460 1149 1460 1016 1458 c 1,34,-1
 770 1452 l 1,35,-1
 741 1556 l 1,27,-1
EndSplineSet
Validated: 8388609
Substitution2: "'locl' Localized Forms in Latin lookup 13 subtable" Oacute.loclPLK
Substitution2: "'aalt' Access All Alternates lookup 0 subtable" Oacute.loclPLK
Position2: "'cpsp' Capital Spacing lookup 3 subtable" dx=10 dy=0 dh=20 dv=0
EndChar

StartChar: Obreve
Encoding: 334 334 88
Width: 1513
Flags: MW
HStem: -41 145<667 751 667 932> 1249 143<828 915> 1434 272<755 879 1026 1033>
VStem: 74 539<230 819> 510 358<1593 1595 1576 1660> 967 539<530 1123>
LayerCount: 2
UndoRedoHistory
Layer: 1
Undoes
EndUndoes
Redoes
EndRedoes
EndUndoRedoHistory
Fore
SplineSet
879 1249 m 0,0,1
 798 1249 798 1249 736 1088.5 c 128,-1,2
 674 928 674 928 631 549 c 0,3,4
 612 378 612 378 612 279 c 0,5,6
 612 196 612 196 632 150 c 128,-1,7
 652 104 652 104 707 104 c 0,8,9
 868 104 868 104 948 805 c 0,10,11
 967 976 967 976 967 1075 c 0,12,13
 967 1158 967 1158 948.5 1203.5 c 128,-1,14
 930 1249 930 1249 879 1249 c 0,0,1
905 1393 m 0,15,16
 1195 1393 1195 1393 1350 1244 c 128,-1,17
 1505 1095 1505 1095 1505 782 c 0,18,19
 1505 403 1505 403 1282.5 181 c 128,-1,20
 1060 -41 1060 -41 674 -41 c 0,21,22
 384 -41 384 -41 229 107.5 c 128,-1,23
 74 256 74 256 74 569 c 0,24,25
 74 947 74 947 296 1170 c 128,-1,26
 518 1393 518 1393 905 1393 c 0,15,16
879 1706 m 1,27,28
 870 1641 870 1641 870 1622 c 0,29,30
 870 1618 870 1618 869 1607 c 128,-1,31
 868 1596 868 1596 868 1589 c 0,32,33
 868 1534 868 1534 926 1534 c 0,34,35
 943 1534 943 1534 956.5 1541.5 c 128,-1,36
 970 1549 970 1549 978.5 1559.5 c 128,-1,37
 987 1570 987 1570 994.5 1589.5 c 128,-1,38
 1002 1609 1002 1609 1006 1624.5 c 128,-1,39
 1010 1640 1010 1640 1016 1665.5 c 128,-1,40
 1022 1691 1022 1691 1026 1706 c 1,41,-1
 1376 1706 l 1,42,43
 1350 1586 1350 1586 1223.5 1510 c 128,-1,44
 1097 1434 1097 1434 893 1434 c 0,45,46
 698 1434 698 1434 604 1495.5 c 128,-1,47
 510 1557 510 1557 510 1651 c 0,48,49
 510 1676 510 1676 516 1706 c 1,50,-1
 879 1706 l 1,27,28
EndSplineSet
Validated: 8388609
Position2: "'cpsp' Capital Spacing lookup 3 subtable" dx=10 dy=0 dh=20 dv=0
EndChar

StartChar: Ocircumflex
Encoding: 212 212 89
Width: 1513
Flags: MW
HStem: -41 145<667 751 667 932> 1249 143<828 915>
VStem: 74 539<230 819> 74 1432<530 819> 967 539<530 1123>
LayerCount: 2
UndoRedoHistory
Layer: 1
Undoes
EndUndoes
Redoes
EndRedoes
EndUndoRedoHistory
Fore
SplineSet
879 1249 m 0,0,1
 798 1249 798 1249 736 1088.5 c 128,-1,2
 674 928 674 928 631 549 c 0,3,4
 612 378 612 378 612 279 c 0,5,6
 612 196 612 196 632 150 c 128,-1,7
 652 104 652 104 707 104 c 0,8,9
 868 104 868 104 948 805 c 0,10,11
 967 976 967 976 967 1075 c 0,12,13
 967 1158 967 1158 948.5 1203.5 c 128,-1,14
 930 1249 930 1249 879 1249 c 0,0,1
905 1393 m 0,15,16
 1195 1393 1195 1393 1350 1244 c 128,-1,17
 1505 1095 1505 1095 1505 782 c 0,18,19
 1505 403 1505 403 1282.5 181 c 128,-1,20
 1060 -41 1060 -41 674 -41 c 0,21,22
 384 -41 384 -41 229 107.5 c 128,-1,23
 74 256 74 256 74 569 c 0,24,25
 74 947 74 947 296 1170 c 128,-1,26
 518 1393 518 1393 905 1393 c 0,15,16
1210 1411 m 1,27,-1
 958 1487 l 1,28,-1
 637 1411 l 1,29,-1
 569 1503 l 1,30,-1
 938 1749 l 1,31,-1
 1030 1749 l 1,32,-1
 1323 1503 l 1,33,-1
 1210 1411 l 1,27,-1
EndSplineSet
Validated: 8388609
Position2: "'cpsp' Capital Spacing lookup 3 subtable" dx=10 dy=0 dh=20 dv=0
EndChar

StartChar: Odieresis
Encoding: 214 214 90
Width: 1513
Flags: MW
HStem: -41 145<667 751 667 932> 1249 143<828 915> 1413 346<596 728 1106 1238>
VStem: 74 539<230 819> 416 485<1529 1636> 926 485<1529 1636> 967 539<530 1123>
LayerCount: 2
UndoRedoHistory
Layer: 1
Undoes
EndUndoes
Redoes
EndRedoes
EndUndoRedoHistory
Fore
SplineSet
879 1249 m 0,0,1
 798 1249 798 1249 736 1088.5 c 128,-1,2
 674 928 674 928 631 549 c 0,3,4
 612 378 612 378 612 279 c 0,5,6
 612 196 612 196 632 150 c 128,-1,7
 652 104 652 104 707 104 c 0,8,9
 868 104 868 104 948 805 c 0,10,11
 967 976 967 976 967 1075 c 0,12,13
 967 1158 967 1158 948.5 1203.5 c 128,-1,14
 930 1249 930 1249 879 1249 c 0,0,1
905 1393 m 0,15,16
 1195 1393 1195 1393 1350 1244 c 128,-1,17
 1505 1095 1505 1095 1505 782 c 0,18,19
 1505 403 1505 403 1282.5 181 c 128,-1,20
 1060 -41 1060 -41 674 -41 c 0,21,22
 384 -41 384 -41 229 107.5 c 128,-1,23
 74 256 74 256 74 569 c 0,24,25
 74 947 74 947 296 1170 c 128,-1,26
 518 1393 518 1393 905 1393 c 0,15,16
1176 1759 m 0,27,28
 1281 1759 1281 1759 1346 1711.5 c 128,-1,29
 1411 1664 1411 1664 1411 1585 c 0,30,31
 1411 1503 1411 1503 1343.5 1458 c 128,-1,32
 1276 1413 1276 1413 1167 1413 c 128,-1,33
 1058 1413 1058 1413 992 1457 c 128,-1,34
 926 1501 926 1501 926 1581 c 0,35,36
 926 1662 926 1662 997.5 1710.5 c 128,-1,37
 1069 1759 1069 1759 1176 1759 c 0,27,28
666 1759 m 0,38,39
 771 1759 771 1759 836 1711.5 c 128,-1,40
 901 1664 901 1664 901 1585 c 0,41,42
 901 1503 901 1503 833.5 1458 c 128,-1,43
 766 1413 766 1413 657 1413 c 128,-1,44
 548 1413 548 1413 482 1457 c 128,-1,45
 416 1501 416 1501 416 1581 c 0,46,47
 416 1662 416 1662 487.5 1710.5 c 128,-1,48
 559 1759 559 1759 666 1759 c 0,38,39
EndSplineSet
Validated: 8388609
Position2: "'cpsp' Capital Spacing lookup 3 subtable" dx=10 dy=0 dh=20 dv=0
EndChar

StartChar: Odotbelow
Encoding: 7884 7884 91
Width: 1513
Flags: MW
HStem: -412 346<612 744> -41 145<667 751 667 932> 1249 143<828 915>
VStem: 74 539<230 819> 432 485<-296 -188> 967 539<530 1123>
LayerCount: 2
UndoRedoHistory
Layer: 1
Undoes
EndUndoes
Redoes
EndRedoes
EndUndoRedoHistory
Fore
SplineSet
682 -66 m 0,0,1
 787 -66 787 -66 852.5 -113.5 c 128,-1,2
 918 -161 918 -161 918 -240 c 0,3,4
 918 -322 918 -322 850.5 -367 c 128,-1,5
 783 -412 783 -412 674 -412 c 128,-1,6
 565 -412 565 -412 498.5 -368 c 128,-1,7
 432 -324 432 -324 432 -244 c 0,8,9
 432 -163 432 -163 503.5 -114.5 c 128,-1,10
 575 -66 575 -66 682 -66 c 0,0,1
879 1249 m 0,11,12
 798 1249 798 1249 736 1088.5 c 128,-1,13
 674 928 674 928 631 549 c 0,14,15
 612 378 612 378 612 279 c 0,16,17
 612 196 612 196 632 150 c 128,-1,18
 652 104 652 104 707 104 c 0,19,20
 868 104 868 104 948 805 c 0,21,22
 967 976 967 976 967 1075 c 0,23,24
 967 1158 967 1158 948.5 1203.5 c 128,-1,25
 930 1249 930 1249 879 1249 c 0,11,12
905 1393 m 0,26,27
 1195 1393 1195 1393 1350 1244 c 128,-1,28
 1505 1095 1505 1095 1505 782 c 0,29,30
 1505 403 1505 403 1282.5 181 c 128,-1,31
 1060 -41 1060 -41 674 -41 c 0,32,33
 384 -41 384 -41 229 107.5 c 128,-1,34
 74 256 74 256 74 569 c 0,35,36
 74 947 74 947 296 1170 c 128,-1,37
 518 1393 518 1393 905 1393 c 0,26,27
EndSplineSet
Validated: 8388609
Position2: "'cpsp' Capital Spacing lookup 3 subtable" dx=10 dy=0 dh=20 dv=0
EndChar

StartChar: Ograve
Encoding: 210 210 92
Width: 1513
Flags: MW
HStem: -41 145<667 751 667 932> 1249 143<828 915> 1457 103
VStem: 74 539<230 819> 74 1432<530 819> 967 539<530 1123>
LayerCount: 2
UndoRedoHistory
Layer: 1
Undoes
EndUndoes
Redoes
EndRedoes
EndUndoRedoHistory
Fore
SplineSet
879 1249 m 0,0,1
 798 1249 798 1249 736 1088.5 c 128,-1,2
 674 928 674 928 631 549 c 0,3,4
 612 378 612 378 612 279 c 0,5,6
 612 196 612 196 632 150 c 128,-1,7
 652 104 652 104 707 104 c 0,8,9
 868 104 868 104 948 805 c 0,10,11
 967 976 967 976 967 1075 c 0,12,13
 967 1158 967 1158 948.5 1203.5 c 128,-1,14
 930 1249 930 1249 879 1249 c 0,0,1
905 1393 m 0,15,16
 1195 1393 1195 1393 1350 1244 c 128,-1,17
 1505 1095 1505 1095 1505 782 c 0,18,19
 1505 403 1505 403 1282.5 181 c 128,-1,20
 1060 -41 1060 -41 674 -41 c 0,21,22
 384 -41 384 -41 229 107.5 c 128,-1,23
 74 256 74 256 74 569 c 0,24,25
 74 947 74 947 296 1170 c 128,-1,26
 518 1393 518 1393 905 1393 c 0,15,16
1141 1454 m 1,27,-1
 893 1460 l 2,28,29
 808 1462 808 1462 743 1482 c 128,-1,30
 678 1502 678 1502 636 1548 c 128,-1,31
 594 1594 594 1594 594 1663 c 0,32,33
 594 1735 594 1735 657 1782 c 1,34,-1
 1169 1561 l 1,35,-1
 1141 1454 l 1,27,-1
EndSplineSet
Validated: 8388609
Position2: "'cpsp' Capital Spacing lookup 3 subtable" dx=10 dy=0 dh=20 dv=0
EndChar

StartChar: Ohungarumlaut
Encoding: 336 336 93
Width: 1513
Flags: MW
HStem: -41 145<667 751 667 932> 1249 143<828 915>
VStem: 74 539<230 819> 74 1462<355 1656> 967 539<530 1123>
LayerCount: 2
UndoRedoHistory
Layer: 1
Undoes
EndUndoes
Redoes
EndRedoes
EndUndoRedoHistory
Fore
SplineSet
879 1249 m 0,0,1
 798 1249 798 1249 736 1088.5 c 128,-1,2
 674 928 674 928 631 549 c 0,3,4
 612 378 612 378 612 279 c 0,5,6
 612 196 612 196 632 150 c 128,-1,7
 652 104 652 104 707 104 c 0,8,9
 868 104 868 104 948 805 c 0,10,11
 967 976 967 976 967 1075 c 0,12,13
 967 1158 967 1158 948.5 1203.5 c 128,-1,14
 930 1249 930 1249 879 1249 c 0,0,1
905 1393 m 0,15,16
 1195 1393 1195 1393 1350 1244 c 128,-1,17
 1505 1095 1505 1095 1505 782 c 0,18,19
 1505 403 1505 403 1282.5 181 c 128,-1,20
 1060 -41 1060 -41 674 -41 c 0,21,22
 384 -41 384 -41 229 107.5 c 128,-1,23
 74 256 74 256 74 569 c 0,24,25
 74 947 74 947 296 1170 c 128,-1,26
 518 1393 518 1393 905 1393 c 0,15,16
1442 1765 m 1,27,28
 1484 1741 1484 1741 1510 1704.5 c 128,-1,29
 1536 1668 1536 1668 1536 1628 c 0,30,31
 1536 1546 1536 1546 1481.5 1502.5 c 128,-1,32
 1427 1459 1427 1459 1307 1444 c 2,33,-1
 1096 1417 l 1,34,-1
 1028 1530 l 1,35,-1
 1442 1765 l 1,27,28
932 1765 m 1,36,37
 978 1741 978 1741 1005 1704.5 c 128,-1,38
 1032 1668 1032 1668 1032 1626 c 0,39,40
 1032 1543 1032 1543 977.5 1499.5 c 128,-1,41
 923 1456 923 1456 803 1444 c 1,42,-1
 588 1417 l 1,43,-1
 524 1530 l 1,44,-1
 932 1765 l 1,36,37
EndSplineSet
Validated: 8388609
Position2: "'cpsp' Capital Spacing lookup 3 subtable" dx=10 dy=0 dh=20 dv=0
EndChar

StartChar: Omacron
Encoding: 332 332 94
Width: 1513
Flags: MW
HStem: -41 145<667 751 667 932> 1249 143<828 915> 1520 197<748 1110 608 1266>
VStem: 74 539<230 819> 74 1432<530 819> 967 539<530 1123>
LayerCount: 2
UndoRedoHistory
Layer: 1
Undoes
EndUndoes
Redoes
EndRedoes
EndUndoRedoHistory
Fore
SplineSet
879 1249 m 0,0,1
 798 1249 798 1249 736 1088.5 c 128,-1,2
 674 928 674 928 631 549 c 0,3,4
 612 378 612 378 612 279 c 0,5,6
 612 196 612 196 632 150 c 128,-1,7
 652 104 652 104 707 104 c 0,8,9
 868 104 868 104 948 805 c 0,10,11
 967 976 967 976 967 1075 c 0,12,13
 967 1158 967 1158 948.5 1203.5 c 128,-1,14
 930 1249 930 1249 879 1249 c 0,0,1
905 1393 m 0,15,16
 1195 1393 1195 1393 1350 1244 c 128,-1,17
 1505 1095 1505 1095 1505 782 c 0,18,19
 1505 403 1505 403 1282.5 181 c 128,-1,20
 1060 -41 1060 -41 674 -41 c 0,21,22
 384 -41 384 -41 229 107.5 c 128,-1,23
 74 256 74 256 74 569 c 0,24,25
 74 947 74 947 296 1170 c 128,-1,26
 518 1393 518 1393 905 1393 c 0,15,16
1266 1716 m 1,27,28
 1274 1684 1274 1684 1274 1655 c 0,29,30
 1274 1596 1274 1596 1232 1558 c 128,-1,31
 1190 1520 1190 1520 1110 1520 c 2,32,-1
 608 1520 l 1,33,34
 602 1538 602 1538 602 1577 c 0,35,36
 603 1638 603 1638 644.5 1677 c 128,-1,37
 686 1716 686 1716 748 1716 c 2,38,-1
 1266 1716 l 1,27,28
EndSplineSet
Validated: 8388609
Position2: "'cpsp' Capital Spacing lookup 3 subtable" dx=10 dy=0 dh=20 dv=0
EndChar

StartChar: Oogonek
Encoding: 490 490 95
Width: 1513
Flags: MW
HStem: -528 203<916 938> -41 145<667 674> 1249 143<828 915>
VStem: 74 539<230 819> 588 270<-268 -253> 967 539<596 1123>
LayerCount: 2
UndoRedoHistory
Layer: 1
Undoes
EndUndoes
Redoes
EndRedoes
EndUndoRedoHistory
Fore
SplineSet
612 279 m 0,0,1
 612 196 612 196 632 150 c 128,-1,2
 652 104 652 104 707 104 c 0,3,4
 868 104 868 104 948 805 c 0,5,6
 967 976 967 976 967 1075 c 0,7,8
 967 1158 967 1158 948.5 1203.5 c 128,-1,9
 930 1249 930 1249 879 1249 c 0,10,11
 798 1249 798 1249 736 1088.5 c 128,-1,12
 674 928 674 928 631 549 c 0,13,14
 612 378 612 378 612 279 c 0,0,1
1034 20 m 1,15,16
 954 -35 954 -35 906 -102 c 128,-1,17
 858 -169 858 -169 858 -236 c 0,18,19
 858 -284 858 -284 879.5 -305 c 128,-1,20
 901 -326 901 -326 944 -326 c 0,21,22
 1023 -326 1023 -326 1067 -274 c 1,23,24
 1106 -330 1106 -330 1106 -397 c 0,25,26
 1106 -453 1106 -453 1040.5 -490.5 c 128,-1,27
 975 -528 975 -528 850 -528 c 128,-1,28
 725 -528 725 -528 656.5 -473.5 c 128,-1,29
 588 -419 588 -419 588 -315 c 0,30,31
 588 -140 588 -140 737 -39 c 1,32,-1
 674 -41 l 1,33,34
 384 -41 384 -41 229 107.5 c 128,-1,35
 74 256 74 256 74 569 c 0,36,37
 74 947 74 947 296 1170 c 128,-1,38
 518 1393 518 1393 905 1393 c 0,39,40
 1195 1393 1195 1393 1350 1244 c 128,-1,41
 1505 1095 1505 1095 1505 782 c 0,42,43
 1505 503 1505 503 1382 305.5 c 128,-1,44
 1259 108 1259 108 1034 20 c 1,15,16
EndSplineSet
Validated: 8388609
Position2: "'cpsp' Capital Spacing lookup 3 subtable" dx=10 dy=0 dh=20 dv=0
EndChar

StartChar: Oslash
Encoding: 216 216 96
Width: 1513
Flags: MW
HStem: -41 145<657 776 657 932> 1249 143<824 918>
VStem: 74 1432<530 819>
LayerCount: 2
UndoRedoHistory
Layer: 1
Undoes
EndUndoes
Redoes
EndRedoes
EndUndoRedoHistory
Fore
SplineSet
612 330 m 1,0,1
 612 296 612 296 612 264 c 0,2,3
 612 261 612 261 611 258 c 1,4,5
 611 228 611 228 616 202 c 0,6,7
 621 172 621 172 630.5 151 c 128,-1,8
 640 130 640 130 659.5 117 c 128,-1,9
 679 104 679 104 707 104 c 0,10,11
 818 104 818 104 889 435 c 0,12,13
 903 502 903 502 936 698 c 1,14,-1
 612 330 l 1,0,1
967 1090 m 1,15,16
 965 1119 965 1119 963.5 1136 c 128,-1,17
 962 1153 962 1153 956.5 1177.5 c 128,-1,18
 951 1202 951 1202 942.5 1215.5 c 128,-1,19
 934 1229 934 1229 917.5 1239 c 128,-1,20
 901 1249 901 1249 879 1249 c 0,21,22
 852 1249 852 1249 830.5 1238.5 c 128,-1,23
 809 1228 809 1228 790 1199.5 c 128,-1,24
 771 1171 771 1171 756 1136 c 128,-1,25
 741 1101 741 1101 724.5 1037.5 c 128,-1,26
 708 974 708 974 693.5 907.5 c 128,-1,27
 679 841 679 841 659 737 c 1,28,-1
 967 1090 l 1,15,16
1389 1210 m 1,29,30
 1505 1057 1505 1057 1505 782 c 0,31,32
 1505 403 1505 403 1282.5 181 c 128,-1,33
 1060 -41 1060 -41 674 -41 c 0,34,35
 476 -41 476 -41 342 23 c 1,36,37
 273 -59 273 -59 240 -123 c 1,38,39
 182 -123 182 -123 144.5 -85 c 128,-1,40
 107 -47 107 -47 106 18 c 1,41,42
 106 104 106 104 162 166 c 1,43,-1
 168 174 l 1,44,45
 74 322 74 322 74 569 c 0,46,47
 74 947 74 947 296 1170 c 128,-1,48
 518 1393 518 1393 905 1393 c 0,49,50
 1076 1393 1076 1393 1190 1350 c 1,51,52
 1257 1422 1257 1422 1294 1485 c 1,53,54
 1347 1485 1347 1485 1387 1435.5 c 128,-1,55
 1427 1386 1427 1386 1427 1327 c 0,56,57
 1427 1249 1427 1249 1366 1188 c 1,58,-1
 1389 1210 l 1,29,30
EndSplineSet
Validated: 1
Position2: "'cpsp' Capital Spacing lookup 3 subtable" dx=10 dy=0 dh=20 dv=0
EndChar

StartChar: Oslashacute
Encoding: 510 510 97
Width: 1513
Flags: MW
HStem: -41 145<657 776 657 932> 1249 143<824 918>
VStem: 74 1432<530 819>
LayerCount: 2
UndoRedoHistory
Layer: 1
Undoes
EndUndoes
Redoes
EndRedoes
EndUndoRedoHistory
Fore
SplineSet
612 330 m 1,0,1
 612 296 612 296 612 264 c 0,2,3
 612 261 612 261 611 258 c 1,4,5
 611 228 611 228 616 202 c 0,6,7
 621 172 621 172 630.5 151 c 128,-1,8
 640 130 640 130 659.5 117 c 128,-1,9
 679 104 679 104 707 104 c 0,10,11
 818 104 818 104 889 435 c 0,12,13
 903 502 903 502 936 698 c 1,14,-1
 612 330 l 1,0,1
967 1090 m 1,15,16
 965 1119 965 1119 963.5 1136 c 128,-1,17
 962 1153 962 1153 956.5 1177.5 c 128,-1,18
 951 1202 951 1202 942.5 1215.5 c 128,-1,19
 934 1229 934 1229 917.5 1239 c 128,-1,20
 901 1249 901 1249 879 1249 c 0,21,22
 852 1249 852 1249 830.5 1238.5 c 128,-1,23
 809 1228 809 1228 790 1199.5 c 128,-1,24
 771 1171 771 1171 756 1136 c 128,-1,25
 741 1101 741 1101 724.5 1037.5 c 128,-1,26
 708 974 708 974 693.5 907.5 c 128,-1,27
 679 841 679 841 659 737 c 1,28,-1
 967 1090 l 1,15,16
1389 1210 m 1,29,30
 1505 1057 1505 1057 1505 782 c 0,31,32
 1505 403 1505 403 1282.5 181 c 128,-1,33
 1060 -41 1060 -41 674 -41 c 0,34,35
 476 -41 476 -41 342 23 c 1,36,37
 273 -59 273 -59 240 -123 c 1,38,39
 182 -123 182 -123 144.5 -85 c 128,-1,40
 107 -47 107 -47 106 18 c 1,41,42
 106 104 106 104 162 166 c 1,43,-1
 168 174 l 1,44,45
 74 322 74 322 74 569 c 0,46,47
 74 947 74 947 296 1170 c 128,-1,48
 518 1393 518 1393 905 1393 c 0,49,50
 1076 1393 1076 1393 1190 1350 c 1,51,52
 1257 1422 1257 1422 1294 1485 c 1,53,54
 1347 1485 1347 1485 1387 1435.5 c 128,-1,55
 1427 1386 1427 1386 1427 1327 c 0,56,57
 1427 1249 1427 1249 1366 1188 c 1,58,-1
 1389 1210 l 1,29,30
690 1556 m 1,59,-1
 1202 1780 l 1,60,61
 1234 1754 1234 1754 1250 1727 c 128,-1,62
 1266 1700 1266 1700 1266 1659 c 0,63,64
 1266 1559 1266 1559 1182 1509.5 c 128,-1,65
 1098 1460 1098 1460 965 1458 c 1,66,-1
 719 1452 l 1,67,-1
 690 1556 l 1,59,-1
EndSplineSet
Validated: 1
Position2: "'cpsp' Capital Spacing lookup 3 subtable" dx=10 dy=0 dh=20 dv=0
EndChar

StartChar: Otilde
Encoding: 213 213 98
Width: 1513
Flags: MW
HStem: -41 145<667 751 667 932> 1249 143<828 915> 1477 244<1150 1225 1150 1225> 1516 240<669 739>
VStem: 74 539<230 819> 74 1432<530 819> 967 539<530 1123>
LayerCount: 2
UndoRedoHistory
Layer: 1
Undoes
EndUndoes
Redoes
EndRedoes
EndUndoRedoHistory
Fore
SplineSet
879 1249 m 0,0,1
 798 1249 798 1249 736 1088.5 c 128,-1,2
 674 928 674 928 631 549 c 0,3,4
 612 378 612 378 612 279 c 0,5,6
 612 196 612 196 632 150 c 128,-1,7
 652 104 652 104 707 104 c 0,8,9
 868 104 868 104 948 805 c 0,10,11
 967 976 967 976 967 1075 c 0,12,13
 967 1158 967 1158 948.5 1203.5 c 128,-1,14
 930 1249 930 1249 879 1249 c 0,0,1
905 1393 m 0,15,16
 1195 1393 1195 1393 1350 1244 c 128,-1,17
 1505 1095 1505 1095 1505 782 c 0,18,19
 1505 403 1505 403 1282.5 181 c 128,-1,20
 1060 -41 1060 -41 674 -41 c 0,21,22
 384 -41 384 -41 229 107.5 c 128,-1,23
 74 256 74 256 74 569 c 0,24,25
 74 947 74 947 296 1170 c 128,-1,26
 518 1393 518 1393 905 1393 c 0,15,16
1331 1755 m 1,27,28
 1374 1704 1374 1704 1374 1640 c 0,29,30
 1374 1561 1374 1561 1316.5 1519 c 128,-1,31
 1259 1477 1259 1477 1157 1477 c 0,32,33
 1099 1477 1099 1477 917.5 1496.5 c 128,-1,34
 736 1516 736 1516 698 1516 c 0,35,36
 657 1516 657 1516 614.5 1504.5 c 128,-1,37
 572 1493 572 1493 551 1479 c 1,38,39
 506 1539 506 1539 506 1606 c 0,40,41
 506 1678 506 1678 563 1716.5 c 128,-1,42
 620 1755 620 1755 727 1755 c 0,43,44
 792 1755 792 1755 972.5 1737.5 c 128,-1,45
 1153 1720 1153 1720 1198 1720 c 0,46,47
 1293 1720 1293 1720 1331 1755 c 1,27,28
EndSplineSet
Validated: 8388609
Position2: "'cpsp' Capital Spacing lookup 3 subtable" dx=10 dy=0 dh=20 dv=0
EndChar

StartChar: OE
Encoding: 338 338 99
Width: 1884
Flags: MW
HStem: -41 145<665 737> -41 350<1483 1507> 543 260<1572 1670> 1065 287<1672 1777> 1120 231<1479 1479> 1249 143<826 913>
VStem: 74 537<230 807> 74 1890<356 1352>
LayerCount: 2
UndoRedoHistory
Layer: 1
Undoes
EndUndoes
Redoes
EndRedoes
EndUndoRedoHistory
Fore
SplineSet
705 104 m 0,0,1
 866 104 866 104 946 805 c 0,2,3
 965 976 965 976 965 1075 c 0,4,5
 965 1158 965 1158 946.5 1203.5 c 128,-1,6
 928 1249 928 1249 877 1249 c 0,7,8
 796 1249 796 1249 734 1088.5 c 128,-1,9
 672 928 672 928 629 549 c 0,10,11
 610 378 610 378 610 279 c 0,12,13
 610 196 610 196 630 150 c 128,-1,14
 650 104 650 104 705 104 c 0,0,1
1817 803 m 1,15,16
 1817 680 1817 680 1760.5 611.5 c 128,-1,17
 1704 543 1704 543 1599 543 c 0,18,19
 1554 543 1554 543 1496.5 556 c 128,-1,20
 1439 569 1439 569 1395 594 c 1,21,22
 1387 586 1387 586 1378.5 541 c 128,-1,23
 1370 496 1370 496 1370 449 c 0,24,25
 1370 367 1370 367 1409 338 c 128,-1,26
 1448 309 1448 309 1546 309 c 0,27,28
 1684 309 1684 309 1776 344 c 1,29,30
 1796 288 1796 288 1796 223 c 0,31,32
 1796 -41 1796 -41 1413 -41 c 0,33,34
 1286 -41 1286 -41 1209 -10.5 c 128,-1,35
 1132 20 1132 20 1081 90 c 1,36,37
 955 -41 955 -41 666 -41 c 0,38,39
 381 -41 381 -41 227.5 108.5 c 128,-1,40
 74 258 74 258 74 567 c 0,41,42
 74 747 74 747 129.5 898.5 c 128,-1,43
 185 1050 185 1050 288 1160 c 128,-1,44
 391 1270 391 1270 547 1331.5 c 128,-1,45
 703 1393 703 1393 895 1393 c 0,46,47
 1049 1393 1049 1393 1167 1352 c 1,48,-1
 1964 1352 l 1,49,50
 1964 1205 1964 1205 1892.5 1135 c 128,-1,51
 1821 1065 1821 1065 1704 1065 c 0,52,53
 1592 1065 1592 1065 1479 1120 c 1,54,-1
 1425 803 l 1,55,-1
 1817 803 l 1,15,16
EndSplineSet
Validated: 8388609
Position2: "'cpsp' Capital Spacing lookup 3 subtable" dx=10 dy=0 dh=20 dv=0
EndChar

StartChar: P
Encoding: 80 80 100
Width: 1415
Flags: MW
HStem: 1227 135<801 873>
VStem: 1012 465<956 1103>
LayerCount: 2
UndoRedoHistory
Layer: 1
Undoes
EndUndoes
Redoes
EndRedoes
EndUndoRedoHistory
Fore
SplineSet
-18 0 m 1,0,-1
 238 1352 l 1,1,2
 318 1354 318 1354 380.5 1357 c 128,-1,3
 443 1360 443 1360 488.5 1361 c 128,-1,4
 534 1362 534 1362 631 1362 c 0,5,6
 744 1362 744 1362 811.5 1361 c 128,-1,7
 879 1360 879 1360 967 1356.5 c 128,-1,8
 1055 1353 1055 1353 1105.5 1346 c 128,-1,9
 1156 1339 1156 1339 1218 1326.5 c 128,-1,10
 1280 1314 1280 1314 1313.5 1295 c 128,-1,11
 1347 1276 1347 1276 1383.5 1248.5 c 128,-1,12
 1420 1221 1420 1221 1437 1185 c 128,-1,13
 1454 1149 1454 1149 1465.5 1101.5 c 128,-1,14
 1477 1054 1477 1054 1477 995 c 0,15,16
 1477 886 1477 886 1436 799.5 c 128,-1,17
 1395 713 1395 713 1324.5 659 c 128,-1,18
 1254 605 1254 605 1162.5 577 c 128,-1,19
 1071 549 1071 549 967 549 c 0,20,21
 745 549 745 549 690 676 c 1,22,23
 741 679 741 679 772 690 c 1,24,25
 886 719 886 719 949 816 c 128,-1,26
 1012 913 1012 913 1012 1028 c 0,27,28
 1012 1136 1012 1136 961 1181.5 c 128,-1,29
 910 1227 910 1227 811 1227 c 0,30,31
 762 1227 762 1227 758 1223 c 1,32,-1
 526 0 l 1,33,-1
 -18 0 l 1,0,-1
EndSplineSet
Validated: 1
Position2: "'cpsp' Capital Spacing lookup 3 subtable" dx=10 dy=0 dh=20 dv=0
EndChar

StartChar: Thorn
Encoding: 222 222 101
Width: 1386
Flags: MW
HStem: 971 131<773 835> 971 381<765 788 238 835>
VStem: 963 465<680 846>
LayerCount: 2
UndoRedoHistory
Layer: 1
Undoes
EndUndoes
Redoes
EndRedoes
EndUndoRedoHistory
Fore
SplineSet
739 1100 m 1,0,1
 747 1102 747 1102 780 1102 c 0,2,3
 860 1102 860 1102 924 1098.5 c 128,-1,4
 988 1095 988 1095 1057.5 1085.5 c 128,-1,5
 1127 1076 1127 1076 1179 1059 c 128,-1,6
 1231 1042 1231 1042 1279.5 1013.5 c 128,-1,7
 1328 985 1328 985 1359 946 c 128,-1,8
 1390 907 1390 907 1408.5 851 c 128,-1,9
 1427 795 1427 795 1427 725 c 0,10,11
 1427 588 1427 588 1358.5 487.5 c 128,-1,12
 1290 387 1290 387 1175 337 c 128,-1,13
 1060 287 1060 287 915 287 c 0,14,15
 696 287 696 287 641 414 c 1,16,17
 645 415 645 415 655.5 416 c 128,-1,18
 666 417 666 417 676 418.5 c 128,-1,19
 686 420 686 420 692 422 c 0,20,21
 812 447 812 447 887.5 541.5 c 128,-1,22
 963 636 963 636 963 774 c 0,23,24
 963 879 963 879 915.5 925 c 128,-1,25
 868 971 868 971 772 971 c 0,26,27
 727 971 727 971 715 969 c 1,28,-1
 526 0 l 1,29,-1
 -23 0 l 1,30,-1
 238 1352 l 1,31,-1
 788 1352 l 1,32,-1
 739 1100 l 1,0,1
EndSplineSet
Validated: 8388609
Position2: "'cpsp' Capital Spacing lookup 3 subtable" dx=10 dy=0 dh=20 dv=0
EndChar

StartChar: Q
Encoding: 81 81 102
Width: 1505
Flags: MW
HStem: -414 346<951 1053 951 1081> 160 166 1249 143<827 905>
VStem: 80 535<470 523 464 871> 971 539<571 1130>
LayerCount: 2
UndoRedoHistory
Layer: 1
Undoes
EndUndoes
Redoes
EndRedoes
EndUndoRedoHistory
Fore
SplineSet
918 1393 m 0,0,1
 1202 1393 1202 1393 1355.5 1243 c 128,-1,2
 1509 1093 1509 1093 1509 788 c 0,3,4
 1509 574 1509 574 1410 392 c 128,-1,5
 1311 210 1311 210 1137.5 100 c 128,-1,6
 964 -10 964 -10 752 -20 c 1,7,8
 860 -68 860 -68 997 -68 c 0,9,10
 1165 -68 1165 -68 1286 4 c 1,11,12
 1309 -47 1309 -47 1309 -129 c 0,13,14
 1309 -206 1309 -206 1282 -264 c 128,-1,15
 1255 -322 1255 -322 1210.5 -353.5 c 128,-1,16
 1166 -385 1166 -385 1117.5 -399.5 c 128,-1,17
 1069 -414 1069 -414 1018 -414 c 0,18,19
 951 -414 951 -414 875.5 -388.5 c 128,-1,20
 800 -363 800 -363 742.5 -333 c 128,-1,21
 685 -303 685 -303 607 -277.5 c 128,-1,22
 529 -252 529 -252 457 -252 c 0,23,24
 336 -252 336 -252 248 -315 c 1,25,26
 182 -230 182 -230 182 -133 c 0,27,28
 182 -103 182 -103 187 -79 c 128,-1,29
 192 -55 192 -55 200 -36 c 128,-1,30
 208 -17 208 -17 225 -1.5 c 128,-1,31
 242 14 242 14 256.5 25 c 128,-1,32
 271 36 271 36 300.5 45.5 c 128,-1,33
 330 55 330 55 352 61 c 128,-1,34
 374 67 374 67 416 73.5 c 128,-1,35
 458 80 458 80 487.5 84 c 128,-1,36
 517 88 517 88 571 94 c 0,37,38
 620 100 620 100 662.5 120.5 c 128,-1,39
 705 141 705 141 751 190.5 c 128,-1,40
 797 240 797 240 833 316.5 c 128,-1,41
 869 393 869 393 901.5 517 c 128,-1,42
 934 641 934 641 954 803 c 1,43,44
 971 964 971 964 971 1049 c 0,45,46
 971 1163 971 1163 947.5 1206 c 128,-1,47
 924 1249 924 1249 879 1249 c 0,48,49
 842 1249 842 1249 807.5 1211 c 128,-1,50
 773 1173 773 1173 744.5 1108 c 128,-1,51
 716 1043 716 1043 694 969 c 128,-1,52
 672 895 672 895 655 811 c 0,53,54
 614 612 614 612 614 494 c 0,55,56
 614 328 614 328 713 326 c 1,57,58
 713 251 713 251 641.5 205.5 c 128,-1,59
 570 160 570 160 449 160 c 0,60,61
 80 160 80 160 80 612 c 0,62,63
 80 801 80 801 145 951.5 c 128,-1,64
 210 1102 210 1102 324.5 1197.5 c 128,-1,65
 439 1293 439 1293 590 1343 c 128,-1,66
 741 1393 741 1393 918 1393 c 0,0,1
EndSplineSet
Validated: 1
Position2: "'cpsp' Capital Spacing lookup 3 subtable" dx=10 dy=0 dh=20 dv=0
EndChar

StartChar: R
Encoding: 82 82 103
Width: 1409
Flags: MW
HStem: 1229 129<760 813 760 760>
VStem: 969 467<921 1091>
LayerCount: 2
UndoRedoHistory
Layer: 1
Undoes
EndUndoes
Redoes
EndRedoes
EndUndoRedoHistory
Fore
SplineSet
238 1352 m 1,0,1
 343 1353 343 1353 515 1355.5 c 128,-1,2
 687 1358 687 1358 770 1358 c 0,3,4
 840 1358 840 1358 891 1357 c 128,-1,5
 942 1356 942 1356 1003 1351.5 c 128,-1,6
 1064 1347 1064 1347 1108 1339.5 c 128,-1,7
 1152 1332 1152 1332 1200 1319 c 128,-1,8
 1248 1306 1248 1306 1281 1288 c 128,-1,9
 1314 1270 1314 1270 1345.5 1243.5 c 128,-1,10
 1377 1217 1377 1217 1395.5 1183.5 c 128,-1,11
 1414 1150 1414 1150 1425 1106 c 128,-1,12
 1436 1062 1436 1062 1436 1008 c 0,13,14
 1436 850 1436 850 1348 748.5 c 128,-1,15
 1260 647 1260 647 1110 610 c 1,16,17
 1153 431 1153 431 1224 308.5 c 128,-1,18
 1295 186 1295 186 1391 145 c 1,19,20
 1323 -41 1323 -41 1108 -41 c 0,21,22
 1052 -41 1052 -41 1004.5 -27.5 c 128,-1,23
 957 -14 957 -14 920 8.5 c 128,-1,24
 883 31 883 31 852 68.5 c 128,-1,25
 821 106 821 106 799 144 c 128,-1,26
 777 182 777 182 758.5 238.5 c 128,-1,27
 740 295 740 295 728 343.5 c 128,-1,28
 716 392 716 392 705 461 c 128,-1,29
 694 530 694 530 688 583.5 c 128,-1,30
 682 637 682 637 674 713 c 1,31,-1
 670 715 l 1,32,33
 812 715 812 715 890.5 793 c 128,-1,34
 969 871 969 871 969 1028 c 0,35,36
 969 1127 969 1127 933.5 1178 c 128,-1,37
 898 1229 898 1229 813 1229 c 2,38,-1
 760 1229 l 1,39,-1
 526 0 l 1,40,-1
 -10 0 l 1,41,-1
 238 1352 l 1,0,1
EndSplineSet
Validated: 1
Position2: "'cpsp' Capital Spacing lookup 3 subtable" dx=10 dy=0 dh=20 dv=0
EndChar

StartChar: Racute
Encoding: 340 340 104
Width: 1409
Flags: MW
HStem: 1229 129<760 813 760 760>
VStem: 969 467<921 1091>
LayerCount: 2
UndoRedoHistory
Layer: 1
Undoes
EndUndoes
Redoes
EndRedoes
EndUndoRedoHistory
Fore
SplineSet
238 1352 m 1,0,1
 343 1353 343 1353 515 1355.5 c 128,-1,2
 687 1358 687 1358 770 1358 c 0,3,4
 840 1358 840 1358 891 1357 c 128,-1,5
 942 1356 942 1356 1003 1351.5 c 128,-1,6
 1064 1347 1064 1347 1108 1339.5 c 128,-1,7
 1152 1332 1152 1332 1200 1319 c 128,-1,8
 1248 1306 1248 1306 1281 1288 c 128,-1,9
 1314 1270 1314 1270 1345.5 1243.5 c 128,-1,10
 1377 1217 1377 1217 1395.5 1183.5 c 128,-1,11
 1414 1150 1414 1150 1425 1106 c 128,-1,12
 1436 1062 1436 1062 1436 1008 c 0,13,14
 1436 850 1436 850 1348 748.5 c 128,-1,15
 1260 647 1260 647 1110 610 c 1,16,17
 1153 431 1153 431 1224 308.5 c 128,-1,18
 1295 186 1295 186 1391 145 c 1,19,20
 1323 -41 1323 -41 1108 -41 c 0,21,22
 1052 -41 1052 -41 1004.5 -27.5 c 128,-1,23
 957 -14 957 -14 920 8.5 c 128,-1,24
 883 31 883 31 852 68.5 c 128,-1,25
 821 106 821 106 799 144 c 128,-1,26
 777 182 777 182 758.5 238.5 c 128,-1,27
 740 295 740 295 728 343.5 c 128,-1,28
 716 392 716 392 705 461 c 128,-1,29
 694 530 694 530 688 583.5 c 128,-1,30
 682 637 682 637 674 713 c 1,31,-1
 670 715 l 1,32,33
 812 715 812 715 890.5 793 c 128,-1,34
 969 871 969 871 969 1028 c 0,35,36
 969 1127 969 1127 933.5 1178 c 128,-1,37
 898 1229 898 1229 813 1229 c 2,38,-1
 760 1229 l 1,39,-1
 526 0 l 1,40,-1
 -10 0 l 1,41,-1
 238 1352 l 1,0,1
655 1556 m 1,42,-1
 1167 1780 l 1,43,44
 1199 1754 1199 1754 1215 1727 c 128,-1,45
 1231 1700 1231 1700 1231 1659 c 0,46,47
 1231 1559 1231 1559 1147 1509.5 c 128,-1,48
 1063 1460 1063 1460 930 1458 c 1,49,-1
 684 1452 l 1,50,-1
 655 1556 l 1,42,-1
EndSplineSet
Validated: 1
Position2: "'cpsp' Capital Spacing lookup 3 subtable" dx=10 dy=0 dh=20 dv=0
EndChar

StartChar: Rcaron
Encoding: 344 344 105
Width: 1409
Flags: MW
HStem: 1229 129<760 813 760 760>
VStem: 969 467<921 1091>
LayerCount: 2
UndoRedoHistory
Layer: 1
Undoes
EndUndoes
Redoes
EndRedoes
EndUndoRedoHistory
Fore
SplineSet
238 1352 m 1,0,1
 343 1353 343 1353 515 1355.5 c 128,-1,2
 687 1358 687 1358 770 1358 c 0,3,4
 840 1358 840 1358 891 1357 c 128,-1,5
 942 1356 942 1356 1003 1351.5 c 128,-1,6
 1064 1347 1064 1347 1108 1339.5 c 128,-1,7
 1152 1332 1152 1332 1200 1319 c 128,-1,8
 1248 1306 1248 1306 1281 1288 c 128,-1,9
 1314 1270 1314 1270 1345.5 1243.5 c 128,-1,10
 1377 1217 1377 1217 1395.5 1183.5 c 128,-1,11
 1414 1150 1414 1150 1425 1106 c 128,-1,12
 1436 1062 1436 1062 1436 1008 c 0,13,14
 1436 850 1436 850 1348 748.5 c 128,-1,15
 1260 647 1260 647 1110 610 c 1,16,17
 1153 431 1153 431 1224 308.5 c 128,-1,18
 1295 186 1295 186 1391 145 c 1,19,20
 1323 -41 1323 -41 1108 -41 c 0,21,22
 1052 -41 1052 -41 1004.5 -27.5 c 128,-1,23
 957 -14 957 -14 920 8.5 c 128,-1,24
 883 31 883 31 852 68.5 c 128,-1,25
 821 106 821 106 799 144 c 128,-1,26
 777 182 777 182 758.5 238.5 c 128,-1,27
 740 295 740 295 728 343.5 c 128,-1,28
 716 392 716 392 705 461 c 128,-1,29
 694 530 694 530 688 583.5 c 128,-1,30
 682 637 682 637 674 713 c 1,31,-1
 670 715 l 1,32,33
 812 715 812 715 890.5 793 c 128,-1,34
 969 871 969 871 969 1028 c 0,35,36
 969 1127 969 1127 933.5 1178 c 128,-1,37
 898 1229 898 1229 813 1229 c 2,38,-1
 760 1229 l 1,39,-1
 526 0 l 1,40,-1
 -10 0 l 1,41,-1
 238 1352 l 1,0,1
616 1782 m 1,42,-1
 889 1665 l 1,43,-1
 1231 1782 l 1,44,-1
 1298 1690 l 1,45,-1
 971 1423 l 1,46,-1
 756 1423 l 1,47,-1
 504 1690 l 1,48,-1
 616 1782 l 1,42,-1
EndSplineSet
Validated: 1
Position2: "'cpsp' Capital Spacing lookup 3 subtable" dx=10 dy=0 dh=20 dv=0
EndChar

StartChar: Rcommaaccent
Encoding: 342 342 106
Width: 1409
Flags: MW
HStem: 1229 129<760 813 760 760>
VStem: 471 326<-321 -234> 969 467<921 1091>
LayerCount: 2
UndoRedoHistory
Layer: 1
Undoes
EndUndoes
Redoes
EndRedoes
EndUndoRedoHistory
Fore
SplineSet
797 -233 m 0,0,1
 797 -309 797 -309 757 -372.5 c 128,-1,2
 717 -436 717 -436 656.5 -473.5 c 128,-1,3
 596 -511 596 -511 533 -531 c 128,-1,4
 470 -551 470 -551 416 -551 c 0,5,6
 384 -551 384 -551 340 -537 c 1,7,8
 417 -459 417 -459 444 -404 c 128,-1,9
 471 -349 471 -349 471 -254 c 0,10,11
 471 -226 471 -226 464 -190.5 c 128,-1,12
 457 -155 457 -155 449 -139 c 1,13,14
 550 -106 550 -106 614 -106 c 0,15,16
 797 -106 797 -106 797 -233 c 0,0,1
238 1352 m 1,17,18
 343 1353 343 1353 515 1355.5 c 128,-1,19
 687 1358 687 1358 770 1358 c 0,20,21
 840 1358 840 1358 891 1357 c 128,-1,22
 942 1356 942 1356 1003 1351.5 c 128,-1,23
 1064 1347 1064 1347 1108 1339.5 c 128,-1,24
 1152 1332 1152 1332 1200 1319 c 128,-1,25
 1248 1306 1248 1306 1281 1288 c 128,-1,26
 1314 1270 1314 1270 1345.5 1243.5 c 128,-1,27
 1377 1217 1377 1217 1395.5 1183.5 c 128,-1,28
 1414 1150 1414 1150 1425 1106 c 128,-1,29
 1436 1062 1436 1062 1436 1008 c 0,30,31
 1436 850 1436 850 1348 748.5 c 128,-1,32
 1260 647 1260 647 1110 610 c 1,33,34
 1153 431 1153 431 1224 308.5 c 128,-1,35
 1295 186 1295 186 1391 145 c 1,36,37
 1323 -41 1323 -41 1108 -41 c 0,38,39
 1052 -41 1052 -41 1004.5 -27.5 c 128,-1,40
 957 -14 957 -14 920 8.5 c 128,-1,41
 883 31 883 31 852 68.5 c 128,-1,42
 821 106 821 106 799 144 c 128,-1,43
 777 182 777 182 758.5 238.5 c 128,-1,44
 740 295 740 295 728 343.5 c 128,-1,45
 716 392 716 392 705 461 c 128,-1,46
 694 530 694 530 688 583.5 c 128,-1,47
 682 637 682 637 674 713 c 1,48,-1
 670 715 l 1,49,50
 812 715 812 715 890.5 793 c 128,-1,51
 969 871 969 871 969 1028 c 0,52,53
 969 1127 969 1127 933.5 1178 c 128,-1,54
 898 1229 898 1229 813 1229 c 2,55,-1
 760 1229 l 1,56,-1
 526 0 l 1,57,-1
 -10 0 l 1,58,-1
 238 1352 l 1,17,18
EndSplineSet
Validated: 1
Position2: "'cpsp' Capital Spacing lookup 3 subtable" dx=10 dy=0 dh=20 dv=0
EndChar

StartChar: Rdotbelow
Encoding: 7770 7770 107
Width: 1409
Flags: MW
HStem: -412 346<598 730> 1229 129<760 813 760 760>
VStem: 418 485<-296 -188> 969 467<921 1091>
LayerCount: 2
UndoRedoHistory
Layer: 1
Undoes
EndUndoes
Redoes
EndRedoes
EndUndoRedoHistory
Fore
SplineSet
668 -66 m 0,0,1
 773 -66 773 -66 838 -113.5 c 128,-1,2
 903 -161 903 -161 903 -240 c 0,3,4
 903 -322 903 -322 835.5 -367 c 128,-1,5
 768 -412 768 -412 659 -412 c 128,-1,6
 550 -412 550 -412 484 -368 c 128,-1,7
 418 -324 418 -324 418 -244 c 0,8,9
 418 -163 418 -163 489.5 -114.5 c 128,-1,10
 561 -66 561 -66 668 -66 c 0,0,1
238 1352 m 1,11,12
 343 1353 343 1353 515 1355.5 c 128,-1,13
 687 1358 687 1358 770 1358 c 0,14,15
 840 1358 840 1358 891 1357 c 128,-1,16
 942 1356 942 1356 1003 1351.5 c 128,-1,17
 1064 1347 1064 1347 1108 1339.5 c 128,-1,18
 1152 1332 1152 1332 1200 1319 c 128,-1,19
 1248 1306 1248 1306 1281 1288 c 128,-1,20
 1314 1270 1314 1270 1345.5 1243.5 c 128,-1,21
 1377 1217 1377 1217 1395.5 1183.5 c 128,-1,22
 1414 1150 1414 1150 1425 1106 c 128,-1,23
 1436 1062 1436 1062 1436 1008 c 0,24,25
 1436 850 1436 850 1348 748.5 c 128,-1,26
 1260 647 1260 647 1110 610 c 1,27,28
 1153 431 1153 431 1224 308.5 c 128,-1,29
 1295 186 1295 186 1391 145 c 1,30,31
 1323 -41 1323 -41 1108 -41 c 0,32,33
 1052 -41 1052 -41 1004.5 -27.5 c 128,-1,34
 957 -14 957 -14 920 8.5 c 128,-1,35
 883 31 883 31 852 68.5 c 128,-1,36
 821 106 821 106 799 144 c 128,-1,37
 777 182 777 182 758.5 238.5 c 128,-1,38
 740 295 740 295 728 343.5 c 128,-1,39
 716 392 716 392 705 461 c 128,-1,40
 694 530 694 530 688 583.5 c 128,-1,41
 682 637 682 637 674 713 c 1,42,-1
 670 715 l 1,43,44
 812 715 812 715 890.5 793 c 128,-1,45
 969 871 969 871 969 1028 c 0,46,47
 969 1127 969 1127 933.5 1178 c 128,-1,48
 898 1229 898 1229 813 1229 c 2,49,-1
 760 1229 l 1,50,-1
 526 0 l 1,51,-1
 -10 0 l 1,52,-1
 238 1352 l 1,11,12
EndSplineSet
Validated: 1
Position2: "'cpsp' Capital Spacing lookup 3 subtable" dx=10 dy=0 dh=20 dv=0
EndChar

StartChar: S
Encoding: 83 83 108
Width: 1214
Flags: MW
HStem: -39 133<453 542 453 593> 1266 127<737 829>
VStem: -16 397<214 281> 106 492<991 1025> 659 506<293 319> 915 377<1067 1129>
LayerCount: 2
UndoRedoHistory
Layer: 1
Undoes
EndUndoes
Redoes
EndRedoes
EndUndoRedoHistory
Fore
SplineSet
854 1393 m 0,0,1
 915 1393 915 1393 968.5 1388 c 128,-1,2
 1022 1383 1022 1383 1084 1367 c 128,-1,3
 1146 1351 1146 1351 1190 1325 c 128,-1,4
 1234 1299 1234 1299 1263 1253 c 128,-1,5
 1292 1207 1292 1207 1292 1145 c 0,6,7
 1292 1035 1292 1035 1210 976.5 c 128,-1,8
 1128 918 1128 918 1014 918 c 0,9,10
 959 918 959 918 885 936 c 1,11,12
 915 1001 915 1001 915 1083 c 0,13,14
 915 1160 915 1160 881.5 1213 c 128,-1,15
 848 1266 848 1266 780 1266 c 0,16,17
 710 1266 710 1266 654 1208.5 c 128,-1,18
 598 1151 598 1151 598 1057 c 0,19,20
 598 1019 598 1019 616 988.5 c 128,-1,21
 634 958 634 958 672 931.5 c 128,-1,22
 710 905 710 905 744.5 886.5 c 128,-1,23
 779 868 779 868 839.5 839.5 c 128,-1,24
 900 811 900 811 934 793 c 1,25,26
 1041 740 1041 740 1103 666 c 128,-1,27
 1165 592 1165 592 1165 475 c 0,28,29
 1165 368 1165 368 1123.5 281.5 c 128,-1,30
 1082 195 1082 195 1010 136 c 128,-1,31
 938 77 938 77 838.5 37 c 128,-1,32
 739 -3 739 -3 626.5 -21 c 128,-1,33
 514 -39 514 -39 387 -39 c 0,34,35
 347 -39 347 -39 315.5 -37.5 c 128,-1,36
 284 -36 284 -36 240 -30.5 c 128,-1,37
 196 -25 196 -25 163 -15 c 128,-1,38
 130 -5 130 -5 94.5 14 c 128,-1,39
 59 33 59 33 36.5 59 c 128,-1,40
 14 85 14 85 -1 124.5 c 128,-1,41
 -16 164 -16 164 -16 213 c 0,42,43
 -16 322 -16 322 52 395.5 c 128,-1,44
 120 469 120 469 248 469 c 0,45,46
 334 469 334 469 416 442 c 1,47,48
 381 349 381 349 381 258 c 0,49,50
 381 185 381 185 408.5 139.5 c 128,-1,51
 436 94 436 94 496 94 c 0,52,53
 567 94 567 94 613 136 c 128,-1,54
 659 178 659 178 659 252 c 0,55,56
 659 291 659 291 640.5 324 c 128,-1,57
 622 357 622 357 582.5 387 c 128,-1,58
 543 417 543 417 510.5 436.5 c 128,-1,59
 478 456 478 456 418 487.5 c 128,-1,60
 358 519 358 519 330 535 c 0,61,62
 224 592 224 592 165 669.5 c 128,-1,63
 106 747 106 747 106 870 c 0,64,65
 106 1022 106 1022 203 1141.5 c 128,-1,66
 300 1261 300 1261 470.5 1327 c 128,-1,67
 641 1393 641 1393 854 1393 c 0,0,1
EndSplineSet
Validated: 8388609
Position2: "'cpsp' Capital Spacing lookup 3 subtable" dx=10 dy=0 dh=20 dv=0
EndChar

StartChar: Sacute
Encoding: 346 346 109
Width: 1214
Flags: MW
HStem: -39 133<453 542 453 593> 1266 127<737 829>
VStem: -16 397<214 281> 106 492<991 1025> 659 506<293 319> 915 377<1067 1129>
LayerCount: 2
UndoRedoHistory
Layer: 1
Undoes
EndUndoes
Redoes
EndRedoes
EndUndoRedoHistory
Fore
SplineSet
854 1393 m 0,0,1
 915 1393 915 1393 968.5 1388 c 128,-1,2
 1022 1383 1022 1383 1084 1367 c 128,-1,3
 1146 1351 1146 1351 1190 1325 c 128,-1,4
 1234 1299 1234 1299 1263 1253 c 128,-1,5
 1292 1207 1292 1207 1292 1145 c 0,6,7
 1292 1035 1292 1035 1210 976.5 c 128,-1,8
 1128 918 1128 918 1014 918 c 0,9,10
 959 918 959 918 885 936 c 1,11,12
 915 1001 915 1001 915 1083 c 0,13,14
 915 1160 915 1160 881.5 1213 c 128,-1,15
 848 1266 848 1266 780 1266 c 0,16,17
 710 1266 710 1266 654 1208.5 c 128,-1,18
 598 1151 598 1151 598 1057 c 0,19,20
 598 1019 598 1019 616 988.5 c 128,-1,21
 634 958 634 958 672 931.5 c 128,-1,22
 710 905 710 905 744.5 886.5 c 128,-1,23
 779 868 779 868 839.5 839.5 c 128,-1,24
 900 811 900 811 934 793 c 1,25,26
 1041 740 1041 740 1103 666 c 128,-1,27
 1165 592 1165 592 1165 475 c 0,28,29
 1165 368 1165 368 1123.5 281.5 c 128,-1,30
 1082 195 1082 195 1010 136 c 128,-1,31
 938 77 938 77 838.5 37 c 128,-1,32
 739 -3 739 -3 626.5 -21 c 128,-1,33
 514 -39 514 -39 387 -39 c 0,34,35
 347 -39 347 -39 315.5 -37.5 c 128,-1,36
 284 -36 284 -36 240 -30.5 c 128,-1,37
 196 -25 196 -25 163 -15 c 128,-1,38
 130 -5 130 -5 94.5 14 c 128,-1,39
 59 33 59 33 36.5 59 c 128,-1,40
 14 85 14 85 -1 124.5 c 128,-1,41
 -16 164 -16 164 -16 213 c 0,42,43
 -16 322 -16 322 52 395.5 c 128,-1,44
 120 469 120 469 248 469 c 0,45,46
 334 469 334 469 416 442 c 1,47,48
 381 349 381 349 381 258 c 0,49,50
 381 185 381 185 408.5 139.5 c 128,-1,51
 436 94 436 94 496 94 c 0,52,53
 567 94 567 94 613 136 c 128,-1,54
 659 178 659 178 659 252 c 0,55,56
 659 291 659 291 640.5 324 c 128,-1,57
 622 357 622 357 582.5 387 c 128,-1,58
 543 417 543 417 510.5 436.5 c 128,-1,59
 478 456 478 456 418 487.5 c 128,-1,60
 358 519 358 519 330 535 c 0,61,62
 224 592 224 592 165 669.5 c 128,-1,63
 106 747 106 747 106 870 c 0,64,65
 106 1022 106 1022 203 1141.5 c 128,-1,66
 300 1261 300 1261 470.5 1327 c 128,-1,67
 641 1393 641 1393 854 1393 c 0,0,1
664 1556 m 1,68,-1
 1176 1780 l 1,69,70
 1208 1754 1208 1754 1223.5 1727.5 c 128,-1,71
 1239 1701 1239 1701 1239 1659 c 0,72,73
 1239 1559 1239 1559 1155 1509.5 c 128,-1,74
 1071 1460 1071 1460 938 1458 c 1,75,-1
 692 1452 l 1,76,-1
 664 1556 l 1,68,-1
EndSplineSet
Validated: 8388609
Substitution2: "'locl' Localized Forms in Latin lookup 13 subtable" Sacute.loclPLK
Substitution2: "'aalt' Access All Alternates lookup 0 subtable" Sacute.loclPLK
Position2: "'cpsp' Capital Spacing lookup 3 subtable" dx=10 dy=0 dh=20 dv=0
EndChar

StartChar: Scaron
Encoding: 352 352 110
Width: 1214
Flags: MW
HStem: -39 133<453 542 453 593> 1266 127<737 829>
VStem: -16 397<214 281> 106 492<991 1025> 659 506<293 319> 915 377<1067 1129>
LayerCount: 2
UndoRedoHistory
Layer: 1
Undoes
EndUndoes
Redoes
EndRedoes
EndUndoRedoHistory
Fore
SplineSet
854 1393 m 0,0,1
 915 1393 915 1393 968.5 1388 c 128,-1,2
 1022 1383 1022 1383 1084 1367 c 128,-1,3
 1146 1351 1146 1351 1190 1325 c 128,-1,4
 1234 1299 1234 1299 1263 1253 c 128,-1,5
 1292 1207 1292 1207 1292 1145 c 0,6,7
 1292 1035 1292 1035 1210 976.5 c 128,-1,8
 1128 918 1128 918 1014 918 c 0,9,10
 959 918 959 918 885 936 c 1,11,12
 915 1001 915 1001 915 1083 c 0,13,14
 915 1160 915 1160 881.5 1213 c 128,-1,15
 848 1266 848 1266 780 1266 c 0,16,17
 710 1266 710 1266 654 1208.5 c 128,-1,18
 598 1151 598 1151 598 1057 c 0,19,20
 598 1019 598 1019 616 988.5 c 128,-1,21
 634 958 634 958 672 931.5 c 128,-1,22
 710 905 710 905 744.5 886.5 c 128,-1,23
 779 868 779 868 839.5 839.5 c 128,-1,24
 900 811 900 811 934 793 c 1,25,26
 1041 740 1041 740 1103 666 c 128,-1,27
 1165 592 1165 592 1165 475 c 0,28,29
 1165 368 1165 368 1123.5 281.5 c 128,-1,30
 1082 195 1082 195 1010 136 c 128,-1,31
 938 77 938 77 838.5 37 c 128,-1,32
 739 -3 739 -3 626.5 -21 c 128,-1,33
 514 -39 514 -39 387 -39 c 0,34,35
 347 -39 347 -39 315.5 -37.5 c 128,-1,36
 284 -36 284 -36 240 -30.5 c 128,-1,37
 196 -25 196 -25 163 -15 c 128,-1,38
 130 -5 130 -5 94.5 14 c 128,-1,39
 59 33 59 33 36.5 59 c 128,-1,40
 14 85 14 85 -1 124.5 c 128,-1,41
 -16 164 -16 164 -16 213 c 0,42,43
 -16 322 -16 322 52 395.5 c 128,-1,44
 120 469 120 469 248 469 c 0,45,46
 334 469 334 469 416 442 c 1,47,48
 381 349 381 349 381 258 c 0,49,50
 381 185 381 185 408.5 139.5 c 128,-1,51
 436 94 436 94 496 94 c 0,52,53
 567 94 567 94 613 136 c 128,-1,54
 659 178 659 178 659 252 c 0,55,56
 659 291 659 291 640.5 324 c 128,-1,57
 622 357 622 357 582.5 387 c 128,-1,58
 543 417 543 417 510.5 436.5 c 128,-1,59
 478 456 478 456 418 487.5 c 128,-1,60
 358 519 358 519 330 535 c 0,61,62
 224 592 224 592 165 669.5 c 128,-1,63
 106 747 106 747 106 870 c 0,64,65
 106 1022 106 1022 203 1141.5 c 128,-1,66
 300 1261 300 1261 470.5 1327 c 128,-1,67
 641 1393 641 1393 854 1393 c 0,0,1
625 1782 m 1,68,-1
 897 1665 l 1,69,-1
 1239 1782 l 1,70,-1
 1307 1690 l 1,71,-1
 979 1423 l 1,72,-1
 764 1423 l 1,73,-1
 512 1690 l 1,74,-1
 625 1782 l 1,68,-1
EndSplineSet
Validated: 8388609
Position2: "'cpsp' Capital Spacing lookup 3 subtable" dx=10 dy=0 dh=20 dv=0
EndChar

StartChar: Scedilla
Encoding: 350 350 111
Width: 1214
Flags: MW
HStem: -532 164<396 447 392 556> -225 115 -39 133<310 542 387 542> 1266 127<737 829>
VStem: -16 397<214 281> 106 492<991 1025> 514 303<-321 -264> 915 377<1067 1129>
LayerCount: 2
UndoRedoHistory
Layer: 1
Undoes
EndUndoes
Redoes
EndRedoes
EndUndoRedoHistory
Fore
SplineSet
401 -39 m 1,0,-1
 387 -39 l 2,1,2
 347 -39 347 -39 315.5 -37.5 c 128,-1,3
 284 -36 284 -36 240 -30.5 c 128,-1,4
 196 -25 196 -25 163 -15 c 128,-1,5
 130 -5 130 -5 94.5 14 c 128,-1,6
 59 33 59 33 36.5 59 c 128,-1,7
 14 85 14 85 -1 124.5 c 128,-1,8
 -16 164 -16 164 -16 213 c 0,9,10
 -16 322 -16 322 52 395.5 c 128,-1,11
 120 469 120 469 248 469 c 0,12,13
 334 469 334 469 416 442 c 1,14,15
 381 349 381 349 381 258 c 0,16,17
 381 185 381 185 408.5 139.5 c 128,-1,18
 436 94 436 94 496 94 c 0,19,20
 567 94 567 94 613 136 c 128,-1,21
 659 178 659 178 659 252 c 0,22,23
 659 291 659 291 640.5 324 c 128,-1,24
 622 357 622 357 582.5 387 c 128,-1,25
 543 417 543 417 510.5 436.5 c 128,-1,26
 478 456 478 456 418 487.5 c 128,-1,27
 358 519 358 519 330 535 c 0,28,29
 224 592 224 592 165 669.5 c 128,-1,30
 106 747 106 747 106 870 c 0,31,32
 106 1022 106 1022 203 1141.5 c 128,-1,33
 300 1261 300 1261 470.5 1327 c 128,-1,34
 641 1393 641 1393 854 1393 c 0,35,36
 915 1393 915 1393 968.5 1388 c 128,-1,37
 1022 1383 1022 1383 1084 1367 c 128,-1,38
 1146 1351 1146 1351 1190 1325 c 128,-1,39
 1234 1299 1234 1299 1263 1253 c 128,-1,40
 1292 1207 1292 1207 1292 1145 c 0,41,42
 1292 1035 1292 1035 1210 976.5 c 128,-1,43
 1128 918 1128 918 1014 918 c 0,44,45
 959 918 959 918 885 936 c 1,46,47
 915 1001 915 1001 915 1083 c 0,48,49
 915 1160 915 1160 881.5 1213 c 128,-1,50
 848 1266 848 1266 780 1266 c 0,51,52
 710 1266 710 1266 654 1208.5 c 128,-1,53
 598 1151 598 1151 598 1057 c 0,54,55
 598 1019 598 1019 616 988.5 c 128,-1,56
 634 958 634 958 672 931.5 c 128,-1,57
 710 905 710 905 744.5 886.5 c 128,-1,58
 779 868 779 868 839.5 839.5 c 128,-1,59
 900 811 900 811 934 793 c 1,60,61
 1041 740 1041 740 1103 666 c 128,-1,62
 1165 592 1165 592 1165 475 c 0,63,64
 1165 365 1165 365 1121.5 276.5 c 128,-1,65
 1078 188 1078 188 999.5 128 c 128,-1,66
 921 68 921 68 820.5 30 c 128,-1,67
 720 -8 720 -8 598 -25 c 1,68,-1
 573 -111 l 1,69,-1
 580 -111 l 2,70,71
 685 -111 685 -111 751 -152.5 c 128,-1,72
 817 -194 817 -194 817 -281 c 0,73,74
 817 -391 817 -391 713 -461.5 c 128,-1,75
 609 -532 609 -532 459 -532 c 0,76,77
 365 -532 365 -532 310.5 -502 c 128,-1,78
 256 -472 256 -472 256 -420 c 0,79,80
 256 -347 256 -347 295 -299 c 1,81,82
 315 -334 315 -334 345.5 -351.5 c 128,-1,83
 376 -369 376 -369 430 -369 c 0,84,85
 461 -369 461 -369 487.5 -350 c 128,-1,86
 514 -331 514 -331 514 -293 c 0,87,88
 514 -225 514 -225 434 -225 c 0,89,90
 402 -225 402 -225 344 -229 c 1,91,-1
 401 -39 l 1,0,-1
EndSplineSet
Validated: 8388609
Substitution2: "'locl' Localized Forms in Latin lookup 12 subtable" Scommaaccent
Substitution2: "'locl' Localized Forms in Latin lookup 11 subtable" Scommaaccent
Substitution2: "'aalt' Access All Alternates lookup 0 subtable" Scommaaccent
Position2: "'cpsp' Capital Spacing lookup 3 subtable" dx=10 dy=0 dh=20 dv=0
EndChar

StartChar: Scircumflex
Encoding: 348 348 112
Width: 1214
Flags: MW
HStem: -39 133<453 542 453 593> 1266 127<737 829>
VStem: -16 397<214 281> 106 492<991 1025> 659 506<293 319> 915 377<1067 1129>
LayerCount: 2
UndoRedoHistory
Layer: 1
Undoes
EndUndoes
Redoes
EndRedoes
EndUndoRedoHistory
Fore
SplineSet
854 1393 m 0,0,1
 915 1393 915 1393 968.5 1388 c 128,-1,2
 1022 1383 1022 1383 1084 1367 c 128,-1,3
 1146 1351 1146 1351 1190 1325 c 128,-1,4
 1234 1299 1234 1299 1263 1253 c 128,-1,5
 1292 1207 1292 1207 1292 1145 c 0,6,7
 1292 1035 1292 1035 1210 976.5 c 128,-1,8
 1128 918 1128 918 1014 918 c 0,9,10
 959 918 959 918 885 936 c 1,11,12
 915 1001 915 1001 915 1083 c 0,13,14
 915 1160 915 1160 881.5 1213 c 128,-1,15
 848 1266 848 1266 780 1266 c 0,16,17
 710 1266 710 1266 654 1208.5 c 128,-1,18
 598 1151 598 1151 598 1057 c 0,19,20
 598 1019 598 1019 616 988.5 c 128,-1,21
 634 958 634 958 672 931.5 c 128,-1,22
 710 905 710 905 744.5 886.5 c 128,-1,23
 779 868 779 868 839.5 839.5 c 128,-1,24
 900 811 900 811 934 793 c 1,25,26
 1041 740 1041 740 1103 666 c 128,-1,27
 1165 592 1165 592 1165 475 c 0,28,29
 1165 368 1165 368 1123.5 281.5 c 128,-1,30
 1082 195 1082 195 1010 136 c 128,-1,31
 938 77 938 77 838.5 37 c 128,-1,32
 739 -3 739 -3 626.5 -21 c 128,-1,33
 514 -39 514 -39 387 -39 c 0,34,35
 347 -39 347 -39 315.5 -37.5 c 128,-1,36
 284 -36 284 -36 240 -30.5 c 128,-1,37
 196 -25 196 -25 163 -15 c 128,-1,38
 130 -5 130 -5 94.5 14 c 128,-1,39
 59 33 59 33 36.5 59 c 128,-1,40
 14 85 14 85 -1 124.5 c 128,-1,41
 -16 164 -16 164 -16 213 c 0,42,43
 -16 322 -16 322 52 395.5 c 128,-1,44
 120 469 120 469 248 469 c 0,45,46
 334 469 334 469 416 442 c 1,47,48
 381 349 381 349 381 258 c 0,49,50
 381 185 381 185 408.5 139.5 c 128,-1,51
 436 94 436 94 496 94 c 0,52,53
 567 94 567 94 613 136 c 128,-1,54
 659 178 659 178 659 252 c 0,55,56
 659 291 659 291 640.5 324 c 128,-1,57
 622 357 622 357 582.5 387 c 128,-1,58
 543 417 543 417 510.5 436.5 c 128,-1,59
 478 456 478 456 418 487.5 c 128,-1,60
 358 519 358 519 330 535 c 0,61,62
 224 592 224 592 165 669.5 c 128,-1,63
 106 747 106 747 106 870 c 0,64,65
 106 1022 106 1022 203 1141.5 c 128,-1,66
 300 1261 300 1261 470.5 1327 c 128,-1,67
 641 1393 641 1393 854 1393 c 0,0,1
1133 1411 m 1,68,-1
 881 1487 l 1,69,-1
 559 1411 l 1,70,-1
 492 1503 l 1,71,-1
 860 1749 l 1,72,-1
 952 1749 l 1,73,-1
 1245 1503 l 1,74,-1
 1133 1411 l 1,68,-1
EndSplineSet
Validated: 8388609
Position2: "'cpsp' Capital Spacing lookup 3 subtable" dx=10 dy=0 dh=20 dv=0
EndChar

StartChar: Scommaaccent
Encoding: 536 536 113
Width: 1214
Flags: MW
HStem: -39 133<453 542 453 593> 1266 127<737 829>
VStem: -16 397<214 281> 106 492<991 1025> 297 326<-321 -234> 659 506<293 319> 915 377<1067 1129>
LayerCount: 2
UndoRedoHistory
Layer: 1
Undoes
EndUndoes
Redoes
EndRedoes
EndUndoRedoHistory
Fore
SplineSet
623 -233 m 0,0,1
 623 -309 623 -309 583 -372.5 c 128,-1,2
 543 -436 543 -436 482.5 -473.5 c 128,-1,3
 422 -511 422 -511 359 -531 c 128,-1,4
 296 -551 296 -551 242 -551 c 0,5,6
 210 -551 210 -551 166 -537 c 1,7,8
 243 -459 243 -459 270 -404 c 128,-1,9
 297 -349 297 -349 297 -254 c 0,10,11
 297 -226 297 -226 289.5 -190.5 c 128,-1,12
 282 -155 282 -155 274 -139 c 1,13,14
 375 -106 375 -106 440 -106 c 0,15,16
 623 -106 623 -106 623 -233 c 0,0,1
854 1393 m 0,17,18
 915 1393 915 1393 968.5 1388 c 128,-1,19
 1022 1383 1022 1383 1084 1367 c 128,-1,20
 1146 1351 1146 1351 1190 1325 c 128,-1,21
 1234 1299 1234 1299 1263 1253 c 128,-1,22
 1292 1207 1292 1207 1292 1145 c 0,23,24
 1292 1035 1292 1035 1210 976.5 c 128,-1,25
 1128 918 1128 918 1014 918 c 0,26,27
 959 918 959 918 885 936 c 1,28,29
 915 1001 915 1001 915 1083 c 0,30,31
 915 1160 915 1160 881.5 1213 c 128,-1,32
 848 1266 848 1266 780 1266 c 0,33,34
 710 1266 710 1266 654 1208.5 c 128,-1,35
 598 1151 598 1151 598 1057 c 0,36,37
 598 1019 598 1019 616 988.5 c 128,-1,38
 634 958 634 958 672 931.5 c 128,-1,39
 710 905 710 905 744.5 886.5 c 128,-1,40
 779 868 779 868 839.5 839.5 c 128,-1,41
 900 811 900 811 934 793 c 1,42,43
 1041 740 1041 740 1103 666 c 128,-1,44
 1165 592 1165 592 1165 475 c 0,45,46
 1165 368 1165 368 1123.5 281.5 c 128,-1,47
 1082 195 1082 195 1010 136 c 128,-1,48
 938 77 938 77 838.5 37 c 128,-1,49
 739 -3 739 -3 626.5 -21 c 128,-1,50
 514 -39 514 -39 387 -39 c 0,51,52
 347 -39 347 -39 315.5 -37.5 c 128,-1,53
 284 -36 284 -36 240 -30.5 c 128,-1,54
 196 -25 196 -25 163 -15 c 128,-1,55
 130 -5 130 -5 94.5 14 c 128,-1,56
 59 33 59 33 36.5 59 c 128,-1,57
 14 85 14 85 -1 124.5 c 128,-1,58
 -16 164 -16 164 -16 213 c 0,59,60
 -16 322 -16 322 52 395.5 c 128,-1,61
 120 469 120 469 248 469 c 0,62,63
 334 469 334 469 416 442 c 1,64,65
 381 349 381 349 381 258 c 0,66,67
 381 185 381 185 408.5 139.5 c 128,-1,68
 436 94 436 94 496 94 c 0,69,70
 567 94 567 94 613 136 c 128,-1,71
 659 178 659 178 659 252 c 0,72,73
 659 291 659 291 640.5 324 c 128,-1,74
 622 357 622 357 582.5 387 c 128,-1,75
 543 417 543 417 510.5 436.5 c 128,-1,76
 478 456 478 456 418 487.5 c 128,-1,77
 358 519 358 519 330 535 c 0,78,79
 224 592 224 592 165 669.5 c 128,-1,80
 106 747 106 747 106 870 c 0,81,82
 106 1022 106 1022 203 1141.5 c 128,-1,83
 300 1261 300 1261 470.5 1327 c 128,-1,84
 641 1393 641 1393 854 1393 c 0,17,18
EndSplineSet
Validated: 8388609
Position2: "'cpsp' Capital Spacing lookup 3 subtable" dx=10 dy=0 dh=20 dv=0
EndChar

StartChar: Sdotbelow
Encoding: 7778 7778 114
Width: 1214
Flags: MW
HStem: -412 346<424 556> -39 133<453 542 453 593> 1266 127<737 829>
VStem: -16 397<214 281> 106 492<991 1025> 244 485<-296 -188> 659 506<293 319> 915 377<1067 1129>
LayerCount: 2
UndoRedoHistory
Layer: 1
Undoes
EndUndoes
Redoes
EndRedoes
EndUndoRedoHistory
Fore
SplineSet
494 -66 m 0,0,1
 599 -66 599 -66 664 -113.5 c 128,-1,2
 729 -161 729 -161 729 -240 c 0,3,4
 729 -322 729 -322 661.5 -367 c 128,-1,5
 594 -412 594 -412 485 -412 c 128,-1,6
 376 -412 376 -412 310 -368 c 128,-1,7
 244 -324 244 -324 244 -244 c 0,8,9
 244 -163 244 -163 315.5 -114.5 c 128,-1,10
 387 -66 387 -66 494 -66 c 0,0,1
854 1393 m 0,11,12
 915 1393 915 1393 968.5 1388 c 128,-1,13
 1022 1383 1022 1383 1084 1367 c 128,-1,14
 1146 1351 1146 1351 1190 1325 c 128,-1,15
 1234 1299 1234 1299 1263 1253 c 128,-1,16
 1292 1207 1292 1207 1292 1145 c 0,17,18
 1292 1035 1292 1035 1210 976.5 c 128,-1,19
 1128 918 1128 918 1014 918 c 0,20,21
 959 918 959 918 885 936 c 1,22,23
 915 1001 915 1001 915 1083 c 0,24,25
 915 1160 915 1160 881.5 1213 c 128,-1,26
 848 1266 848 1266 780 1266 c 0,27,28
 710 1266 710 1266 654 1208.5 c 128,-1,29
 598 1151 598 1151 598 1057 c 0,30,31
 598 1019 598 1019 616 988.5 c 128,-1,32
 634 958 634 958 672 931.5 c 128,-1,33
 710 905 710 905 744.5 886.5 c 128,-1,34
 779 868 779 868 839.5 839.5 c 128,-1,35
 900 811 900 811 934 793 c 1,36,37
 1041 740 1041 740 1103 666 c 128,-1,38
 1165 592 1165 592 1165 475 c 0,39,40
 1165 368 1165 368 1123.5 281.5 c 128,-1,41
 1082 195 1082 195 1010 136 c 128,-1,42
 938 77 938 77 838.5 37 c 128,-1,43
 739 -3 739 -3 626.5 -21 c 128,-1,44
 514 -39 514 -39 387 -39 c 0,45,46
 347 -39 347 -39 315.5 -37.5 c 128,-1,47
 284 -36 284 -36 240 -30.5 c 128,-1,48
 196 -25 196 -25 163 -15 c 128,-1,49
 130 -5 130 -5 94.5 14 c 128,-1,50
 59 33 59 33 36.5 59 c 128,-1,51
 14 85 14 85 -1 124.5 c 128,-1,52
 -16 164 -16 164 -16 213 c 0,53,54
 -16 322 -16 322 52 395.5 c 128,-1,55
 120 469 120 469 248 469 c 0,56,57
 334 469 334 469 416 442 c 1,58,59
 381 349 381 349 381 258 c 0,60,61
 381 185 381 185 408.5 139.5 c 128,-1,62
 436 94 436 94 496 94 c 0,63,64
 567 94 567 94 613 136 c 128,-1,65
 659 178 659 178 659 252 c 0,66,67
 659 291 659 291 640.5 324 c 128,-1,68
 622 357 622 357 582.5 387 c 128,-1,69
 543 417 543 417 510.5 436.5 c 128,-1,70
 478 456 478 456 418 487.5 c 128,-1,71
 358 519 358 519 330 535 c 0,72,73
 224 592 224 592 165 669.5 c 128,-1,74
 106 747 106 747 106 870 c 0,75,76
 106 1022 106 1022 203 1141.5 c 128,-1,77
 300 1261 300 1261 470.5 1327 c 128,-1,78
 641 1393 641 1393 854 1393 c 0,11,12
EndSplineSet
Validated: 8388609
Position2: "'cpsp' Capital Spacing lookup 3 subtable" dx=10 dy=0 dh=20 dv=0
EndChar

StartChar: uni1E9E
Encoding: 7838 7838 115
Width: 1595
Flags: MW
HStem: -39 141<894 946 894 1039> 0 348<-59 763> 1311 82<898 1048>
VStem: 569 272<161 206 161 206> 739 500<532 984> 1010 492<176 608>
LayerCount: 2
UndoRedoHistory
Layer: 1
Undoes
EndUndoes
Redoes
EndRedoes
EndUndoRedoHistory
Fore
SplineSet
76 678 m 2,0,1
 102 809 102 809 145 915 c 128,-1,2
 188 1021 188 1021 240 1094.5 c 128,-1,3
 292 1168 292 1168 360.5 1222.5 c 128,-1,4
 429 1277 429 1277 496.5 1309 c 128,-1,5
 564 1341 564 1341 647 1360.5 c 128,-1,6
 730 1380 730 1380 803 1386.5 c 128,-1,7
 876 1393 876 1393 963 1393 c 0,8,9
 1187 1393 1187 1393 1324.5 1343 c 128,-1,10
 1462 1293 1462 1293 1542 1190 c 1,11,12
 1524 1179 1524 1179 1477.5 1155.5 c 128,-1,13
 1431 1132 1431 1132 1396 1111 c 128,-1,14
 1361 1090 1361 1090 1322 1059.5 c 128,-1,15
 1283 1029 1283 1029 1261 988.5 c 128,-1,16
 1239 948 1239 948 1239 901 c 0,17,18
 1239 870 1239 870 1253.5 843.5 c 128,-1,19
 1268 817 1268 817 1291 796.5 c 128,-1,20
 1314 776 1314 776 1342 755.5 c 128,-1,21
 1370 735 1370 735 1398 708.5 c 128,-1,22
 1426 682 1426 682 1449 650 c 128,-1,23
 1472 618 1472 618 1486.5 569.5 c 128,-1,24
 1501 521 1501 521 1501 461 c 0,25,26
 1501 347 1501 347 1449.5 251.5 c 128,-1,27
 1398 156 1398 156 1311 93 c 128,-1,28
 1224 30 1224 30 1112 -4.5 c 128,-1,29
 1000 -39 1000 -39 877 -39 c 0,30,31
 836 -39 836 -39 804 -37 c 128,-1,32
 772 -35 772 -35 725 -23.5 c 128,-1,33
 678 -12 678 -12 646.5 7.5 c 128,-1,34
 615 27 615 27 592 65.5 c 128,-1,35
 569 104 569 104 569 158 c 0,36,37
 569 237 569 237 613.5 292.5 c 128,-1,38
 658 348 658 348 745 348 c 0,39,40
 804 348 804 348 866 322 c 1,41,42
 842 236 842 236 842 184 c 0,43,44
 842 149 842 149 862.5 125.5 c 128,-1,45
 883 102 883 102 915 102 c 0,46,47
 961 102 961 102 985.5 130.5 c 128,-1,48
 1010 159 1010 159 1010 211 c 0,49,50
 1010 248 1010 248 990 282 c 128,-1,51
 970 316 970 316 940 340.5 c 128,-1,52
 910 365 910 365 874.5 398 c 128,-1,53
 839 431 839 431 809 465 c 128,-1,54
 779 499 779 499 759 552 c 128,-1,55
 739 605 739 605 739 668 c 0,56,57
 739 746 739 746 769 818 c 128,-1,58
 799 890 799 890 843 943 c 128,-1,59
 887 996 887 996 951.5 1046 c 128,-1,60
 1016 1096 1016 1096 1071 1128 c 128,-1,61
 1126 1160 1126 1160 1192 1192 c 1,62,63
 1177 1238 1177 1238 1123 1274.5 c 128,-1,64
 1069 1311 1069 1311 993 1311 c 0,65,66
 858 1311 858 1311 773.5 1158.5 c 128,-1,67
 689 1006 689 1006 629 709 c 1,68,-1
 489 0 l 1,69,-1
 -59 0 l 1,70,-1
 76 678 l 2,0,1
EndSplineSet
Validated: 8388609
Position2: "'cpsp' Capital Spacing lookup 3 subtable" dx=10 dy=0 dh=20 dv=0
EndChar

StartChar: Schwa
Encoding: 399 399 116
Width: 1267
Flags: MW
HStem: -53 106<431 496 431 693> 631 84<694 702> 1022 371<608 616>
VStem: -20 414<162 203 162 389> 729 532<802 883>
LayerCount: 2
UndoRedoHistory
Layer: 1
Undoes
EndUndoes
Redoes
EndRedoes
EndUndoRedoHistory
Fore
SplineSet
463 53 m 0,0,1
 609 53 609 53 702 631 c 1,2,3
 621 631 621 631 560 596 c 128,-1,4
 499 561 499 561 464 499.5 c 128,-1,5
 429 438 429 438 412 364 c 128,-1,6
 395 290 395 290 393 203 c 0,7,8
 393 168 393 168 395 144.5 c 128,-1,9
 397 121 397 121 404 98 c 128,-1,10
 411 75 411 75 425.5 64 c 128,-1,11
 440 53 440 53 463 53 c 0,0,1
406 -53 m 0,12,13
 335 -53 335 -53 278.5 -46 c 128,-1,14
 222 -39 222 -39 164 -18 c 128,-1,15
 106 3 106 3 67.5 37.5 c 128,-1,16
 29 72 29 72 4.5 131.5 c 128,-1,17
 -20 191 -20 191 -20 270 c 0,18,19
 -20 362 -20 362 13.5 434.5 c 128,-1,20
 47 507 47 507 119 565 c 128,-1,21
 191 623 191 623 312 659.5 c 128,-1,22
 433 696 433 696 600 709 c 1,23,24
 661 715 661 715 719 715 c 1,25,26
 729 773 729 773 729 817 c 0,27,28
 729 919 729 919 687.5 970.5 c 128,-1,29
 646 1022 646 1022 551 1022 c 0,30,31
 462 1022 462 1022 365 981.5 c 128,-1,32
 268 941 268 941 219 870 c 1,33,34
 162 921 162 921 162 999 c 128,-1,35
 162 1077 162 1077 196.5 1143 c 128,-1,36
 231 1209 231 1209 289 1254 c 128,-1,37
 347 1299 347 1299 422.5 1331 c 128,-1,38
 498 1363 498 1363 578.5 1378 c 128,-1,39
 659 1393 659 1393 741 1393 c 0,40,41
 988 1393 988 1393 1125 1244.5 c 128,-1,42
 1262 1096 1262 1096 1262 791 c 0,43,44
 1262 651 1262 651 1228.5 526 c 128,-1,45
 1195 401 1195 401 1125.5 295 c 128,-1,46
 1056 189 1056 189 956 111.5 c 128,-1,47
 856 34 856 34 715 -9.5 c 128,-1,48
 574 -53 574 -53 406 -53 c 0,12,13
EndSplineSet
Validated: 1
Position2: "'cpsp' Capital Spacing lookup 3 subtable" dx=10 dy=0 dh=20 dv=0
EndChar

StartChar: T
Encoding: 84 84 117
Width: 1064
Flags: MW
HStem: 1075 276<98 950 98 950 303 365 881 950 950 965 881 881> 1329 41G
VStem: 98 1104<1075 1263>
LayerCount: 2
UndoRedoHistory
Layer: 1
Undoes
EndUndoes
Redoes
EndRedoes
EndUndoRedoHistory
Fore
SplineSet
950 1352 m 2,0,1
 1099 1352 1099 1352 1169 1370 c 1,2,3
 1202 1328 1202 1328 1202 1241 c 0,4,5
 1202 1145 1202 1145 1141.5 1110 c 128,-1,6
 1081 1075 1081 1075 965 1075 c 2,7,-1
 881 1075 l 1,8,-1
 748 393 l 1,9,10
 725 251 725 251 725 186 c 0,11,12
 725 140 725 140 734.5 98 c 128,-1,13
 744 56 744 56 754 39 c 1,14,15
 633 -41 633 -41 473 -41 c 0,16,17
 343 -41 343 -41 278 23 c 128,-1,18
 213 87 213 87 213 205 c 0,19,20
 213 362 213 362 295 764 c 1,21,-1
 365 1075 l 1,22,-1
 229 1075 l 1,23,-1
 98 1075 l 1,24,25
 98 1089 98 1089 99 1120 c 128,-1,26
 100 1151 100 1151 100 1157 c 0,27,28
 100 1261 100 1261 149 1306.5 c 128,-1,29
 198 1352 198 1352 303 1352 c 2,30,-1
 950 1352 l 2,0,1
EndSplineSet
Validated: 8388609
Position2: "'cpsp' Capital Spacing lookup 3 subtable" dx=10 dy=0 dh=20 dv=0
EndChar

StartChar: Tbar
Encoding: 358 358 118
Width: 1064
Flags: MW
HStem: 567 209<221 254 78 301 821 903> 1075 276<98 950 98 950 303 365 881 950 950 965 881 881> 1329 41G
VStem: 72 1130<618 1263>
LayerCount: 2
UndoRedoHistory
Layer: 1
Undoes
EndUndoes
Redoes
EndRedoes
EndUndoRedoHistory
Fore
SplineSet
950 1352 m 2,0,1
 1099 1352 1099 1352 1169 1370 c 1,2,3
 1202 1328 1202 1328 1202 1241 c 0,4,5
 1202 1145 1202 1145 1141.5 1110 c 128,-1,6
 1081 1075 1081 1075 965 1075 c 2,7,-1
 881 1075 l 1,8,-1
 821 776 l 1,9,-1
 1063 776 l 1,10,11
 1071 744 1071 744 1071 715 c 0,12,13
 1071 652 1071 652 1026.5 609.5 c 128,-1,14
 982 567 982 567 903 567 c 2,15,-1
 782 567 l 1,16,-1
 748 393 l 1,17,18
 725 251 725 251 725 186 c 0,19,20
 725 140 725 140 734.5 98 c 128,-1,21
 744 56 744 56 754 39 c 1,22,23
 633 -41 633 -41 473 -41 c 0,24,25
 343 -41 343 -41 278 23 c 128,-1,26
 213 87 213 87 213 205 c 0,27,28
 213 301 213 301 250 508 c 1,29,-1
 254 567 l 1,30,-1
 78 567 l 1,31,32
 72 587 72 587 72 627 c 0,33,34
 73 692 73 692 116 734 c 128,-1,35
 159 776 159 776 221 776 c 2,36,-1
 301 776 l 1,37,-1
 365 1075 l 1,38,-1
 229 1075 l 1,39,-1
 98 1075 l 1,40,41
 98 1089 98 1089 99 1120 c 128,-1,42
 100 1151 100 1151 100 1157 c 0,43,44
 100 1261 100 1261 149 1306.5 c 128,-1,45
 198 1352 198 1352 303 1352 c 2,46,-1
 950 1352 l 2,0,1
EndSplineSet
Validated: 8388609
Position2: "'cpsp' Capital Spacing lookup 3 subtable" dx=10 dy=0 dh=20 dv=0
EndChar

StartChar: Tcaron
Encoding: 356 356 119
Width: 1064
Flags: MW
HStem: 1075 276<303 365 98 950 881 950 950 965 881 881> 1329 41G
VStem: 98 1104<1075 1263>
LayerCount: 2
UndoRedoHistory
Layer: 1
Undoes
EndUndoes
Redoes
EndRedoes
EndUndoRedoHistory
Fore
SplineSet
950 1352 m 2,0,1
 1099 1352 1099 1352 1169 1370 c 1,2,3
 1202 1328 1202 1328 1202 1241 c 0,4,5
 1202 1145 1202 1145 1141.5 1110 c 128,-1,6
 1081 1075 1081 1075 965 1075 c 2,7,-1
 881 1075 l 1,8,-1
 748 393 l 1,9,10
 725 251 725 251 725 186 c 0,11,12
 725 140 725 140 734.5 98 c 128,-1,13
 744 56 744 56 754 39 c 1,14,15
 633 -41 633 -41 473 -41 c 0,16,17
 343 -41 343 -41 278 23 c 128,-1,18
 213 87 213 87 213 205 c 0,19,20
 213 362 213 362 295 764 c 1,21,-1
 365 1075 l 1,22,-1
 98 1075 l 1,23,-1
 100 1157 l 1,24,25
 100 1261 100 1261 149 1306.5 c 128,-1,26
 198 1352 198 1352 303 1352 c 2,27,-1
 950 1352 l 2,0,1
463 1782 m 1,28,-1
 735 1665 l 1,29,-1
 1077 1782 l 1,30,-1
 1145 1690 l 1,31,-1
 817 1423 l 1,32,-1
 602 1423 l 1,33,-1
 350 1690 l 1,34,-1
 463 1782 l 1,28,-1
EndSplineSet
Validated: 8388609
Position2: "'cpsp' Capital Spacing lookup 3 subtable" dx=10 dy=0 dh=20 dv=0
EndChar

StartChar: Tcedilla
Encoding: 354 354 120
Width: 1064
Flags: MW
HStem: -532 164<335 386 331 495> -225 115 1075 276<303 365 98 950 881 950 950 965 881 881> 1329 41G
VStem: 453 303<-321 -264>
LayerCount: 2
UndoRedoHistory
Layer: 1
Undoes
EndUndoes
Redoes
EndRedoes
EndUndoRedoHistory
Fore
SplineSet
950 1352 m 2,0,1
 1099 1352 1099 1352 1169 1370 c 1,2,3
 1202 1328 1202 1328 1202 1241 c 0,4,5
 1202 1145 1202 1145 1141.5 1110 c 128,-1,6
 1081 1075 1081 1075 965 1075 c 2,7,-1
 881 1075 l 1,8,-1
 748 393 l 1,9,10
 725 251 725 251 725 186 c 0,11,12
 725 140 725 140 734.5 98 c 128,-1,13
 744 56 744 56 754 39 c 1,14,15
 662 -24 662 -24 532 -37 c 1,16,-1
 512 -111 l 1,17,-1
 518 -111 l 2,18,19
 623 -111 623 -111 689.5 -152.5 c 128,-1,20
 756 -194 756 -194 756 -281 c 0,21,22
 756 -391 756 -391 651.5 -461.5 c 128,-1,23
 547 -532 547 -532 397 -532 c 0,24,25
 303 -532 303 -532 249 -502 c 128,-1,26
 195 -472 195 -472 195 -420 c 0,27,28
 195 -345 195 -345 233 -299 c 1,29,30
 253 -334 253 -334 284 -351.5 c 128,-1,31
 315 -369 315 -369 369 -369 c 0,32,33
 400 -369 400 -369 426.5 -350 c 128,-1,34
 453 -331 453 -331 453 -293 c 0,35,36
 453 -225 453 -225 373 -225 c 0,37,38
 341 -225 341 -225 283 -229 c 1,39,-1
 346 -20 l 1,40,41
 213 35 213 35 213 205 c 0,42,43
 213 362 213 362 295 764 c 1,44,-1
 365 1075 l 1,45,-1
 98 1075 l 1,46,-1
 100 1157 l 1,47,48
 100 1261 100 1261 149 1306.5 c 128,-1,49
 198 1352 198 1352 303 1352 c 2,50,-1
 950 1352 l 2,0,1
EndSplineSet
Validated: 8388609
Substitution2: "'locl' Localized Forms in Latin lookup 12 subtable" uni021A
Substitution2: "'locl' Localized Forms in Latin lookup 11 subtable" uni021A
Substitution2: "'aalt' Access All Alternates lookup 0 subtable" uni021A
Position2: "'cpsp' Capital Spacing lookup 3 subtable" dx=10 dy=0 dh=20 dv=0
EndChar

StartChar: uni021A
Encoding: 538 538 121
Width: 1064
Flags: MW
HStem: 1075 276<303 365 98 950 881 950 950 965 881 881> 1329 41G
VStem: 236 326<-321 -234>
LayerCount: 2
UndoRedoHistory
Layer: 1
Undoes
EndUndoes
Redoes
EndRedoes
EndUndoRedoHistory
Fore
SplineSet
561 -233 m 0,0,1
 561 -309 561 -309 521 -372.5 c 128,-1,2
 481 -436 481 -436 420.5 -473.5 c 128,-1,3
 360 -511 360 -511 297 -531 c 128,-1,4
 234 -551 234 -551 180 -551 c 0,5,6
 148 -551 148 -551 104 -537 c 1,7,8
 181 -458 181 -458 208.5 -403.5 c 128,-1,9
 236 -349 236 -349 236 -254 c 0,10,11
 236 -226 236 -226 228.5 -190.5 c 128,-1,12
 221 -155 221 -155 213 -139 c 1,13,14
 314 -106 314 -106 379 -106 c 0,15,16
 561 -106 561 -106 561 -233 c 0,0,1
950 1352 m 2,17,18
 1099 1352 1099 1352 1169 1370 c 1,19,20
 1202 1328 1202 1328 1202 1241 c 0,21,22
 1202 1145 1202 1145 1141.5 1110 c 128,-1,23
 1081 1075 1081 1075 965 1075 c 2,24,-1
 881 1075 l 1,25,-1
 748 393 l 1,26,27
 725 251 725 251 725 186 c 0,28,29
 725 140 725 140 734.5 98 c 128,-1,30
 744 56 744 56 754 39 c 1,31,32
 633 -41 633 -41 473 -41 c 0,33,34
 343 -41 343 -41 278 23 c 128,-1,35
 213 87 213 87 213 205 c 0,36,37
 213 362 213 362 295 764 c 1,38,-1
 365 1075 l 1,39,-1
 98 1075 l 1,40,-1
 100 1157 l 1,41,42
 100 1261 100 1261 149 1306.5 c 128,-1,43
 198 1352 198 1352 303 1352 c 2,44,-1
 950 1352 l 2,17,18
EndSplineSet
Validated: 8388609
Position2: "'cpsp' Capital Spacing lookup 3 subtable" dx=10 dy=0 dh=20 dv=0
EndChar

StartChar: Tdotbelow
Encoding: 7788 7788 122
Width: 1064
Flags: MW
HStem: -412 346<362 495> 1075 276<303 365 98 950 881 950 950 965 881 881> 1329 41G
VStem: 98 1104<1075 1263> 182 485<-296 -188>
LayerCount: 2
UndoRedoHistory
Layer: 1
Undoes
EndUndoes
Redoes
EndRedoes
EndUndoRedoHistory
Fore
SplineSet
432 -66 m 0,0,1
 537 -66 537 -66 602.5 -113.5 c 128,-1,2
 668 -161 668 -161 668 -240 c 0,3,4
 668 -322 668 -322 600.5 -367 c 128,-1,5
 533 -412 533 -412 424 -412 c 128,-1,6
 315 -412 315 -412 248.5 -368 c 128,-1,7
 182 -324 182 -324 182 -244 c 0,8,9
 182 -163 182 -163 253.5 -114.5 c 128,-1,10
 325 -66 325 -66 432 -66 c 0,0,1
950 1352 m 2,11,12
 1099 1352 1099 1352 1169 1370 c 1,13,14
 1202 1328 1202 1328 1202 1241 c 0,15,16
 1202 1145 1202 1145 1141.5 1110 c 128,-1,17
 1081 1075 1081 1075 965 1075 c 2,18,-1
 881 1075 l 1,19,-1
 748 393 l 1,20,21
 725 251 725 251 725 186 c 0,22,23
 725 140 725 140 734.5 98 c 128,-1,24
 744 56 744 56 754 39 c 1,25,26
 633 -41 633 -41 473 -41 c 0,27,28
 343 -41 343 -41 278 23 c 128,-1,29
 213 87 213 87 213 205 c 0,30,31
 213 362 213 362 295 764 c 1,32,-1
 365 1075 l 1,33,-1
 98 1075 l 1,34,-1
 100 1157 l 1,35,36
 100 1261 100 1261 149 1306.5 c 128,-1,37
 198 1352 198 1352 303 1352 c 2,38,-1
 950 1352 l 2,11,12
EndSplineSet
Validated: 8388609
Position2: "'cpsp' Capital Spacing lookup 3 subtable" dx=10 dy=0 dh=20 dv=0
EndChar

StartChar: U
Encoding: 85 85 123
Width: 1325
Flags: MW
HStem: -41 205<656 763 656 782> 1311 41G<221 778 778 778 1075 1432 1432 1432>
VStem: 37 1395<164 1352>
LayerCount: 2
UndoRedoHistory
Layer: 1
Undoes
EndUndoes
Redoes
EndRedoes
EndUndoRedoHistory
Fore
SplineSet
1272 508 m 2,0,1
 1218 223 1218 223 1051.5 91 c 128,-1,2
 885 -41 885 -41 573 -41 c 0,3,4
 461 -41 461 -41 370 -24.5 c 128,-1,5
 279 -8 279 -8 201.5 28.5 c 128,-1,6
 124 65 124 65 80.5 132.5 c 128,-1,7
 37 200 37 200 37 295 c 0,8,9
 37 396 37 396 63 530 c 2,10,-1
 221 1352 l 1,11,-1
 778 1352 l 1,12,-1
 621 502 l 1,13,14
 590 324 590 324 590 281 c 0,15,16
 590 220 590 220 614 192 c 128,-1,17
 638 164 638 164 696 164 c 0,18,19
 735 164 735 164 765 179 c 128,-1,20
 795 194 795 194 815 218 c 128,-1,21
 835 242 835 242 852 286 c 128,-1,22
 869 330 869 330 879.5 372.5 c 128,-1,23
 890 415 890 415 903 483 c 2,24,-1
 1075 1352 l 1,25,-1
 1432 1352 l 1,26,-1
 1272 508 l 2,0,1
EndSplineSet
Validated: 1
Position2: "'cpsp' Capital Spacing lookup 3 subtable" dx=10 dy=0 dh=20 dv=0
EndChar

StartChar: Uacute
Encoding: 218 218 124
Width: 1325
Flags: MW
HStem: -41 205<656 763 656 782> 1311 41G<221 778 778 778 1075 1432 1432 1432>
VStem: 37 1395<164 1352>
LayerCount: 2
UndoRedoHistory
Layer: 1
Undoes
EndUndoes
Redoes
EndRedoes
EndUndoRedoHistory
Fore
SplineSet
1272 508 m 2,0,1
 1218 223 1218 223 1051.5 91 c 128,-1,2
 885 -41 885 -41 573 -41 c 0,3,4
 461 -41 461 -41 370 -24.5 c 128,-1,5
 279 -8 279 -8 201.5 28.5 c 128,-1,6
 124 65 124 65 80.5 132.5 c 128,-1,7
 37 200 37 200 37 295 c 0,8,9
 37 396 37 396 63 530 c 2,10,-1
 221 1352 l 1,11,-1
 778 1352 l 1,12,-1
 621 502 l 1,13,14
 590 324 590 324 590 281 c 0,15,16
 590 220 590 220 614 192 c 128,-1,17
 638 164 638 164 696 164 c 0,18,19
 735 164 735 164 765 179 c 128,-1,20
 795 194 795 194 815 218 c 128,-1,21
 835 242 835 242 852 286 c 128,-1,22
 869 330 869 330 879.5 372.5 c 128,-1,23
 890 415 890 415 903 483 c 2,24,-1
 1075 1352 l 1,25,-1
 1432 1352 l 1,26,-1
 1272 508 l 2,0,1
709 1556 m 1,27,-1
 1221 1780 l 1,28,29
 1253 1754 1253 1754 1268.5 1727.5 c 128,-1,30
 1284 1701 1284 1701 1284 1659 c 0,31,32
 1284 1559 1284 1559 1200 1509.5 c 128,-1,33
 1116 1460 1116 1460 983 1458 c 1,34,-1
 737 1452 l 1,35,-1
 709 1556 l 1,27,-1
EndSplineSet
Validated: 1
Position2: "'cpsp' Capital Spacing lookup 3 subtable" dx=10 dy=0 dh=20 dv=0
EndChar

StartChar: Ubreve
Encoding: 364 364 125
Width: 1325
Flags: MW
HStem: -41 205<656 763 656 782> 1311 41G<221 778 778 778 1075 1432 1432 1432> 1434 272<722 846 993 1000>
VStem: 477 358<1593 1595 1576 1660>
LayerCount: 2
UndoRedoHistory
Layer: 1
Undoes
EndUndoes
Redoes
EndRedoes
EndUndoRedoHistory
Fore
SplineSet
1272 508 m 2,0,1
 1218 223 1218 223 1051.5 91 c 128,-1,2
 885 -41 885 -41 573 -41 c 0,3,4
 461 -41 461 -41 370 -24.5 c 128,-1,5
 279 -8 279 -8 201.5 28.5 c 128,-1,6
 124 65 124 65 80.5 132.5 c 128,-1,7
 37 200 37 200 37 295 c 0,8,9
 37 396 37 396 63 530 c 2,10,-1
 221 1352 l 1,11,-1
 778 1352 l 1,12,-1
 621 502 l 1,13,14
 590 324 590 324 590 281 c 0,15,16
 590 220 590 220 614 192 c 128,-1,17
 638 164 638 164 696 164 c 0,18,19
 735 164 735 164 765 179 c 128,-1,20
 795 194 795 194 815 218 c 128,-1,21
 835 242 835 242 852 286 c 128,-1,22
 869 330 869 330 879.5 372.5 c 128,-1,23
 890 415 890 415 903 483 c 2,24,-1
 1075 1352 l 1,25,-1
 1432 1352 l 1,26,-1
 1272 508 l 2,0,1
846 1706 m 1,27,28
 838 1648 838 1648 838 1622 c 0,29,30
 838 1618 838 1618 837 1607 c 128,-1,31
 836 1596 836 1596 836 1589 c 0,32,33
 836 1534 836 1534 893 1534 c 0,34,35
 910 1534 910 1534 923.5 1541.5 c 128,-1,36
 937 1549 937 1549 945.5 1559.5 c 128,-1,37
 954 1570 954 1570 961.5 1589.5 c 128,-1,38
 969 1609 969 1609 973 1624.5 c 128,-1,39
 977 1640 977 1640 983 1665.5 c 128,-1,40
 989 1691 989 1691 993 1706 c 1,41,-1
 1343 1706 l 1,42,43
 1317 1586 1317 1586 1190.5 1510 c 128,-1,44
 1064 1434 1064 1434 860 1434 c 0,45,46
 665 1434 665 1434 571 1495.5 c 128,-1,47
 477 1557 477 1557 477 1651 c 0,48,49
 477 1676 477 1676 483 1706 c 1,50,-1
 846 1706 l 1,27,28
EndSplineSet
Validated: 1
Position2: "'cpsp' Capital Spacing lookup 3 subtable" dx=10 dy=0 dh=20 dv=0
EndChar

StartChar: Ucircumflex
Encoding: 219 219 126
Width: 1325
Flags: MW
HStem: -41 205<656 763 656 782> 1311 41G<221 778 778 778 1075 1432 1432 1432>
VStem: 37 1395<164 1352>
LayerCount: 2
UndoRedoHistory
Layer: 1
Undoes
EndUndoes
Redoes
EndRedoes
EndUndoRedoHistory
Fore
SplineSet
1272 508 m 2,0,1
 1218 223 1218 223 1051.5 91 c 128,-1,2
 885 -41 885 -41 573 -41 c 0,3,4
 461 -41 461 -41 370 -24.5 c 128,-1,5
 279 -8 279 -8 201.5 28.5 c 128,-1,6
 124 65 124 65 80.5 132.5 c 128,-1,7
 37 200 37 200 37 295 c 0,8,9
 37 396 37 396 63 530 c 2,10,-1
 221 1352 l 1,11,-1
 778 1352 l 1,12,-1
 621 502 l 1,13,14
 590 324 590 324 590 281 c 0,15,16
 590 220 590 220 614 192 c 128,-1,17
 638 164 638 164 696 164 c 0,18,19
 735 164 735 164 765 179 c 128,-1,20
 795 194 795 194 815 218 c 128,-1,21
 835 242 835 242 852 286 c 128,-1,22
 869 330 869 330 879.5 372.5 c 128,-1,23
 890 415 890 415 903 483 c 2,24,-1
 1075 1352 l 1,25,-1
 1432 1352 l 1,26,-1
 1272 508 l 2,0,1
1178 1411 m 1,27,-1
 926 1487 l 1,28,-1
 604 1411 l 1,29,-1
 537 1503 l 1,30,-1
 905 1749 l 1,31,-1
 997 1749 l 1,32,-1
 1290 1503 l 1,33,-1
 1178 1411 l 1,27,-1
EndSplineSet
Validated: 1
Position2: "'cpsp' Capital Spacing lookup 3 subtable" dx=10 dy=0 dh=20 dv=0
EndChar

StartChar: Udieresis
Encoding: 220 220 127
Width: 1325
Flags: MW
HStem: -41 205<656 763 656 782> 1311 41G<221 778 778 778 1075 1432 1432 1432> 1413 346<563 695 1073 1205>
VStem: 37 1395<164 1352> 383 485<1529 1636> 893 485<1529 1636>
LayerCount: 2
UndoRedoHistory
Layer: 1
Undoes
EndUndoes
Redoes
EndRedoes
EndUndoRedoHistory
Fore
SplineSet
1272 508 m 2,0,1
 1218 223 1218 223 1051.5 91 c 128,-1,2
 885 -41 885 -41 573 -41 c 0,3,4
 461 -41 461 -41 370 -24.5 c 128,-1,5
 279 -8 279 -8 201.5 28.5 c 128,-1,6
 124 65 124 65 80.5 132.5 c 128,-1,7
 37 200 37 200 37 295 c 0,8,9
 37 396 37 396 63 530 c 2,10,-1
 221 1352 l 1,11,-1
 778 1352 l 1,12,-1
 621 502 l 1,13,14
 590 324 590 324 590 281 c 0,15,16
 590 220 590 220 614 192 c 128,-1,17
 638 164 638 164 696 164 c 0,18,19
 735 164 735 164 765 179 c 128,-1,20
 795 194 795 194 815 218 c 128,-1,21
 835 242 835 242 852 286 c 128,-1,22
 869 330 869 330 879.5 372.5 c 128,-1,23
 890 415 890 415 903 483 c 2,24,-1
 1075 1352 l 1,25,-1
 1432 1352 l 1,26,-1
 1272 508 l 2,0,1
1143 1759 m 0,27,28
 1248 1759 1248 1759 1313 1711.5 c 128,-1,29
 1378 1664 1378 1664 1378 1585 c 0,30,31
 1378 1503 1378 1503 1311 1458 c 128,-1,32
 1244 1413 1244 1413 1135 1413 c 128,-1,33
 1026 1413 1026 1413 959.5 1457 c 128,-1,34
 893 1501 893 1501 893 1581 c 0,35,36
 893 1662 893 1662 964.5 1710.5 c 128,-1,37
 1036 1759 1036 1759 1143 1759 c 0,27,28
633 1759 m 0,38,39
 738 1759 738 1759 803 1711.5 c 128,-1,40
 868 1664 868 1664 868 1585 c 0,41,42
 868 1503 868 1503 801 1458 c 128,-1,43
 734 1413 734 1413 625 1413 c 128,-1,44
 516 1413 516 1413 449.5 1457 c 128,-1,45
 383 1501 383 1501 383 1581 c 0,46,47
 383 1662 383 1662 454.5 1710.5 c 128,-1,48
 526 1759 526 1759 633 1759 c 0,38,39
EndSplineSet
Validated: 8388609
Position2: "'cpsp' Capital Spacing lookup 3 subtable" dx=10 dy=0 dh=20 dv=0
EndChar

StartChar: Udotbelow
Encoding: 7908 7908 128
Width: 1325
Flags: MW
HStem: -412 346<510 642> -41 205<656 763 656 782> 1311 41G<221 778 778 778 1075 1432 1432 1432>
VStem: 37 1395<164 1352> 330 485<-296 -188>
LayerCount: 2
UndoRedoHistory
Layer: 1
Undoes
EndUndoes
Redoes
EndRedoes
EndUndoRedoHistory
Fore
SplineSet
580 -66 m 0,0,1
 685 -66 685 -66 750 -113.5 c 128,-1,2
 815 -161 815 -161 815 -240 c 0,3,4
 815 -322 815 -322 747.5 -367 c 128,-1,5
 680 -412 680 -412 571 -412 c 128,-1,6
 462 -412 462 -412 396 -368 c 128,-1,7
 330 -324 330 -324 330 -244 c 0,8,9
 330 -163 330 -163 401.5 -114.5 c 128,-1,10
 473 -66 473 -66 580 -66 c 0,0,1
1272 508 m 2,11,12
 1218 223 1218 223 1051.5 91 c 128,-1,13
 885 -41 885 -41 573 -41 c 0,14,15
 461 -41 461 -41 370 -24.5 c 128,-1,16
 279 -8 279 -8 201.5 28.5 c 128,-1,17
 124 65 124 65 80.5 132.5 c 128,-1,18
 37 200 37 200 37 295 c 0,19,20
 37 396 37 396 63 530 c 2,21,-1
 221 1352 l 1,22,-1
 778 1352 l 1,23,-1
 621 502 l 1,24,25
 590 324 590 324 590 281 c 0,26,27
 590 220 590 220 614 192 c 128,-1,28
 638 164 638 164 696 164 c 0,29,30
 735 164 735 164 765 179 c 128,-1,31
 795 194 795 194 815 218 c 128,-1,32
 835 242 835 242 852 286 c 128,-1,33
 869 330 869 330 879.5 372.5 c 128,-1,34
 890 415 890 415 903 483 c 2,35,-1
 1075 1352 l 1,36,-1
 1432 1352 l 1,37,-1
 1272 508 l 2,11,12
EndSplineSet
Validated: 8388609
Position2: "'cpsp' Capital Spacing lookup 3 subtable" dx=10 dy=0 dh=20 dv=0
EndChar

StartChar: Ugrave
Encoding: 217 217 129
Width: 1325
Flags: MW
HStem: -41 205<656 763 656 782> 1311 41G<221 778 778 778 1075 1432 1432 1432> 1457 103
VStem: 37 1395<164 1352>
LayerCount: 2
UndoRedoHistory
Layer: 1
Undoes
EndUndoes
Redoes
EndRedoes
EndUndoRedoHistory
Fore
SplineSet
1272 508 m 2,0,1
 1218 223 1218 223 1051.5 91 c 128,-1,2
 885 -41 885 -41 573 -41 c 0,3,4
 461 -41 461 -41 370 -24.5 c 128,-1,5
 279 -8 279 -8 201.5 28.5 c 128,-1,6
 124 65 124 65 80.5 132.5 c 128,-1,7
 37 200 37 200 37 295 c 0,8,9
 37 396 37 396 63 530 c 2,10,-1
 221 1352 l 1,11,-1
 778 1352 l 1,12,-1
 621 502 l 1,13,14
 590 324 590 324 590 281 c 0,15,16
 590 220 590 220 614 192 c 128,-1,17
 638 164 638 164 696 164 c 0,18,19
 735 164 735 164 765 179 c 128,-1,20
 795 194 795 194 815 218 c 128,-1,21
 835 242 835 242 852 286 c 128,-1,22
 869 330 869 330 879.5 372.5 c 128,-1,23
 890 415 890 415 903 483 c 2,24,-1
 1075 1352 l 1,25,-1
 1432 1352 l 1,26,-1
 1272 508 l 2,0,1
1108 1454 m 1,27,-1
 860 1460 l 2,28,29
 775 1462 775 1462 710 1482 c 128,-1,30
 645 1502 645 1502 603 1548 c 128,-1,31
 561 1594 561 1594 561 1663 c 0,32,33
 561 1734 561 1734 625 1782 c 1,34,-1
 1137 1561 l 1,35,-1
 1108 1454 l 1,27,-1
EndSplineSet
Validated: 1
Position2: "'cpsp' Capital Spacing lookup 3 subtable" dx=10 dy=0 dh=20 dv=0
EndChar

StartChar: Uhungarumlaut
Encoding: 368 368 130
Width: 1325
Flags: MW
HStem: -41 205<656 763 656 782> 1311 41G<221 778 778 778 1075 1432 1432 1432>
VStem: 37 1466<164 1656>
LayerCount: 2
UndoRedoHistory
Layer: 1
Undoes
EndUndoes
Redoes
EndRedoes
EndUndoRedoHistory
Fore
SplineSet
1272 508 m 2,0,1
 1218 223 1218 223 1051.5 91 c 128,-1,2
 885 -41 885 -41 573 -41 c 0,3,4
 461 -41 461 -41 370 -24.5 c 128,-1,5
 279 -8 279 -8 201.5 28.5 c 128,-1,6
 124 65 124 65 80.5 132.5 c 128,-1,7
 37 200 37 200 37 295 c 0,8,9
 37 396 37 396 63 530 c 2,10,-1
 221 1352 l 1,11,-1
 778 1352 l 1,12,-1
 621 502 l 1,13,14
 590 324 590 324 590 281 c 0,15,16
 590 220 590 220 614 192 c 128,-1,17
 638 164 638 164 696 164 c 0,18,19
 735 164 735 164 765 179 c 128,-1,20
 795 194 795 194 815 218 c 128,-1,21
 835 242 835 242 852 286 c 128,-1,22
 869 330 869 330 879.5 372.5 c 128,-1,23
 890 415 890 415 903 483 c 2,24,-1
 1075 1352 l 1,25,-1
 1432 1352 l 1,26,-1
 1272 508 l 2,0,1
1409 1765 m 1,27,28
 1451 1741 1451 1741 1477 1704.5 c 128,-1,29
 1503 1668 1503 1668 1503 1628 c 0,30,31
 1503 1546 1503 1546 1448.5 1502.5 c 128,-1,32
 1394 1459 1394 1459 1274 1444 c 2,33,-1
 1063 1417 l 1,34,-1
 995 1530 l 1,35,-1
 1409 1765 l 1,27,28
899 1765 m 1,36,37
 945 1741 945 1741 972 1704.5 c 128,-1,38
 999 1668 999 1668 999 1626 c 0,39,40
 999 1543 999 1543 944.5 1499.5 c 128,-1,41
 890 1456 890 1456 770 1444 c 1,42,-1
 555 1417 l 1,43,-1
 492 1530 l 1,44,-1
 899 1765 l 1,36,37
EndSplineSet
Validated: 1
Position2: "'cpsp' Capital Spacing lookup 3 subtable" dx=10 dy=0 dh=20 dv=0
EndChar

StartChar: Umacron
Encoding: 362 362 131
Width: 1325
Flags: MW
HStem: -41 205<656 763 656 782> 1311 41G<221 778 778 778 1075 1432 1432 1432> 1520 197<715 1077 575 1233>
VStem: 37 1395<164 1352>
LayerCount: 2
UndoRedoHistory
Layer: 1
Undoes
EndUndoes
Redoes
EndRedoes
EndUndoRedoHistory
Fore
SplineSet
1272 508 m 2,0,1
 1218 223 1218 223 1051.5 91 c 128,-1,2
 885 -41 885 -41 573 -41 c 0,3,4
 461 -41 461 -41 370 -24.5 c 128,-1,5
 279 -8 279 -8 201.5 28.5 c 128,-1,6
 124 65 124 65 80.5 132.5 c 128,-1,7
 37 200 37 200 37 295 c 0,8,9
 37 396 37 396 63 530 c 2,10,-1
 221 1352 l 1,11,-1
 778 1352 l 1,12,-1
 621 502 l 1,13,14
 590 324 590 324 590 281 c 0,15,16
 590 220 590 220 614 192 c 128,-1,17
 638 164 638 164 696 164 c 0,18,19
 735 164 735 164 765 179 c 128,-1,20
 795 194 795 194 815 218 c 128,-1,21
 835 242 835 242 852 286 c 128,-1,22
 869 330 869 330 879.5 372.5 c 128,-1,23
 890 415 890 415 903 483 c 2,24,-1
 1075 1352 l 1,25,-1
 1432 1352 l 1,26,-1
 1272 508 l 2,0,1
1233 1716 m 1,27,28
 1241 1684 1241 1684 1241 1655 c 0,29,30
 1241 1596 1241 1596 1199 1558 c 128,-1,31
 1157 1520 1157 1520 1077 1520 c 2,32,-1
 575 1520 l 1,33,34
 569 1538 569 1538 569 1577 c 0,35,36
 570 1638 570 1638 611.5 1677 c 128,-1,37
 653 1716 653 1716 715 1716 c 2,38,-1
 1233 1716 l 1,27,28
EndSplineSet
Validated: 1
Position2: "'cpsp' Capital Spacing lookup 3 subtable" dx=10 dy=0 dh=20 dv=0
EndChar

StartChar: Uogonek
Encoding: 370 370 132
Width: 1325
Flags: MW
HStem: -528 203<822 844> -41 205<434 763> 1311 41G<221 778 778 778 1075 1432 1432 1432>
VStem: 494 270<-268 -253>
LayerCount: 2
UndoRedoHistory
Layer: 1
Undoes
EndUndoes
Redoes
EndRedoes
EndUndoRedoHistory
Fore
SplineSet
1432 1352 m 1,0,-1
 1272 508 l 2,1,2
 1237 324 1237 324 1155.5 205 c 128,-1,3
 1074 86 1074 86 940 25 c 1,4,-1
 940 20 l 1,5,6
 860 -35 860 -35 812 -102 c 128,-1,7
 764 -169 764 -169 764 -236 c 0,8,9
 764 -284 764 -284 785.5 -305 c 128,-1,10
 807 -326 807 -326 850 -326 c 0,11,12
 929 -326 929 -326 973 -274 c 1,13,14
 1012 -330 1012 -330 1012 -397 c 0,15,16
 1012 -453 1012 -453 946.5 -490.5 c 128,-1,17
 881 -528 881 -528 756 -528 c 128,-1,18
 631 -528 631 -528 562.5 -473.5 c 128,-1,19
 494 -419 494 -419 494 -315 c 0,20,21
 494 -140 494 -140 643 -39 c 1,22,-1
 573 -41 l 1,23,24
 461 -41 461 -41 370 -24.5 c 128,-1,25
 279 -8 279 -8 201.5 28.5 c 128,-1,26
 124 65 124 65 80.5 132.5 c 128,-1,27
 37 200 37 200 37 295 c 0,28,29
 37 396 37 396 63 530 c 2,30,-1
 221 1352 l 1,31,-1
 778 1352 l 1,32,-1
 621 502 l 1,33,34
 590 324 590 324 590 281 c 0,35,36
 590 220 590 220 614 192 c 128,-1,37
 638 164 638 164 696 164 c 0,38,39
 735 164 735 164 765 179 c 128,-1,40
 795 194 795 194 815 218 c 128,-1,41
 835 242 835 242 852 286 c 128,-1,42
 869 330 869 330 879.5 372.5 c 128,-1,43
 890 415 890 415 903 483 c 2,44,-1
 1075 1352 l 1,45,-1
 1432 1352 l 1,0,-1
EndSplineSet
Validated: 1
Position2: "'cpsp' Capital Spacing lookup 3 subtable" dx=10 dy=0 dh=20 dv=0
EndChar

StartChar: Uring
Encoding: 366 366 133
Width: 1325
Flags: MW
HStem: -41 205<656 763 656 782> 1311 41G<221 778 778 778 1075 1432 1432 1432> 1413 78<864 926 864 940> 1665 84<898 959>
VStem: 674 150<1533 1589 1533 1615> 995 147<1567 1622>
LayerCount: 2
UndoRedoHistory
Layer: 1
Undoes
EndUndoes
Redoes
EndRedoes
EndUndoRedoHistory
Fore
SplineSet
1272 508 m 2,0,1
 1218 223 1218 223 1051.5 91 c 128,-1,2
 885 -41 885 -41 573 -41 c 0,3,4
 461 -41 461 -41 370 -24.5 c 128,-1,5
 279 -8 279 -8 201.5 28.5 c 128,-1,6
 124 65 124 65 80.5 132.5 c 128,-1,7
 37 200 37 200 37 295 c 0,8,9
 37 396 37 396 63 530 c 2,10,-1
 221 1352 l 1,11,-1
 778 1352 l 1,12,-1
 621 502 l 1,13,14
 590 324 590 324 590 281 c 0,15,16
 590 220 590 220 614 192 c 128,-1,17
 638 164 638 164 696 164 c 0,18,19
 735 164 735 164 765 179 c 128,-1,20
 795 194 795 194 815 218 c 128,-1,21
 835 242 835 242 852 286 c 128,-1,22
 869 330 869 330 879.5 372.5 c 128,-1,23
 890 415 890 415 903 483 c 2,24,-1
 1075 1352 l 1,25,-1
 1432 1352 l 1,26,-1
 1272 508 l 2,0,1
995 1599 m 0,27,28
 995 1634 995 1634 982 1649.5 c 128,-1,29
 969 1665 969 1665 938 1665 c 0,30,31
 880 1665 880 1665 851.5 1636 c 128,-1,32
 823 1607 823 1607 823 1556 c 0,33,34
 823 1521 823 1521 838 1506 c 128,-1,35
 853 1491 853 1491 887 1491 c 0,36,37
 995 1491 995 1491 995 1599 c 0,27,28
1143 1606 m 0,38,39
 1143 1519 1143 1519 1062 1466 c 128,-1,40
 981 1413 981 1413 868 1413 c 0,41,42
 780 1413 780 1413 727 1450.5 c 128,-1,43
 674 1488 674 1488 674 1554 c 0,44,45
 674 1641 674 1641 758 1695 c 128,-1,46
 842 1749 842 1749 958 1749 c 0,47,48
 1043 1749 1043 1749 1093 1712 c 128,-1,49
 1143 1675 1143 1675 1143 1606 c 0,38,39
EndSplineSet
Validated: 1
Position2: "'cpsp' Capital Spacing lookup 3 subtable" dx=10 dy=0 dh=20 dv=0
EndChar

StartChar: Utilde
Encoding: 360 360 134
Width: 1325
Flags: MW
HStem: -41 205<656 763 656 782> 1311 41G<221 778 778 778 1075 1432 1432 1432> 1477 244<1117 1192 1117 1192> 1516 240<636 707>
VStem: 37 1395<164 1352>
LayerCount: 2
UndoRedoHistory
Layer: 1
Undoes
EndUndoes
Redoes
EndRedoes
EndUndoRedoHistory
Fore
SplineSet
1272 508 m 2,0,1
 1218 223 1218 223 1051.5 91 c 128,-1,2
 885 -41 885 -41 573 -41 c 0,3,4
 461 -41 461 -41 370 -24.5 c 128,-1,5
 279 -8 279 -8 201.5 28.5 c 128,-1,6
 124 65 124 65 80.5 132.5 c 128,-1,7
 37 200 37 200 37 295 c 0,8,9
 37 396 37 396 63 530 c 2,10,-1
 221 1352 l 1,11,-1
 778 1352 l 1,12,-1
 621 502 l 1,13,14
 590 324 590 324 590 281 c 0,15,16
 590 220 590 220 614 192 c 128,-1,17
 638 164 638 164 696 164 c 0,18,19
 735 164 735 164 765 179 c 128,-1,20
 795 194 795 194 815 218 c 128,-1,21
 835 242 835 242 852 286 c 128,-1,22
 869 330 869 330 879.5 372.5 c 128,-1,23
 890 415 890 415 903 483 c 2,24,-1
 1075 1352 l 1,25,-1
 1432 1352 l 1,26,-1
 1272 508 l 2,0,1
1298 1755 m 1,27,28
 1341 1704 1341 1704 1341 1640 c 0,29,30
 1341 1561 1341 1561 1283.5 1519 c 128,-1,31
 1226 1477 1226 1477 1124 1477 c 0,32,33
 1066 1477 1066 1477 885 1496.5 c 128,-1,34
 704 1516 704 1516 666 1516 c 0,35,36
 625 1516 625 1516 582 1504.5 c 128,-1,37
 539 1493 539 1493 518 1479 c 1,38,39
 473 1539 473 1539 473 1606 c 0,40,41
 473 1678 473 1678 530 1716.5 c 128,-1,42
 587 1755 587 1755 694 1755 c 0,43,44
 759 1755 759 1755 939.5 1737.5 c 128,-1,45
 1120 1720 1120 1720 1165 1720 c 0,46,47
 1260 1720 1260 1720 1298 1755 c 1,27,28
EndSplineSet
Validated: 8388609
Position2: "'cpsp' Capital Spacing lookup 3 subtable" dx=10 dy=0 dh=20 dv=0
EndChar

StartChar: V
Encoding: 86 86 135
Width: 1251
Flags: MW
HStem: 1311 41G<1202 1462 1462 1462> 1352 41G
VStem: 82 1380
LayerCount: 2
UndoRedoHistory
Layer: 1
Undoes
EndUndoes
Redoes
EndRedoes
EndUndoRedoHistory
Fore
SplineSet
203 926 m 1,0,1
 184 1173 184 1173 82 1262 c 1,2,3
 125 1330 125 1330 196 1361.5 c 128,-1,4
 267 1393 267 1393 379 1393 c 0,5,6
 472 1393 472 1393 538.5 1367.5 c 128,-1,7
 605 1342 605 1342 644.5 1299.5 c 0,8,9
 684 1258 684 1258 706 1188 c 0,10,11
 730 1118 730 1118 736 1044 c 0,12,13
 741 988 741 988 741 917 c 0,14,15
 741 905 741 905 741 893 c 0,16,17
 741 880 741 880 741 866 c 2,18,-1
 713 295 l 1,19,-1
 1202 1352 l 1,20,-1
 1462 1352 l 1,21,-1
 817 0 l 1,22,-1
 260 0 l 1,23,-1
 203 926 l 1,0,1
EndSplineSet
Validated: 8912897
Position2: "'cpsp' Capital Spacing lookup 3 subtable" dx=10 dy=0 dh=20 dv=0
EndChar

